<svg width="406" height="84" viewBox="0 0 406 84" fill="none" xmlns="http://www.w3.org/2000/svg">
<path d="M32.2178 50.5445C31.8061 50.1697 31.2723 49.9708 30.7233 50.0014C30.1667 50.0243 29.6559 50.2691 29.2822 50.6745L22.0385 58.6071C21.2608 59.4561 21.3218 60.7795 22.1681 61.5598C22.5494 61.9116 23.0526 62.1105 23.5788 62.1105C24.1583 62.1105 24.7149 61.8657 25.1114 61.4297L32.3551 53.4972C33.1328 52.6481 33.0718 51.3247 32.2255 50.5445H32.2178Z" fill="white"/>
<path d="M36.1825 60.7566C35.3361 59.9763 34.017 60.0375 33.2393 60.8866L25.9955 68.8191C25.2178 69.6682 25.2788 70.9916 26.1252 71.7719C26.5064 72.1237 27.0097 72.3226 27.5358 72.3226C28.1153 72.3226 28.6719 72.0778 29.0684 71.6418L36.3121 63.7093C37.0899 62.8602 37.0289 61.5368 36.1825 60.7566Z" fill="white"/>
<path d="M20.4894 47.6301C20.0776 47.2552 19.5439 47.0563 18.9949 47.0869C18.4383 47.1099 17.9274 47.3547 17.5538 47.7601L10.3101 55.6926C9.93644 56.1057 9.73819 56.6335 9.76869 57.1919C9.79157 57.7503 10.0356 58.2629 10.4397 58.6377C10.8209 58.9896 11.3242 59.1884 11.8427 59.1884C12.4222 59.1884 12.9788 58.9437 13.3753 58.5076L20.619 50.5751C20.9926 50.162 21.1909 49.6266 21.1604 49.0758C21.1375 48.5174 20.8935 48.0049 20.4894 47.6301Z" fill="white"/>
<path d="M70.0535 15.5251L70.0306 15.2191C69.9772 14.3241 69.7942 13.2915 68.8487 12.3123L68.7649 12.2282L68.6962 12.1593C67.6897 11.2567 66.6527 11.1037 65.7606 11.0884H65.4556C65.4556 11.0884 65.387 11.0807 65.3489 11.0807C60.1105 11.2949 53.9267 13.0008 47.9487 15.877C45.5697 17.0168 43.6253 18.409 41.742 19.7629C41.3684 20.0307 40.9947 20.2984 40.6211 20.5661L40.339 20.7803C40.217 20.8721 40.0874 20.9792 39.9501 21.1016C38.8826 21.9277 36.8391 23.5265 35.2303 24.9952C34.4906 25.6224 33.873 26.1885 33.3469 26.7316C28.7109 31.5432 26.1413 35.0084 23.8843 39.5369C23.8843 39.5522 23.8691 39.5675 23.8614 39.5828C22.9922 41.3039 23.3506 43.4458 24.7383 44.7921C25.9812 46.0007 27.712 46.3449 29.481 45.733C29.5802 45.7024 29.6717 45.6565 29.7708 45.5953C30.457 45.2434 31.4102 44.7079 32.592 44.0042C33.0876 45.3505 33.8425 46.5132 34.8185 47.4694L34.8338 47.4847L34.8871 47.5382L34.9405 47.5918C35.9241 48.525 37.0984 49.2211 38.448 49.6725C37.7922 50.8811 37.2966 51.8526 36.9611 52.5716C36.9154 52.6634 36.8773 52.7552 36.8468 52.8547C36.3054 54.6523 36.7095 56.3734 37.96 57.5744C38.8064 58.3852 39.9272 58.806 41.0557 58.806C41.7877 58.806 42.5197 58.63 43.1755 58.2628L43.2288 58.2399C47.6513 55.815 51.0216 53.1147 55.6423 48.2879C56.1608 47.7448 56.7098 47.1099 57.3045 46.3449C58.7152 44.6773 60.2325 42.5737 61.0103 41.4722C61.117 41.3345 61.2238 41.2045 61.3229 41.0668L61.5211 40.7761C61.7575 40.4089 61.9939 40.0494 62.2379 39.6822L62.276 39.621C63.5494 37.6857 64.8609 35.6815 65.9207 33.2566C68.5666 27.1523 70.0382 20.8951 70.0611 15.6322C70.0611 15.594 70.0611 15.5634 70.0611 15.5251H70.0535ZM31.9134 40.8373C30.3655 41.7705 29.176 42.4513 28.3907 42.8568C27.5443 43.1168 27.1173 42.8262 26.8733 42.5814C26.4387 42.153 26.3243 41.4875 26.6064 40.9444C26.6141 40.9291 26.6293 40.8985 26.6446 40.8755C28.4669 37.2267 30.4952 34.3429 33.7968 30.7323C32.3023 34.4806 31.6694 37.8769 31.921 40.8373H31.9134ZM36.9993 45.297L36.9535 45.2511C36.1834 44.4938 35.6268 43.5299 35.2913 42.3672C37.5559 40.9673 39.5231 39.6975 39.546 39.6822C41.7725 38.1676 42.3596 38.4201 42.962 38.9938L43.0382 39.0703C43.6558 39.6593 43.9532 40.2253 42.5045 42.5508C42.3749 42.765 41.2311 44.7003 39.9882 46.911C38.8216 46.6203 37.8456 46.1001 37.0679 45.3658L36.9993 45.297ZM39.7442 53.8567C40.1255 53.0382 40.7584 51.822 41.6352 50.2385C44.5861 50.3839 47.9563 49.6266 51.6316 47.9896C48.1546 51.4242 45.3562 53.5661 41.7877 55.5243C41.7649 55.5396 41.7344 55.5549 41.7115 55.5626C41.1854 55.8609 40.5144 55.7768 40.0721 55.3484C39.8205 55.1113 39.5155 54.6905 39.7366 53.8567H39.7442ZM66.9959 15.6628C66.9654 20.5049 65.5852 26.3185 63.1071 32.0251C62.5734 33.2566 61.9176 34.4653 60.9874 35.9646C60.629 36.6301 59.8665 37.9381 58.8524 39.2538L58.8143 39.3074C58.7304 39.4298 58.6008 39.5828 58.4254 39.7817C57.8612 40.4548 57.2969 41.0285 56.725 41.5028L56.6259 41.5946C56.42 41.7858 54.5367 43.4687 50.8691 44.9757C48.1393 46.2378 45.6231 46.9645 43.389 47.1405C44.1972 45.733 44.8606 44.6008 45.1275 44.1495C46.0501 42.6732 47.9563 39.6057 45.2037 36.8978L45.1351 36.829L45.0665 36.7601C42.2834 34.1134 39.302 36.1405 37.8609 37.1196C37.8532 37.1196 36.6028 37.9305 34.9405 38.9708C35.0396 36.7295 35.6725 34.1822 36.8315 31.3902C38.1582 27.7414 39.6909 25.8443 39.9882 25.4924L40.0797 25.3853C40.5296 24.8039 41.0862 24.2073 41.7344 23.6259C41.925 23.4423 42.0699 23.3123 42.1919 23.2205L42.2529 23.1746C43.5186 22.1113 44.792 21.3005 45.4477 20.9104C46.9041 19.9159 48.086 19.2198 49.2907 18.6461C54.8874 15.9535 60.6214 14.3624 65.4404 14.1558H65.7072C66.3325 14.1788 66.5002 14.2859 66.668 14.4389H66.6756C66.8357 14.6072 66.9577 14.7755 66.9882 15.4027L67.0035 15.6628H66.9959Z" fill="white"/>
<path d="M110.883 42.4054V42.9562C110.883 43.3234 110.868 43.7747 110.852 44.3178C110.83 44.8609 110.769 45.3199 110.662 45.71C110.486 46.4214 110.09 46.9569 109.449 47.3088C108.817 47.6606 108.153 47.8672 107.467 47.9054C107.276 47.9284 106.987 47.936 106.613 47.936H105.385C104.943 47.936 104.501 47.936 104.051 47.9207C103.601 47.9054 103.205 47.9054 102.861 47.9054C101.207 47.8595 100.04 47.4388 99.3616 46.628C98.683 45.8171 98.3475 44.7385 98.3475 43.3769V33.5091H93.7344C93.8412 33.685 93.8945 33.861 93.8945 34.0598C93.8945 36.087 93.5743 37.8846 92.9262 39.4451C92.278 41.0056 91.4622 42.3672 90.4557 43.5223C89.4568 44.6773 88.3664 45.6259 87.1846 46.3679C86.0027 47.1099 84.8818 47.6759 83.8296 48.0661C83.5703 48.1732 83.3416 48.2114 83.1357 48.1808C82.9298 48.1502 82.785 48.089 82.7011 48.0049C82.3808 47.7677 82.2055 47.4771 82.1826 47.1328C82.1597 46.7427 82.3198 46.4444 82.663 46.2302C83.6313 45.6718 84.5845 45.0139 85.53 44.2719C86.4754 43.5299 87.3294 42.6502 88.0919 41.6328C88.8544 40.6231 89.4644 39.4527 89.9296 38.1217C90.3947 36.7984 90.6234 35.2608 90.6234 33.5091H83.1128C82.5105 33.5091 82.175 33.3561 82.114 33.0578C82.0682 32.8665 82.053 32.6447 82.0682 32.3923C82.0835 32.1398 82.1063 31.9256 82.1521 31.7267C82.1978 31.5585 82.3046 31.4437 82.4723 31.3902C82.6477 31.3366 82.8612 31.306 83.1205 31.306H95.0154V20.4667C95.0154 20.1454 95.0993 19.9159 95.2747 19.7859C95.45 19.6558 95.6102 19.5717 95.755 19.5258C96.0753 19.4799 96.3574 19.4646 96.5938 19.4646C96.8301 19.4646 97.0741 19.4875 97.3334 19.5258C97.5011 19.5717 97.6689 19.6711 97.829 19.8318C97.9891 19.9924 98.073 20.2066 98.073 20.459V31.2984H109.876C110.09 31.2984 110.281 31.329 110.441 31.3978C110.601 31.4667 110.7 31.5814 110.746 31.7497C110.791 31.9256 110.807 32.1398 110.807 32.3999C110.807 32.66 110.784 32.8742 110.746 33.0501C110.7 33.226 110.601 33.3408 110.441 33.402C110.281 33.4632 110.09 33.5014 109.876 33.5014H101.459V43.3693C101.459 43.9506 101.596 44.402 101.878 44.7079C102.16 45.0139 102.686 45.1975 103.456 45.2434C104.036 45.2893 104.615 45.3046 105.195 45.2893C105.774 45.2817 106.453 45.2511 107.223 45.2052C107.543 45.1822 107.81 45.0522 108.016 44.815C108.222 44.5779 108.336 44.4096 108.351 44.2949C108.458 43.8818 108.55 43.5452 108.626 43.2775C108.702 43.0098 108.771 42.6885 108.839 42.3213C108.862 42.1683 108.939 42.023 109.068 41.87C109.198 41.717 109.327 41.6328 109.457 41.6099C109.648 41.564 109.815 41.5563 109.96 41.5793C110.098 41.6022 110.204 41.6099 110.265 41.6099C110.441 41.6328 110.586 41.717 110.7 41.87C110.814 42.023 110.875 42.1913 110.875 42.3901L110.883 42.4054ZM88.3436 29.3401C88.1529 28.7587 87.9394 28.2003 87.7183 27.6725C87.4896 27.1447 87.2456 26.5939 86.9787 26.0202C86.7118 25.4465 86.4068 24.8269 86.0561 24.1614C85.7053 23.4959 85.3241 22.7156 84.8971 21.8359C84.7065 21.4458 84.7446 21.1169 85.0267 20.8339C85.1335 20.7268 85.2173 20.6426 85.286 20.5891C85.3546 20.5355 85.4613 20.4896 85.6062 20.4437C85.7587 20.3825 85.9265 20.3443 86.1247 20.3443C86.3229 20.3443 86.4983 20.4284 86.6737 20.6044C87.0854 21.0327 87.5353 21.5682 88.0309 22.2031C88.5266 22.838 88.9993 23.5112 89.4492 24.2226C89.8991 24.934 90.3108 25.6377 90.6768 26.3415C91.0428 27.0453 91.3097 27.6649 91.485 28.2003C91.5918 28.5216 91.5842 28.8123 91.4698 29.0571C91.3554 29.3019 91.1724 29.5084 90.9361 29.6537C90.5472 29.8909 90.1431 30.0286 89.7084 30.0745C89.0222 30.1815 88.5723 29.9368 88.3512 29.3325L88.3436 29.3401ZM102.046 30.0515C101.939 30.0056 101.84 29.9444 101.741 29.8603C101.641 29.7761 101.542 29.6461 101.436 29.4701C101.283 29.1871 101.329 28.8888 101.565 28.5675C101.908 28.1774 102.29 27.6955 102.709 27.1141C103.128 26.5327 103.548 25.9055 103.967 25.24C104.386 24.5745 104.791 23.9013 105.179 23.2205C105.568 22.5397 105.911 21.9124 106.209 21.3311C106.491 20.7268 106.964 20.5202 107.627 20.7191C107.909 20.8262 108.146 20.9333 108.336 21.0404C108.527 21.1475 108.71 21.3005 108.885 21.4917C109.251 21.8589 109.305 22.3026 109.045 22.8151C108.786 23.3123 108.435 23.8784 108.001 24.5286C107.558 25.1788 107.078 25.829 106.552 26.4868C106.026 27.1447 105.462 27.772 104.859 28.3763C104.257 28.9806 103.67 29.4854 103.09 29.8985C102.854 30.0745 102.663 30.1662 102.511 30.1739C102.358 30.1892 102.206 30.1509 102.061 30.0592L102.046 30.0515Z" fill="white"/>
<path d="M143.19 45.4729C143.251 45.6871 143.266 45.9777 143.22 46.3449C143.175 46.7121 143.114 46.9798 143.03 47.1558C142.946 47.347 142.786 47.4923 142.565 47.5765C142.344 47.6606 142.1 47.7142 141.84 47.7371H134.81C134.253 47.7371 133.598 47.7218 132.843 47.7065C132.088 47.6836 131.287 47.6377 130.441 47.5612C129.595 47.4847 128.718 47.3852 127.81 47.2705C126.903 47.1558 126.019 46.9951 125.134 46.8039C124.707 46.7197 124.12 46.5209 123.396 46.2225C122.671 45.9242 122.023 45.5953 121.459 45.251C121.222 45.121 121.032 45.0369 120.879 45.0063C120.727 44.9757 120.559 45.0445 120.361 45.2204C120.185 45.4117 119.911 45.6565 119.537 45.9471C119.164 46.2378 118.752 46.5362 118.31 46.8345C117.867 47.1328 117.44 47.4082 117.021 47.6606C116.602 47.9131 116.266 48.089 116.007 48.1961C115.816 48.3032 115.61 48.3567 115.397 48.3567C115.183 48.3567 115.031 48.3108 114.947 48.2267C114.84 48.1425 114.756 48.0737 114.688 48.0125C114.619 47.9513 114.551 47.8595 114.459 47.7065C114.375 47.5765 114.337 47.4235 114.345 47.2552C114.352 47.0869 114.444 46.9339 114.619 46.8039C115.069 46.4597 115.557 46.1078 116.083 45.7559C116.609 45.404 117.097 44.968 117.547 44.4631C117.997 43.9583 118.371 43.3616 118.676 42.6808C118.981 42 119.126 41.1662 119.126 40.1718V37.0355C119.126 36.7983 119.011 36.6071 118.79 36.4694C118.569 36.3317 118.363 36.2552 118.195 36.2552H115.71C115.366 36.2552 115.107 36.1864 114.939 36.0487C114.772 35.911 114.657 35.7351 114.604 35.5285C114.551 35.322 114.543 35.1231 114.589 34.9166C114.634 34.71 114.703 34.5417 114.817 34.4117C114.878 34.3276 115.092 34.0981 115.443 33.7309C115.793 33.3637 116.182 32.92 116.602 32.4075C117.021 31.895 117.425 31.3213 117.814 30.7093C118.203 30.0974 118.462 29.4931 118.584 28.9117C118.63 28.7358 118.577 28.5981 118.424 28.491C118.272 28.3839 118.142 28.3304 118.035 28.3304H115.458C115.092 28.3304 114.856 28.2003 114.749 27.9402C114.665 27.5501 114.665 27.2212 114.749 26.9381C114.81 26.7852 114.894 26.6781 114.993 26.6169C115.092 26.5557 115.26 26.5174 115.496 26.5174H116.365C116.861 26.5174 117.395 26.5174 117.959 26.5021C118.531 26.4945 119.057 26.4868 119.553 26.4868H120.49C120.773 26.4868 121.024 26.548 121.261 26.6781C121.497 26.8081 121.688 26.9611 121.84 27.1447C121.993 27.3283 122.099 27.5272 122.16 27.7413C122.221 27.9555 122.221 28.1544 122.16 28.3227C121.924 29.0112 121.573 29.6767 121.116 30.3116C120.651 30.9465 120.17 31.5278 119.667 32.0557C119.164 32.5835 118.691 33.0348 118.249 33.3943C117.806 33.7615 117.501 34.0063 117.326 34.1363H119.713C120.445 34.1134 121.009 34.3199 121.421 34.7483C121.611 34.9395 121.756 35.169 121.84 35.4291C121.924 35.6892 121.977 35.9645 122 36.2705V37.0125C122 37.2726 121.985 37.5174 121.97 37.7545L121.871 40.2483C121.825 40.5925 121.779 40.9367 121.726 41.281C121.672 41.6252 121.611 41.9465 121.55 42.2524C121.505 42.4284 121.466 42.589 121.421 42.7573C121.375 42.9256 121.337 43.0786 121.291 43.2239C121.482 43.2698 121.649 43.3157 121.794 43.3693C121.932 43.4228 122.054 43.4687 122.168 43.5146C122.793 43.7288 123.38 43.9124 123.937 44.0654C124.494 44.2184 125.081 44.3407 125.698 44.4402C126.308 44.5396 126.979 44.6161 127.696 44.6697C128.413 44.7232 129.252 44.7538 130.197 44.7538L136 44.815C136.732 44.815 137.448 44.815 138.157 44.8303C138.867 44.8456 139.515 44.8456 140.094 44.8456H142.191C142.427 44.8686 142.641 44.9221 142.839 45.0063C143.037 45.0904 143.152 45.2434 143.19 45.4576V45.4729ZM118.653 24.9646C118.226 24.4674 117.768 23.9319 117.28 23.3505C116.8 22.7692 116.35 22.2261 115.946 21.7365C115.687 21.4382 115.633 21.1551 115.786 20.895C115.893 20.7191 115.999 20.5967 116.091 20.5049C116.182 20.4131 116.297 20.3443 116.426 20.2754C116.556 20.1913 116.724 20.176 116.945 20.2295C117.158 20.2831 117.357 20.3749 117.524 20.5049C118.172 20.9562 118.79 21.4152 119.392 21.8818C119.995 22.3484 120.414 22.7386 120.651 23.0598C120.757 23.1899 120.818 23.3429 120.826 23.5265C120.834 23.7101 120.811 23.8554 120.742 23.9625C120.59 24.2226 120.422 24.4521 120.224 24.6433C120.025 24.8345 119.85 24.9875 119.675 25.0946C119.545 25.1788 119.377 25.2247 119.171 25.2247C118.965 25.2247 118.79 25.1405 118.638 24.9646H118.653ZM123.167 23.9931C122.908 23.9931 122.702 23.9625 122.542 23.8936C122.381 23.8248 122.282 23.7024 122.237 23.5035C122.191 23.2664 122.176 23.0751 122.176 22.9222C122.176 22.7692 122.198 22.6009 122.237 22.402C122.282 22.249 122.389 22.1343 122.572 22.0501C122.755 21.966 122.953 21.9201 123.167 21.9201H131.127V20.6885C131.127 20.3213 131.203 20.0612 131.356 19.9159C131.508 19.7706 131.669 19.6711 131.836 19.6252C132.202 19.5793 132.485 19.564 132.675 19.564C132.866 19.564 133.117 19.587 133.415 19.6252C133.628 19.6711 133.804 19.7782 133.948 19.9618C134.086 20.1454 134.154 20.3902 134.154 20.6885V21.9201H142.115C142.633 21.9201 142.931 22.0578 143.015 22.3408C143.144 22.685 143.144 23.0828 143.015 23.5341C142.908 23.8401 142.603 23.9854 142.115 23.9854H134.154V26.1196H139.736C141.238 26.1196 141.993 26.831 141.993 28.2539V32.0404C141.993 33.5473 141.238 34.3046 139.736 34.3046H134.154V43.1015C134.154 43.3999 134.086 43.6599 133.948 43.8588C133.811 44.0654 133.628 44.1878 133.415 44.2337C133.117 44.2796 132.866 44.2949 132.675 44.2949C132.485 44.2949 132.202 44.2642 131.836 44.1954C131.661 44.1725 131.501 44.0807 131.356 43.92C131.211 43.7594 131.127 43.484 131.127 43.0939V38.0452C130.83 38.3894 130.517 38.7184 130.205 39.032C129.892 39.3456 129.61 39.6057 129.351 39.8275C128.901 40.1947 128.413 40.5466 127.887 40.8908C127.361 41.2351 126.827 41.5563 126.293 41.847C125.759 42.1377 125.248 42.3825 124.76 42.589C124.28 42.7955 123.861 42.9409 123.518 43.025C123.091 43.1551 122.763 43.0786 122.549 42.7955C122.397 42.6196 122.29 42.3825 122.229 42.0841C122.183 41.9159 122.191 41.7476 122.244 41.6022C122.298 41.4492 122.442 41.3192 122.679 41.2121C124.288 40.3936 125.775 39.3762 127.132 38.1753C128.489 36.9666 129.618 35.6739 130.517 34.2893H125.553C124.051 34.2893 123.296 33.532 123.296 32.0251V28.2386C123.296 26.8157 124.051 26.1043 125.553 26.1043H131.135V23.9701H123.174L123.167 23.9931ZM131.127 27.9708H127.162C126.537 27.9708 126.224 28.2921 126.224 28.9423V31.3672C126.224 32.0786 126.537 32.4381 127.162 32.4381H131.127V27.9708ZM134.154 32.4381H138.119C138.767 32.4381 139.088 32.0863 139.088 31.3672V28.9423C139.088 28.2921 138.767 27.9708 138.119 27.9708H134.154V32.4381ZM136.51 35.8039C136.724 35.8881 137.12 36.1328 137.685 36.5306C138.249 36.9284 138.859 37.3797 139.507 37.8922C140.155 38.3971 140.758 38.8943 141.329 39.3839C141.901 39.8658 142.313 40.2483 142.572 40.5313C142.74 40.7072 142.839 40.9138 142.862 41.1586C142.885 41.4033 142.839 41.6175 142.732 41.7858C142.603 41.9771 142.42 42.1759 142.183 42.3825C141.947 42.589 141.741 42.742 141.573 42.8491C141.406 42.9562 141.207 43.0021 140.994 42.9791C140.78 42.9562 140.582 42.8644 140.414 42.6885C140.094 42.3213 139.682 41.87 139.187 41.3268C138.691 40.7837 138.188 40.2559 137.669 39.7281C137.151 39.2003 136.671 38.7107 136.236 38.2594C135.794 37.8081 135.466 37.4868 135.252 37.2879C135.077 37.1349 134.985 36.9743 134.978 36.7983C134.97 36.6224 135.001 36.4771 135.092 36.347C135.153 36.2629 135.321 36.0869 135.573 35.8269C135.809 35.6509 136.122 35.6433 136.51 35.7963V35.8039Z" fill="white"/>
<path d="M175.048 45.3505C175.284 45.5264 175.414 45.7635 175.437 46.0619C175.46 46.3602 175.414 46.6203 175.307 46.8345C175.201 47.1328 175.04 47.4082 174.827 47.6453C174.613 47.8825 174.408 48.089 174.217 48.2573C174.042 48.3644 173.798 48.4332 173.477 48.4485C173.157 48.4715 172.867 48.4026 172.608 48.2573C170.481 47.0257 168.483 45.3352 166.63 43.178C164.77 41.0209 163.199 38.4353 161.91 35.4138C161.628 34.7636 161.422 34.1975 161.3 33.7003C160.805 35.4673 160.088 37.112 159.142 38.6342C158.197 40.1565 157.114 41.5257 155.902 42.7573C154.689 43.9889 153.401 45.0674 152.028 45.993C150.656 46.9186 149.321 47.6759 148.018 48.2573C147.735 48.3644 147.499 48.4103 147.308 48.4026C147.118 48.395 146.965 48.3567 146.859 48.2879C146.706 48.2037 146.576 48.0813 146.47 47.936C146.363 47.783 146.287 47.653 146.241 47.5459C146.157 47.3699 146.142 47.1787 146.195 46.9645C146.249 46.7503 146.409 46.5514 146.66 46.3832C147.865 45.6488 149.108 44.8074 150.381 43.8435C151.662 42.8873 152.852 41.7782 153.957 40.5313C155.063 39.2844 156.024 37.8769 156.847 36.3088C157.663 34.7483 158.212 32.9965 158.494 31.0536C158.624 30.1892 158.723 29.3401 158.784 28.4986C158.845 27.6572 158.898 26.8081 158.929 25.959C158.959 25.1099 158.982 24.2302 158.99 23.3352C158.998 22.4402 159.005 21.4993 159.005 20.5049C159.005 20.1377 159.097 19.8776 159.28 19.7323C159.463 19.587 159.684 19.4875 159.943 19.4416C160.24 19.3804 160.53 19.3498 160.797 19.3575C161.064 19.3728 161.285 19.3957 161.46 19.4416C161.743 19.4875 161.971 19.5946 162.154 19.7629C162.337 19.9312 162.429 20.2066 162.429 20.5737C162.429 22.0195 162.413 23.2511 162.383 24.2761C162.352 25.3011 162.314 26.1885 162.269 26.9458C162.223 27.7031 162.169 28.3609 162.108 28.9346C162.047 29.5084 161.979 30.0591 161.918 30.6022L162.177 31.1836C163.039 30.6864 163.877 30.0821 164.709 29.3707C165.532 28.6593 166.31 27.9326 167.027 27.1829C167.743 26.4409 168.399 25.7219 168.994 25.0334C169.581 24.345 170.061 23.7636 170.427 23.2893C170.618 23.0292 170.854 22.8839 171.136 22.8533C171.419 22.8227 171.663 22.8533 171.876 22.9374C172.395 23.1746 172.822 23.4653 173.165 23.8095C173.355 23.9854 173.462 24.2226 173.47 24.5209C173.477 24.8192 173.432 25.0717 173.325 25.2629C173.005 25.7831 172.463 26.4027 171.693 27.1217C170.931 27.8484 170.061 28.5675 169.101 29.2865C168.132 30.0132 167.11 30.6864 166.035 31.3213C164.96 31.9562 163.954 32.4458 163.008 32.79C164.19 34.9472 165.502 36.8901 166.943 38.6113C167.675 39.4986 168.407 40.2712 169.131 40.9367C169.855 41.6022 170.58 42.2065 171.289 42.7496C171.998 43.2928 172.669 43.7594 173.302 44.1724C173.935 44.5855 174.522 44.968 175.063 45.3352L175.048 45.3505ZM150.48 28.468C149.947 27.4965 149.474 26.6933 149.077 26.0431C148.681 25.3929 148.361 24.8498 148.124 24.3908C147.934 24.0237 147.934 23.7253 148.124 23.4882C148.208 23.3811 148.307 23.2893 148.414 23.2128C148.521 23.1363 148.628 23.0751 148.734 23.0369C149.123 22.8839 149.474 22.9374 149.794 23.1975C150.183 23.5418 150.679 24.0619 151.281 24.7504C151.883 25.4388 152.486 26.1732 153.088 26.9534C153.691 27.726 154.247 28.491 154.75 29.233C155.254 29.975 155.612 30.5716 155.833 31.0306C155.963 31.3366 155.986 31.612 155.894 31.8721C155.81 32.1321 155.681 32.3616 155.505 32.5529C155.376 32.7059 155.177 32.8665 154.911 33.0348C154.644 33.2031 154.354 33.3331 154.057 33.4249C153.82 33.4708 153.576 33.4555 153.332 33.3943C153.088 33.3331 152.882 33.1495 152.737 32.8435C152.501 32.3081 152.188 31.6655 151.8 30.9312C151.411 30.1968 150.968 29.3783 150.48 28.4757V28.468Z" fill="white"/>
<path d="M206.065 28.9423C206.301 28.9423 206.53 28.9729 206.743 29.0417C206.957 29.1106 207.086 29.2253 207.132 29.4013C207.239 29.7914 207.231 30.1662 207.102 30.5334C207.056 30.7093 206.934 30.8241 206.728 30.8853C206.522 30.9465 206.301 30.9847 206.065 30.9847H180.14C179.858 30.9847 179.614 30.9618 179.4 30.9006C179.187 30.8394 179.057 30.7323 179.011 30.564C178.927 30.2427 178.912 29.8526 178.981 29.4013C179.026 29.2253 179.156 29.1106 179.37 29.0417C179.583 28.9729 179.842 28.9423 180.14 28.9423H206.065ZM179.69 26.1273C179.431 26.0431 179.24 25.8442 179.11 25.5459C179.049 25.4388 179.042 25.3088 179.095 25.1558C179.148 25.0028 179.232 24.8575 179.339 24.7045C179.858 24.0772 180.368 23.3888 180.887 22.6315C181.405 21.8742 181.84 21.0174 182.206 20.0459C182.336 19.7017 182.526 19.5028 182.77 19.4493C183.014 19.3957 183.266 19.4263 183.525 19.5334C183.823 19.6405 184.028 19.7247 184.135 19.7782C184.242 19.8317 184.364 19.9159 184.486 20.023C184.608 20.1301 184.722 20.2678 184.806 20.4284C184.89 20.589 184.913 20.765 184.867 20.9639H191.997C192.21 20.9639 192.408 20.9868 192.591 21.0251C192.774 21.071 192.873 21.1781 192.896 21.3463C193.003 21.7365 193.003 22.1113 192.896 22.4785C192.851 22.6315 192.744 22.7309 192.576 22.7845C192.408 22.838 192.21 22.8686 191.997 22.8686H183.777C182.877 24.0772 181.802 25.1022 180.551 25.9437C180.315 26.0967 180.14 26.1732 180.018 26.1885C179.896 26.1961 179.789 26.1885 179.682 26.1426L179.69 26.1273ZM192.004 32.66C192.668 32.66 193.178 32.8588 193.537 33.2566C193.895 33.6544 194.071 34.144 194.071 34.7253V45.5264C194.071 46.299 193.788 46.9569 193.217 47.5C192.645 48.0354 191.913 48.2879 191.005 48.242C190.342 48.242 189.747 48.1961 189.236 48.0966C188.725 47.9972 188.245 47.8901 187.818 47.7601C187.536 47.6759 187.399 47.4694 187.399 47.1481C187.422 46.9951 187.437 46.8727 187.444 46.7733C187.452 46.6738 187.49 46.5744 187.559 46.4673C187.666 46.2761 187.894 46.1843 188.237 46.2072C188.664 46.2531 189 46.2761 189.236 46.2914C189.473 46.299 189.755 46.2914 190.075 46.2455C190.372 46.1996 190.639 46.0772 190.868 45.8706C191.097 45.6641 191.204 45.3581 191.204 44.945V43.2316H183.174C183.152 43.4228 183.129 43.6064 183.113 43.767C183.091 43.9277 183.068 44.073 183.052 44.203C183.007 44.509 182.953 44.8303 182.877 45.1898C182.801 45.5417 182.717 45.8936 182.618 46.2378C182.519 46.582 182.404 46.9033 182.267 47.2093C182.13 47.5076 181.985 47.7601 181.832 47.9513C181.596 48.1884 181.352 48.3032 181.093 48.3032C180.917 48.3032 180.773 48.2802 180.643 48.242C180.513 48.1961 180.384 48.1425 180.254 48.0813C180.147 48.0354 180.056 47.9513 179.98 47.8213C179.903 47.6912 179.888 47.5076 179.934 47.2705C179.957 47.1404 180.01 46.8957 180.094 46.5285C180.178 46.1613 180.269 45.7023 180.353 45.1363C180.437 44.5702 180.521 43.9353 180.597 43.2086C180.673 42.4896 180.712 41.7017 180.712 40.8602V34.6488C180.712 34.0675 180.887 33.5855 181.245 33.2107C181.604 32.8359 182.092 32.6447 182.709 32.6447H192.027L192.004 32.66ZM191.196 41.2962V38.9019H183.487C183.464 39.3762 183.449 39.8122 183.441 40.21C183.434 40.6078 183.403 40.9673 183.357 41.2962H191.196ZM184.326 34.5341C183.784 34.5341 183.518 34.8018 183.518 35.3449V36.9972H191.188V35.2531C191.188 34.7789 190.929 34.5417 190.418 34.5417H184.326V34.5341ZM185.645 28.5139C185.538 28.338 185.401 28.055 185.241 27.6572C185.081 27.2594 184.974 26.9381 184.936 26.701C184.852 26.2726 184.928 25.9666 185.165 25.7984C185.248 25.7372 185.34 25.676 185.439 25.6224C185.538 25.5689 185.668 25.523 185.843 25.4771C185.973 25.4541 186.11 25.4541 186.247 25.4618C186.385 25.4694 186.522 25.5306 186.651 25.6377C186.888 25.829 187.132 26.0967 187.391 26.4333C187.65 26.7698 187.856 27.0529 188.001 27.29C188.215 27.7031 188.115 28.055 187.711 28.3533C187.605 28.4145 187.444 28.5063 187.246 28.6134C187.04 28.7205 186.865 28.797 186.712 28.8429C186.263 28.9958 185.904 28.8888 185.645 28.5216V28.5139ZM187.063 22.9527C187.193 22.9068 187.345 22.9068 187.528 22.9527C187.711 22.9986 187.864 23.0598 187.993 23.144C188.314 23.3199 188.603 23.4729 188.863 23.6106C189.122 23.7483 189.366 23.9395 189.602 24.1767C189.755 24.3296 189.823 24.4979 189.808 24.6968C189.793 24.8957 189.74 25.064 189.633 25.217C189.396 25.6454 189.038 25.9743 188.565 26.1885C188.375 26.2956 188.169 26.3109 187.955 26.2191C187.742 26.1349 187.566 26.0049 187.437 25.829C187.2 25.5306 187.01 25.2782 186.857 25.0869C186.705 24.8957 186.545 24.6433 186.377 24.3449C186.27 24.192 186.224 24.039 186.232 23.8783C186.24 23.7177 186.293 23.58 186.377 23.4729C186.484 23.297 186.712 23.1287 187.056 22.9527H187.063ZM192.896 25.347C192.744 25.0869 192.79 24.8116 193.026 24.5056C193.453 23.8783 193.857 23.2052 194.238 22.4861C194.612 21.7671 194.978 20.9486 195.321 20.0459C195.428 19.7017 195.603 19.5028 195.855 19.4493C196.099 19.3957 196.366 19.4263 196.648 19.5334C196.945 19.6405 197.159 19.7247 197.273 19.7935C197.387 19.8623 197.517 19.9465 197.647 20.0536C197.944 20.3137 198.066 20.612 197.997 20.9562H205.767C205.981 20.9562 206.179 20.9792 206.347 21.0174C206.522 21.0633 206.629 21.1704 206.667 21.3387C206.774 21.7288 206.774 22.1036 206.667 22.4708C206.621 22.6238 206.514 22.7233 206.331 22.7768C206.148 22.8303 205.958 22.8609 205.767 22.8609H196.968C196.579 23.4423 196.16 23.9854 195.695 24.4979C195.23 25.0028 194.818 25.4006 194.452 25.676C194.109 25.936 193.804 26.0125 193.552 25.9054C193.293 25.8213 193.079 25.6377 192.904 25.3547L192.896 25.347ZM199.408 43.4916C199.408 43.7517 199.347 43.9506 199.217 44.0883C199.088 44.226 198.935 44.3178 198.767 44.3637C198.318 44.4708 197.799 44.4708 197.22 44.3637C197.067 44.3178 196.938 44.2413 196.816 44.1189C196.694 43.9965 196.64 43.7823 196.64 43.4534V34.2357C196.64 33.9374 196.701 33.7156 196.816 33.5702C196.93 33.4249 197.067 33.3484 197.22 33.3255C197.517 33.2796 197.791 33.2566 198.043 33.2413C198.287 33.2337 198.531 33.2413 198.767 33.2872C198.943 33.3331 199.088 33.4402 199.217 33.6085C199.347 33.7844 199.408 33.9833 199.408 34.2204V43.4687V43.4916ZM198.119 25.5689C198.226 25.3929 198.402 25.2705 198.638 25.1787C198.874 25.0869 199.088 25.0793 199.286 25.1481C199.568 25.2552 199.805 25.3623 199.995 25.4694C200.186 25.5765 200.361 25.7066 200.514 25.8596C200.689 26.0125 200.781 26.2114 200.803 26.4562C200.826 26.701 200.758 26.9152 200.613 27.0835C200.422 27.3436 200.186 27.5883 199.904 27.8255C199.621 28.0626 199.255 28.3303 198.806 28.6363C198.615 28.7893 198.424 28.8658 198.241 28.8658C198.058 28.8658 197.906 28.8429 197.776 28.8046C197.647 28.7587 197.525 28.6975 197.403 28.6134C197.288 28.5292 197.197 28.4527 197.128 28.3839C196.976 28.2309 196.999 27.9402 197.189 27.5118C197.296 27.2747 197.418 26.9993 197.563 26.6857C197.708 26.3721 197.891 26.0049 198.127 25.5689H198.119ZM205.211 32.4305C205.386 32.4764 205.531 32.5758 205.66 32.7364C205.79 32.8971 205.851 33.1113 205.851 33.3637L205.821 44.6238C205.821 45.8783 205.531 46.8039 204.951 47.4082C204.372 48.0125 203.533 48.3108 202.435 48.3108C202.115 48.3108 201.68 48.2726 201.146 48.1961C200.613 48.1196 200.064 47.9972 199.499 47.8213C198.943 47.6453 198.684 47.3699 198.722 46.9798C198.745 46.8039 198.767 46.6585 198.783 46.5285C198.798 46.3984 198.844 46.2684 198.912 46.1384C199.088 45.8783 199.385 45.7635 199.812 45.7865C200.109 45.7865 200.399 45.7941 200.666 45.8171C200.933 45.84 201.23 45.84 201.551 45.8171C202.496 45.8171 202.969 45.3505 202.969 44.4249V33.3637C202.969 33.0424 203.03 32.8053 203.144 32.6676C203.259 32.5299 203.396 32.4458 203.548 32.4228C204.151 32.3387 204.7 32.3387 205.195 32.4228L205.211 32.4305ZM202.084 26.1885C201.894 26.2956 201.688 26.3109 201.474 26.2191C201.261 26.1349 201.078 26.0049 200.925 25.829C200.689 25.5306 200.498 25.2782 200.361 25.0869C200.224 24.8957 200.064 24.6433 199.896 24.3449C199.683 24.0007 199.667 23.71 199.865 23.4729C199.972 23.3658 200.071 23.274 200.17 23.1975C200.27 23.121 200.399 23.0445 200.575 22.9527C200.681 22.9068 200.834 22.9068 201.024 22.9527C201.215 22.9986 201.375 23.0598 201.505 23.144C201.802 23.3199 202.084 23.4729 202.344 23.6106C202.603 23.7483 202.847 23.9395 203.083 24.1767C203.236 24.3296 203.312 24.4979 203.312 24.6968C203.312 24.8957 203.259 25.064 203.152 25.217C203.022 25.4312 202.862 25.6224 202.671 25.7831C202.481 25.9437 202.283 26.0814 202.092 26.1885H202.084Z" fill="white"/>
<path d="M220.057 19.9848C220.766 19.9848 221.315 20.1989 221.704 20.635C222.093 21.0633 222.284 21.5988 222.284 22.2184V45.5723C222.284 46.0695 222.2 46.4903 222.024 46.8345C221.849 47.1787 221.628 47.4618 221.346 47.6912C221.064 47.9207 220.751 48.0814 220.393 48.1732C220.034 48.265 219.691 48.3185 219.348 48.3185C218.662 48.2955 218.059 48.2344 217.541 48.1426C217.022 48.0508 216.588 47.9207 216.222 47.7677C215.81 47.6147 215.619 47.4006 215.642 47.1175C215.688 46.8804 215.726 46.7198 215.757 46.6356C215.787 46.5515 215.841 46.4444 215.902 46.3143C216.008 46.1001 216.252 46.016 216.641 46.0542C217.137 46.1154 217.503 46.1613 217.754 46.1843C218.006 46.2072 218.273 46.1919 218.578 46.1537C218.791 46.1078 218.99 45.9625 219.173 45.7177C219.356 45.4729 219.447 45.2205 219.447 44.9604V36.4235C218.822 36.9819 218.22 37.4409 217.625 37.8004C217.03 38.1523 216.504 38.3971 216.031 38.5271C215.879 38.573 215.719 38.573 215.543 38.5271C215.368 38.4812 215.231 38.42 215.124 38.3359C215.078 38.8331 215.032 39.3227 214.979 39.8046C214.926 40.2865 214.865 40.7072 214.804 41.0515C214.415 43.1627 214.033 44.7385 213.66 45.7712C213.286 46.8039 212.989 47.4771 212.775 47.7754C212.539 48.0737 212.303 48.2267 212.066 48.2267C211.746 48.2267 211.441 48.1502 211.166 47.9972C211.06 47.9513 210.976 47.8595 210.922 47.7065C210.869 47.5535 210.877 47.3929 210.938 47.217C210.961 47.1328 211.052 46.8039 211.212 46.2302C211.372 45.6565 211.548 44.9145 211.731 43.9965C211.914 43.0786 212.081 42.0077 212.234 40.7761C212.386 39.5445 212.463 38.2212 212.463 36.7984V22.1572C212.463 21.53 212.653 21.0174 213.042 20.6044C213.431 20.1913 213.957 19.9924 214.621 19.9924H220.072L220.057 19.9848ZM215.223 22.7692V26.7775C215.414 26.7163 215.635 26.7163 215.871 26.7775C216.496 26.9917 217.152 27.2365 217.838 27.5042C218.525 27.7719 219.066 28.0167 219.447 28.2309V22.7309C219.447 22.2337 219.18 21.9889 218.639 21.9889H215.932C215.459 21.9889 215.223 22.249 215.223 22.7615V22.7692ZM219.447 29.7532L219.157 30.2045C219.051 30.3116 218.913 30.3881 218.738 30.434C218.563 30.4799 218.395 30.4416 218.22 30.3345C217.77 30.0362 217.266 29.7073 216.717 29.363C216.168 29.0188 215.673 28.6975 215.215 28.3916V35.9952C215.497 35.911 215.787 35.8116 216.085 35.7045C216.382 35.5974 216.702 35.475 217.038 35.3526C217.373 35.2226 217.732 35.0696 218.12 34.886C218.509 34.7024 218.944 34.4959 219.44 34.2587V29.7608L219.447 29.7532ZM239.47 45.4729C239.897 45.6871 240.073 46.0619 239.989 46.605C239.928 46.888 239.806 47.1787 239.638 47.4771C239.463 47.7754 239.264 48.0125 239.028 48.1885C238.876 48.2955 238.693 48.372 238.479 48.4179C238.266 48.4638 238.006 48.4179 237.709 48.2879C236.786 47.8978 235.757 47.3776 234.628 46.7198C233.5 46.0619 232.356 45.2358 231.197 44.2413C230.099 45.0369 228.948 45.7712 227.751 46.4444C226.546 47.1099 225.234 47.7065 223.816 48.2267C223.45 48.4026 223.115 48.3414 222.817 48.0661C222.665 47.9131 222.558 47.6453 222.497 47.2552C222.474 47.1022 222.497 46.9492 222.581 46.7886C222.657 46.628 222.81 46.4903 223.046 46.3832C224.403 45.7789 225.593 45.1516 226.622 44.4937C227.652 43.8359 228.574 43.1627 229.398 42.4743C228.429 41.4187 227.568 40.2177 226.805 38.8867C226.043 37.548 225.433 36.0258 224.983 34.3276C224.571 34.3046 224.335 34.144 224.274 33.8457C224.167 33.4785 224.175 33.1266 224.304 32.7824C224.388 32.5223 224.655 32.3922 225.112 32.3922H235.498C236.42 32.3922 237.129 32.6829 237.61 33.2643C238.098 33.8456 238.121 34.7177 237.694 35.8881C237.221 37.1196 236.619 38.2671 235.887 39.3303C235.155 40.3936 234.308 41.4187 233.34 42.3901C234.369 43.0786 235.399 43.66 236.42 44.1342C237.442 44.6085 238.464 45.0598 239.501 45.4958L239.47 45.4729ZM223.542 31.4667C223.412 31.3825 223.321 31.306 223.267 31.2372C223.214 31.1683 223.153 31.0842 223.092 30.9771C222.939 30.6558 222.985 30.3498 223.221 30.0744C223.633 29.6231 223.976 29.2177 224.251 28.8582C224.533 28.5063 224.762 28.1621 224.945 27.8408C225.128 27.5195 225.265 27.1906 225.349 26.854C225.433 26.5174 225.478 26.1503 225.478 25.7372V22.402C225.478 21.5835 225.707 20.9715 226.172 20.5738C226.637 20.176 227.164 19.9771 227.766 19.9771H233.729C235.322 19.9771 236.115 20.788 236.115 22.402L236.085 27.7108C236.062 28.055 236.138 28.2768 236.314 28.3763C236.489 28.4757 236.71 28.5216 236.992 28.5216H238.83C239.303 28.5216 239.569 28.7128 239.638 29.103C239.684 29.233 239.699 29.4089 239.699 29.6231C239.699 29.8373 239.676 30.0438 239.638 30.2351C239.592 30.411 239.516 30.5717 239.409 30.717C239.303 30.87 239.104 30.9465 238.83 30.9465H235.894C234.994 30.9465 234.285 30.7247 233.767 30.281C233.248 29.8373 232.997 29.2101 232.997 28.3916V22.8916C232.997 22.5244 232.92 22.2796 232.768 22.1496C232.615 22.0195 232.432 21.9583 232.219 21.9583H229.314C229.077 21.9583 228.864 22.0195 228.689 22.1496C228.513 22.2796 228.414 22.5473 228.414 22.9604V25.064C228.414 25.6913 228.307 26.3185 228.094 26.9535C227.88 27.5884 227.598 28.1927 227.255 28.7664C226.912 29.3401 226.515 29.8526 226.081 30.3039C225.646 30.7553 225.196 31.0995 224.746 31.3366C224.487 31.4896 224.251 31.5661 224.037 31.5661C223.824 31.5661 223.664 31.5355 223.549 31.4667H223.542ZM226.996 34.3123C227.575 35.7351 228.223 36.959 228.933 37.984C229.642 39.0091 230.397 39.8964 231.19 40.6537C232.028 39.6822 232.699 38.7184 233.203 37.7545C233.706 36.7984 234.102 35.8498 234.377 34.9242C234.423 34.733 234.377 34.58 234.262 34.4729C234.148 34.3658 234.011 34.3123 233.858 34.3123H226.988H226.996Z" fill="white"/>
<path d="M250.982 21.0174C250.875 21.6217 250.7 22.3025 250.448 23.0522C250.204 23.8095 249.945 24.5285 249.694 25.217C249.587 25.5153 249.457 25.8519 249.305 26.2191C249.152 26.5863 249.015 26.9228 248.885 27.2212L248.405 28.3227C248.619 28.3227 248.809 28.3533 248.985 28.4221C249.137 28.468 249.274 28.5369 249.404 28.6516C249.533 28.7587 249.594 28.9041 249.594 29.0723V47.4464C249.594 47.6606 249.533 47.8366 249.419 47.9819C249.297 48.1196 249.152 48.2343 248.985 48.3185C248.748 48.4026 248.451 48.4409 248.1 48.4332C247.749 48.4256 247.452 48.395 247.216 48.3491C246.827 48.1961 246.636 47.8978 246.636 47.4464V31.6273C246.529 31.8032 246.377 32.0174 246.186 32.2928C245.996 32.5605 245.782 32.8359 245.561 33.1189C245.34 33.402 245.111 33.662 244.882 33.9145C244.654 34.1669 244.455 34.3505 244.288 34.4805C244.005 34.6335 243.739 34.6565 243.479 34.5494C243.327 34.5035 243.212 34.4499 243.129 34.3887C243.045 34.3276 242.976 34.274 242.938 34.2281C242.831 34.121 242.77 33.968 242.763 33.7768C242.755 33.5856 242.801 33.402 242.907 33.226C243.639 31.9945 244.295 30.7629 244.89 29.5237C245.477 28.2844 245.973 27.0529 246.354 25.8213C246.545 25.2629 246.72 24.7045 246.872 24.1537C247.025 23.603 247.154 23.0904 247.276 22.6009C247.391 22.119 247.498 21.6753 247.581 21.2775C247.665 20.8797 247.734 20.5508 247.772 20.2907C247.818 20.0765 247.94 19.8777 248.146 19.7094C248.352 19.5411 248.596 19.4646 248.87 19.4799C249.213 19.5028 249.533 19.5487 249.823 19.6252C250.113 19.7017 250.319 19.7629 250.448 19.8012C250.662 19.9083 250.822 20.0536 250.936 20.2372C251.043 20.4208 251.066 20.6885 250.997 21.0251L250.982 21.0174ZM250.723 32.4687C250.464 32.3616 250.25 32.178 250.075 31.918C249.922 31.6349 249.976 31.3442 250.235 31.0459C250.898 30.2733 251.508 29.4395 252.057 28.5522C252.606 27.6648 253.079 26.7851 253.491 25.8978C253.895 25.0105 254.246 24.1461 254.535 23.297C254.825 22.4479 255.054 21.66 255.229 20.9486C255.359 20.4131 255.725 20.1377 256.327 20.1377C256.564 20.1607 256.823 20.2142 257.097 20.2984C257.372 20.3825 257.601 20.482 257.776 20.5891C257.951 20.6961 258.073 20.8721 258.15 21.1092C258.226 21.3464 258.241 21.5835 258.195 21.8206C257.982 22.685 257.639 23.6336 257.166 24.6662C256.693 25.6989 256.152 26.7163 255.534 27.7031C254.917 28.6899 254.269 29.6078 253.582 30.434C252.896 31.2678 252.217 31.9103 251.554 32.3616C251.447 32.4228 251.318 32.4764 251.165 32.507C251.013 32.5376 250.86 32.5223 250.715 32.4611L250.723 32.4687ZM266.522 31.3672C267.467 31.3672 268.116 31.5737 268.459 31.9792C268.802 32.3846 268.977 32.8971 268.977 33.5014C268.977 34.0598 268.947 34.8936 268.878 35.9951C268.817 37.0967 268.741 38.2517 268.649 39.4527C268.565 40.6613 268.459 41.8011 268.344 42.8644C268.23 43.9353 268.123 44.7156 268.039 45.2128C267.78 46.4214 267.338 47.2476 266.705 47.7065C266.072 48.1578 265.134 48.3414 263.884 48.2573C263.541 48.2343 263.114 48.1884 262.61 48.1119C262.107 48.0355 261.65 47.9131 261.238 47.7371C261.001 47.63 260.849 47.5076 260.788 47.3623C260.727 47.217 260.689 47.0793 260.689 46.9263C260.712 46.7962 260.735 46.6815 260.75 46.5744C260.765 46.4673 260.803 46.3679 260.849 46.2837C260.91 46.1537 261.009 46.0466 261.139 45.9624C261.268 45.8783 261.451 45.8553 261.688 45.9012C261.985 45.9471 262.313 45.9624 262.671 45.9624C263.03 45.9624 263.289 45.9701 263.457 45.993C263.929 45.993 264.265 45.8859 264.471 45.6718C264.677 45.4576 264.822 45.1898 264.905 44.8609C264.951 44.7079 265.005 44.3866 265.066 43.8894C265.127 43.3922 265.195 42.8032 265.256 42.13C265.317 41.4569 265.386 40.7149 265.447 39.927C265.508 39.1391 265.561 38.3741 265.607 37.6321C265.653 36.8901 265.683 36.217 265.706 35.6127C265.729 35.0084 265.729 34.5341 265.706 34.1899C265.66 33.7997 265.462 33.6085 265.096 33.6085H260.323C260.384 33.7844 260.422 33.9986 260.422 34.2587C260.361 35.9875 260.079 37.5862 259.583 39.0626C259.088 40.5389 258.455 41.87 257.677 43.0556C256.907 44.2413 256.022 45.274 255.031 46.146C254.04 47.0181 253.018 47.7142 251.966 48.2343C251.79 48.3185 251.607 48.3644 251.402 48.3644C251.196 48.3644 251.043 48.3414 250.936 48.3032C250.761 48.1961 250.624 48.0661 250.517 47.9131C250.41 47.7601 250.334 47.6224 250.288 47.4923C250.227 47.0793 250.349 46.758 250.677 46.5209C251.577 45.8324 252.423 45.098 253.209 44.3178C253.994 43.5452 254.68 42.6502 255.275 41.6481C255.862 40.646 256.335 39.491 256.678 38.1829C257.021 36.8825 257.204 35.3526 257.227 33.6085H253.842C253.415 33.6085 253.155 33.379 253.064 32.9277C253.018 32.7365 253.01 32.5529 253.033 32.3769C253.056 32.201 253.087 32.0404 253.132 31.895C253.216 31.5508 253.506 31.3748 254.002 31.3748H266.514L266.522 31.3672ZM272.065 29.9138C272.241 30.0897 272.294 30.3269 272.241 30.6252C272.187 30.9235 272.073 31.176 271.905 31.3672C271.715 31.5814 271.501 31.7573 271.28 31.8874C271.051 32.0174 270.815 32.1321 270.556 32.2392C270.403 32.2851 270.212 32.2851 269.976 32.2545C269.74 32.2239 269.534 32.1168 269.366 31.9486C268.787 31.4743 268.245 30.8623 267.757 30.105C267.269 29.3477 266.804 28.5445 266.385 27.6954C265.965 26.8463 265.592 25.9667 265.256 25.0564C264.921 24.1537 264.639 23.3123 264.402 22.532C264.273 21.9507 263.99 21.66 263.563 21.66H263.304C262.961 21.66 262.694 21.5605 262.496 21.3693C262.389 21.2852 262.336 21.1169 262.336 20.8721C262.336 20.6273 262.359 20.4131 262.397 20.2448C262.481 19.9235 262.786 19.7629 263.297 19.7629H264.196C265.332 19.7629 266.133 20.3902 266.583 21.637C266.972 22.6315 267.323 23.4882 267.643 24.2073C267.963 24.934 268.321 25.5918 268.703 26.1961C269.092 26.8004 269.549 27.3971 270.075 27.9785C270.601 28.5598 271.265 29.21 272.058 29.9214L272.065 29.9138Z" fill="white"/>
<path d="M304.182 23.0904C304.288 23.5035 304.288 23.863 304.182 24.192C304.075 24.5132 303.785 24.6739 303.312 24.6739H288.832C288.405 25.3011 287.963 25.8902 287.513 26.4486C287.064 27.007 286.591 27.5348 286.095 28.032H299.866C301.566 28.032 302.413 28.8658 302.413 30.5257V44.5014C302.413 45.6641 302.016 46.6126 301.223 47.3317C300.43 48.0507 299.286 48.372 297.807 48.2879C297.159 48.242 296.595 48.1808 296.114 48.0966C295.634 48.0125 295.054 47.8442 294.391 47.6147C294.086 47.5076 293.895 47.3546 293.812 47.1634C293.728 46.9722 293.705 46.8115 293.751 46.6815C293.812 46.3602 293.911 46.1001 294.04 45.9089C294.124 45.733 294.246 45.6259 294.414 45.5723C294.574 45.5188 294.749 45.5035 294.948 45.5264C295.42 45.5723 295.878 45.6259 296.32 45.6871C296.762 45.7482 297.128 45.7712 297.433 45.7482C298.12 45.7024 298.6 45.5647 298.867 45.3275C299.134 45.0904 299.271 44.7232 299.271 44.226V41.5104H284.242C284.136 43.1933 283.953 44.5243 283.693 45.5035C283.434 46.4826 283.243 47.1787 283.114 47.5918C283.007 47.8901 282.87 48.0966 282.71 48.1884C282.55 48.2802 282.382 48.3414 282.206 48.3644C282.016 48.3644 281.856 48.3644 281.726 48.3491C281.596 48.3338 281.413 48.2879 281.177 48.2037C280.811 48.0737 280.674 47.7371 280.758 47.2017C280.803 46.9033 280.857 46.4061 280.933 45.7177C281.009 45.0292 281.078 44.2642 281.147 43.4381C281.208 42.612 281.269 41.7629 281.322 40.8985C281.375 40.0341 281.406 39.2844 281.406 38.6342V32.0021C280.59 32.5605 279.812 33.0424 279.065 33.4402C278.325 33.838 277.654 34.1669 277.052 34.427C276.602 34.6412 276.236 34.6412 275.954 34.427C275.801 34.3428 275.672 34.2205 275.565 34.0522C275.458 33.8915 275.382 33.7309 275.336 33.5855C275.252 33.2643 275.39 32.9812 275.756 32.7441C276.877 32.0327 277.891 31.3442 278.806 30.6711C279.721 30.0056 280.544 29.3401 281.276 28.6822C282.008 28.0244 282.656 27.3665 283.228 26.7086C283.8 26.0508 284.311 25.3776 284.761 24.6892H276.381C275.801 24.6892 275.481 24.5362 275.413 24.2379C275.329 23.9166 275.313 23.5494 275.382 23.1363C275.443 22.7692 275.779 22.5856 276.381 22.5856H286.019C286.209 22.2184 286.392 21.8512 286.568 21.484C286.743 21.1169 286.911 20.7267 287.086 20.3213C287.262 19.9541 287.49 19.7094 287.78 19.5793C288.07 19.4493 288.352 19.4034 288.634 19.4493C288.932 19.4952 289.237 19.5793 289.534 19.7094C289.831 19.8394 290.052 19.9465 290.182 20.0306C290.418 20.1836 290.594 20.3978 290.701 20.6808C290.807 20.9639 290.8 21.2546 290.67 21.5529L290.152 22.5856H303.343C303.838 22.5856 304.128 22.7615 304.212 23.1057L304.182 23.0904ZM299.248 35.6433H284.509V37.0355C284.509 37.1885 284.509 37.395 284.494 37.6627C284.479 37.9305 284.479 38.2058 284.479 38.4889C284.456 38.6648 284.448 38.8331 284.448 39.009V39.5598H299.248V35.6433ZM299.248 31.1454C299.248 30.411 298.928 30.0438 298.28 30.0438H285.348C284.791 30.0438 284.509 30.411 284.509 31.1454V33.6697H299.248V31.1454Z" fill="white"/>
<path d="M317.945 36.1251C317.968 36.9666 317.869 37.7239 317.656 38.3894C317.442 39.0549 317.099 39.6057 316.626 40.0264C316.153 40.4471 315.543 40.7301 314.804 40.8678C314.064 41.0055 313.187 40.9673 312.173 40.7531L311.723 40.6537L311.373 40.5236L311.342 47.3776C311.342 47.5688 311.281 47.7447 311.151 47.8977C311.022 48.0507 310.869 48.1425 310.702 48.1884C310.488 48.2496 310.198 48.2802 309.848 48.2726C309.497 48.2649 309.222 48.2343 309.024 48.1884C308.727 48.0813 308.574 47.7983 308.574 47.347V22.3484C308.574 20.9715 309.291 20.2754 310.732 20.2754H316.725C317.373 20.2754 317.808 20.4896 318.044 20.9026C318.281 21.3234 318.304 21.8129 318.105 22.3714C317.999 22.7385 317.8 23.251 317.511 23.9089C317.221 24.5668 316.916 25.2323 316.588 25.8978L315.36 28.3533C315.254 28.6363 315.216 28.8505 315.246 29.0035C315.277 29.1565 315.345 29.3171 315.46 29.493C316.214 30.5487 316.802 31.6119 317.229 32.6752C317.656 33.7462 317.892 34.8936 317.938 36.1175L317.945 36.1251ZM314.979 37.6168C315.155 36.7983 315.139 35.7427 314.949 34.4423C314.758 33.1495 314.27 31.5966 313.5 29.7837C313.264 29.3553 313.233 28.8428 313.401 28.2615C313.447 28.0855 313.538 27.7031 313.691 27.114C313.843 26.525 314.003 25.8901 314.171 25.2246C314.384 24.4903 314.613 23.6259 314.85 22.6391C314.895 22.249 314.743 22.0577 314.4 22.0577H312.013C311.754 22.0577 311.586 22.1189 311.517 22.2337C311.441 22.3561 311.403 22.5549 311.403 22.8303L311.373 38.9096C311.525 38.7795 311.746 38.7336 312.051 38.7795C312.227 38.8025 312.493 38.8101 312.859 38.8101C313.225 38.8101 313.523 38.7872 313.759 38.7489C314.445 38.6877 314.857 38.3053 314.987 37.6168H314.979ZM336.26 45.3122C336.543 45.4881 336.703 45.7023 336.756 45.9777C336.809 46.2454 336.756 46.4902 336.611 46.7044C336.436 46.9645 336.268 47.171 336.093 47.3317C335.917 47.4923 335.681 47.6835 335.384 47.8977C335.17 48.0278 334.911 48.1043 334.613 48.1272C334.316 48.1502 333.927 48.0048 333.454 47.7065C332.143 46.888 330.999 45.993 330.023 45.0215C329.047 44.05 328.193 43.0403 327.476 41.977C326.752 40.9214 326.15 39.8428 325.654 38.7413C325.159 37.6397 324.754 36.5535 324.427 35.4749C324.366 35.2608 324.35 35.0542 324.396 34.863C324.442 34.6717 324.571 34.4958 324.785 34.3428L324.884 34.3122H322.528V44.3407C322.894 44.2566 323.207 44.1724 323.466 44.0959C323.725 44.0194 323.961 43.9506 324.19 43.8817C324.419 43.8205 324.64 43.7517 324.854 43.6905C325.067 43.6293 325.326 43.5528 325.631 43.461C326.165 43.308 326.531 43.3463 326.729 43.5605C326.928 43.7746 327.05 44.0424 327.118 44.3713C327.164 44.5625 327.126 44.7614 327.019 44.9527C326.912 45.1439 326.752 45.3122 326.539 45.4422C326.127 45.6794 325.608 45.9318 324.976 46.1995C324.343 46.4673 323.679 46.7197 322.993 46.9568C322.307 47.194 321.621 47.4158 320.942 47.6223C320.263 47.8289 319.676 47.9819 319.188 48.089C318.998 48.1349 318.776 48.1119 318.525 48.0278C318.281 47.9436 318.098 47.7753 317.991 47.5382C317.93 47.4082 317.846 47.171 317.747 46.8268C317.648 46.4826 317.625 46.1766 317.663 45.9242C317.686 45.7482 317.762 45.5876 317.892 45.4422C318.022 45.2969 318.205 45.1975 318.441 45.1516L319.6 44.9221V22.379C319.6 21.0174 320.332 20.3442 321.796 20.3442H332.921C334.408 20.3442 335.147 21.025 335.147 22.379V32.1168C335.147 33.5855 334.408 34.3122 332.921 34.3122H326.218C326.348 34.4423 326.455 34.6029 326.539 34.8018C326.966 35.8345 327.385 36.7295 327.782 37.4715C328.178 38.2135 328.574 38.8866 328.956 39.4909C329.924 38.8025 330.839 38.1293 331.693 37.4868C332.555 36.8366 333.325 36.2399 334.011 35.6738C334.225 35.4979 334.461 35.429 334.72 35.4443C334.979 35.4596 335.185 35.5591 335.33 35.735C335.506 35.888 335.658 36.0563 335.795 36.2399C335.933 36.4235 336.07 36.6912 336.199 37.0278C336.26 37.242 336.253 37.4868 336.169 37.7545C336.085 38.0222 335.94 38.2211 335.75 38.3512C335.384 38.5883 334.964 38.8331 334.476 39.0932C333.996 39.3532 333.493 39.598 332.974 39.8352C332.456 40.0723 331.945 40.2941 331.441 40.5007C330.938 40.7072 330.488 40.8755 330.107 41.0055C330.839 41.824 331.693 42.5507 332.669 43.1856C333.645 43.8205 334.842 44.5243 336.268 45.3045L336.26 45.3122ZM322.52 26.1961H332.196V23.0598C332.196 22.5626 331.952 22.3178 331.457 22.3178H323.107C322.871 22.3178 322.719 22.379 322.642 22.4937C322.566 22.6161 322.528 22.7997 322.528 23.0598V26.1961H322.52ZM331.449 32.2775C331.945 32.2775 332.189 31.9944 332.189 31.436V28.1391H322.513V31.436L322.543 32.2775H331.441H331.449Z" fill="white"/>
<path d="M346.935 28.5292C345.967 30.105 345.052 31.4284 344.198 32.507C343.336 33.5855 342.627 34.3275 342.071 34.7406C341.88 34.8936 341.674 35.0007 341.461 35.0619C341.247 35.1231 341.049 35.1154 340.881 35.0313C340.729 34.9701 340.614 34.8936 340.53 34.8171C340.446 34.7406 340.355 34.6259 340.271 34.4805C340.164 34.3122 340.134 34.144 340.172 33.9833C340.218 33.8227 340.286 33.662 340.401 33.5167C341.819 31.6196 343.016 29.6843 343.977 27.7107C344.945 25.7372 345.753 23.6718 346.394 21.5146C346.585 20.8874 346.996 20.5967 347.622 20.6426C347.751 20.6426 347.896 20.6655 348.056 20.7038C348.216 20.7497 348.384 20.7956 348.559 20.8491C348.735 20.9027 348.887 20.9639 349.025 21.0251C349.162 21.0863 349.269 21.1475 349.33 21.1857C349.505 21.2928 349.642 21.4687 349.749 21.7059C349.856 21.943 349.863 22.2031 349.779 22.4785C349.497 23.5341 349.116 24.5515 348.62 25.5153C348.125 26.4868 347.568 27.4889 346.943 28.5216L346.935 28.5292ZM360.508 36.3241C360.98 36.8442 361.514 37.4715 362.117 38.2135C362.719 38.9555 363.321 39.7587 363.924 40.6231C364.526 41.4875 365.098 42.3748 365.632 43.2928C366.165 44.2107 366.623 45.098 366.989 45.9624C367.119 46.2455 367.126 46.5208 367.004 46.8039C366.882 47.0869 366.737 47.2781 366.57 47.3852C366.12 47.7524 365.555 47.9743 364.892 48.066C364.656 48.089 364.427 48.066 364.198 48.0048C363.969 47.9437 363.786 47.7524 363.634 47.4541C363.443 47.0257 363.245 46.5973 363.054 46.1766C362.864 45.7559 362.658 45.3428 362.444 44.9297C361.995 45.0598 361.346 45.2128 360.492 45.3811C359.646 45.557 358.678 45.7329 357.587 45.9318C356.505 46.1231 355.323 46.3143 354.057 46.4979C352.791 46.6815 351.526 46.8498 350.267 46.9951C349.009 47.1481 347.789 47.2781 346.607 47.3852C345.426 47.4923 344.373 47.5612 343.451 47.5765C343.169 47.5765 342.909 47.5076 342.658 47.3699C342.406 47.2323 342.269 47.041 342.223 46.8039C342.162 46.5208 342.124 46.2684 342.109 46.0466C342.093 45.8247 342.109 45.5876 342.124 45.3505C342.147 45.0904 342.231 44.8609 342.383 44.6697C342.536 44.4784 342.757 44.3713 343.062 44.3484C343.108 44.3484 343.245 44.3484 343.481 44.3331C343.718 44.3178 344.015 44.3025 344.381 44.2872C344.64 43.8741 345.014 43.2239 345.509 42.3289C346.005 41.4339 346.554 40.4012 347.156 39.2385C347.759 38.0758 348.384 36.8213 349.025 35.4673C349.673 34.121 350.267 32.7747 350.832 31.4437C350.938 31.2066 351.114 31 351.35 30.8317C351.587 30.6558 351.846 30.5946 352.12 30.6405C352.38 30.6864 352.692 30.7552 353.073 30.8547C353.455 30.9541 353.722 31.0536 353.897 31.1607C354.088 31.2677 354.232 31.4743 354.316 31.7726C354.4 32.0786 354.37 32.3769 354.217 32.6753C353.744 33.7538 353.226 34.8095 352.654 35.8421C352.082 36.8748 351.495 37.8769 350.877 38.8484C350.267 39.8199 349.642 40.7531 349.009 41.6481C348.376 42.5431 347.759 43.3769 347.156 44.1572C347.911 44.1113 348.704 44.073 349.543 44.0271C350.382 43.9812 351.228 43.9277 352.09 43.8665C353.981 43.7364 355.757 43.5834 357.427 43.4151C359.09 43.2392 360.416 43.0939 361.407 42.9638C360.935 42.0612 360.447 41.1662 359.959 40.2942C359.463 39.4221 358.96 38.5195 358.441 37.5939C358.312 37.3797 358.251 37.1655 358.266 36.9666C358.281 36.7677 358.335 36.6071 358.441 36.5C358.594 36.3241 358.724 36.2017 358.846 36.1252C358.968 36.0487 359.112 35.9798 359.28 35.911C359.707 35.781 360.119 35.9186 360.508 36.3317V36.3241ZM368.278 31.9868C368.445 32.1398 368.598 32.3616 368.712 32.6676C368.827 32.9736 368.796 33.249 368.598 33.5091C368.361 33.8303 368.102 34.1057 367.82 34.3352C367.538 34.5647 367.263 34.7406 366.981 34.8707C366.806 34.9319 366.57 34.9548 366.272 34.9319C365.967 34.9089 365.716 34.8248 365.494 34.6718C364.869 34.2587 364.122 33.5091 363.253 32.4075C362.383 31.306 361.537 30.0132 360.721 28.5216C360.309 27.8102 359.966 26.9611 359.692 25.9819C359.417 25.0028 359.143 24.0696 358.884 23.1822C358.708 22.532 358.388 22.2107 357.915 22.2107H355.887C355.674 22.2107 355.506 22.1801 355.384 22.1266C355.269 22.0731 355.155 21.9889 355.048 21.8818C354.942 21.7747 354.873 21.5605 354.858 21.2546C354.842 20.9486 354.85 20.6961 354.888 20.5279C355.018 20.1836 355.353 20.0077 355.887 20.0077H358.624C359.89 20.0077 360.782 20.6961 361.301 22.0807C361.728 23.1822 362.155 24.169 362.574 25.0564C362.993 25.9437 363.466 26.7698 363.992 27.5501C364.518 28.3303 365.121 29.0723 365.799 29.7837C366.478 30.4951 367.302 31.2295 368.27 31.9868H368.278Z" fill="white"/>
<path d="M393.333 25.806C393.439 26.2343 393.432 26.6551 393.302 27.0681C393.256 27.2211 393.142 27.3206 392.951 27.3741C392.761 27.4277 392.555 27.4583 392.341 27.4583H374.316C373.798 27.4583 373.477 27.2747 373.348 26.9075C373.195 26.5633 373.21 26.1885 373.378 25.7754C373.508 25.4541 373.82 25.2935 374.316 25.2935H392.341C392.601 25.2935 392.822 25.3317 393.005 25.4082C393.188 25.4847 393.302 25.6147 393.34 25.8136L393.333 25.806ZM396.657 20.2754C398.441 20.2754 399.334 21.1704 399.334 22.9604V43.6293C399.334 45.1363 398.945 46.2531 398.159 46.9645C397.374 47.6759 396.146 48.0125 394.469 47.9666C393.569 47.9666 392.73 47.8901 391.953 47.7371C391.182 47.5841 390.504 47.4005 389.924 47.1863C389.604 47.0792 389.391 46.9415 389.276 46.7809C389.162 46.6203 389.116 46.3984 389.116 46.1154C389.116 45.9395 389.169 45.7253 389.276 45.4652C389.429 45.121 389.718 44.9603 390.145 44.9833C391.587 45.1133 392.822 45.1745 393.851 45.1745C395.269 45.1516 395.979 44.5166 395.979 43.2621V23.8324C395.979 22.9451 395.582 22.509 394.781 22.509H374.949C374.69 22.509 374.484 22.4631 374.339 22.379C374.186 22.2949 374.057 22.1725 373.95 22.0271C373.889 21.92 373.851 21.7288 373.836 21.4458C373.82 21.1627 373.836 20.9791 373.881 20.895C374.011 20.4896 374.369 20.283 374.949 20.283H396.65L396.657 20.2754ZM389.177 30.2733C390.961 30.2733 391.853 31.1224 391.853 32.8282V39.2997C391.853 41.0897 390.961 41.9847 389.177 41.9847H377.244C375.46 41.9847 374.568 41.0897 374.568 39.2997V32.8282C374.568 31.1224 375.46 30.2733 377.244 30.2733H389.177ZM388.727 38.6801V33.5014C388.727 32.7441 388.361 32.3692 387.629 32.3692H378.7C377.991 32.3692 377.64 32.7441 377.64 33.5014V38.6801C377.64 39.4756 377.991 39.8811 378.7 39.8811H387.629C388.361 39.8811 388.727 39.4833 388.727 38.6801Z" fill="white"/>
<path d="M88.4882 61.7587C88.4882 62.2941 88.3509 62.7684 88.0764 63.1968C87.8019 63.6251 87.3978 63.9541 86.8717 64.1989C86.3456 64.4436 85.7203 64.5584 84.9959 64.5584C84.1267 64.5584 83.41 64.3977 82.8457 64.0688C82.4492 63.8317 82.1213 63.5181 81.8697 63.1203C81.6181 62.7225 81.4961 62.34 81.4961 61.9652C81.4961 61.751 81.5723 61.5598 81.7172 61.4068C81.8697 61.2538 82.0603 61.1773 82.2891 61.1773C82.4797 61.1773 82.6322 61.2385 82.7695 61.3609C82.8991 61.4833 83.0135 61.6592 83.105 61.8964C83.2193 62.1794 83.3413 62.4089 83.471 62.6001C83.6006 62.7914 83.7836 62.9443 84.02 63.0667C84.2563 63.1891 84.5613 63.2503 84.9502 63.2503C85.4763 63.2503 85.9033 63.1279 86.2388 62.8831C86.5667 62.6384 86.7344 62.3247 86.7344 61.9576C86.7344 61.6669 86.6429 61.4297 86.4676 61.2462C86.2922 61.0626 86.0634 60.9249 85.7813 60.8254C85.4992 60.726 85.1256 60.6265 84.6528 60.5195C84.02 60.3741 83.4938 60.1982 83.0668 59.9993C82.6398 59.8004 82.3043 59.5327 82.0527 59.1884C81.8011 58.8442 81.6791 58.4235 81.6791 57.911C81.6791 57.3985 81.8087 56.993 82.0756 56.6182C82.3425 56.2434 82.7237 55.9527 83.2193 55.7462C83.715 55.5396 84.3097 55.4402 84.9807 55.4402C85.5221 55.4402 85.9872 55.509 86.3837 55.6391C86.7802 55.7768 87.1081 55.9527 87.3673 56.1745C87.6266 56.3964 87.8172 56.6335 87.9392 56.8783C88.0612 57.1231 88.1222 57.3602 88.1222 57.5973C88.1222 57.8115 88.0459 58.0028 87.9011 58.1711C87.7486 58.3393 87.5656 58.4235 87.3368 58.4235C87.1309 58.4235 86.9784 58.3699 86.8717 58.2705C86.7649 58.1711 86.6506 58.0028 86.5286 57.7656C86.3684 57.4367 86.1778 57.1766 85.9567 56.9854C85.7356 56.8018 85.3696 56.7024 84.874 56.7024C84.4165 56.7024 84.0428 56.8018 83.7607 57.0083C83.4786 57.2149 83.3413 57.452 83.3413 57.7427C83.3413 57.9186 83.3871 58.0716 83.4862 58.2017C83.5853 58.3317 83.715 58.4388 83.8827 58.5306C84.0505 58.6224 84.2182 58.6989 84.3936 58.7448C84.569 58.7907 84.8511 58.8748 85.2476 58.9743C85.7432 59.089 86.1931 59.219 86.5972 59.3567C87.0013 59.4944 87.3368 59.6704 87.6189 59.8692C87.9011 60.0681 88.1222 60.3206 88.2823 60.6342C88.4424 60.9402 88.5187 61.315 88.5187 61.7587H88.4882Z" fill="white"/>
<path d="M96.0998 60.9708H94.468V63.4645C94.468 63.824 94.3841 64.0918 94.2164 64.2754C94.0487 64.4589 93.8351 64.5507 93.5835 64.5507C93.3319 64.5507 93.1032 64.4589 92.9354 64.2754C92.7677 64.0918 92.6914 63.824 92.6914 63.4722V56.6718C92.6914 56.2816 92.7829 55.9986 92.9583 55.8303C93.1413 55.662 93.4234 55.5779 93.8123 55.5779H96.0998C96.7784 55.5779 97.2969 55.6314 97.6629 55.7309C98.0213 55.8303 98.3339 55.9986 98.5931 56.2281C98.8524 56.4576 99.0506 56.7483 99.1879 57.0848C99.3251 57.4214 99.3937 57.8039 99.3937 58.2246C99.3937 59.1196 99.1192 59.8004 98.5702 60.267C98.0213 60.726 97.1978 60.9631 96.1074 60.9631L96.0998 60.9708ZM95.6651 56.9242H94.468V59.6168H95.6651C96.0845 59.6168 96.4353 59.5709 96.7174 59.4868C96.9995 59.395 97.213 59.2573 97.3655 59.0508C97.5104 58.8519 97.5866 58.5918 97.5866 58.2629C97.5866 57.8727 97.4723 57.5591 97.2435 57.3143C96.9843 57.0542 96.4658 56.9242 95.6651 56.9242Z" fill="white"/>
<path d="M109.357 56.9624H105.347V59.1272H109.037C109.312 59.1272 109.51 59.1884 109.647 59.3108C109.784 59.4332 109.845 59.5938 109.845 59.7927C109.845 59.9916 109.777 60.1599 109.647 60.2823C109.518 60.4047 109.312 60.4735 109.037 60.4735H105.347V62.9826H109.495C109.777 62.9826 109.983 63.0514 110.128 63.1815C110.272 63.3115 110.341 63.4874 110.341 63.7016C110.341 63.9158 110.272 64.0764 110.128 64.2065C109.983 64.3365 109.777 64.4054 109.495 64.4054H104.653C104.264 64.4054 103.989 64.3212 103.814 64.1453C103.639 63.9694 103.562 63.694 103.562 63.3115V56.6794C103.562 56.427 103.601 56.2128 103.677 56.0521C103.753 55.8915 103.868 55.7691 104.035 55.7002C104.203 55.6314 104.401 55.5855 104.653 55.5855H109.357C109.64 55.5855 109.853 55.6467 109.99 55.7767C110.128 55.8991 110.196 56.0674 110.196 56.274C110.196 56.4805 110.128 56.6488 109.99 56.7788C109.853 56.9089 109.64 56.9701 109.357 56.9701V56.9624Z" fill="white"/>
<path d="M120.24 56.9624H116.23V59.1272H119.92C120.195 59.1272 120.393 59.1884 120.53 59.3108C120.667 59.4332 120.728 59.5938 120.728 59.7927C120.728 59.9916 120.66 60.1599 120.53 60.2823C120.4 60.4047 120.195 60.4735 119.92 60.4735H116.23V62.9826H120.378C120.66 62.9826 120.866 63.0514 121.01 63.1815C121.155 63.3115 121.224 63.4874 121.224 63.7016C121.224 63.9158 121.155 64.0764 121.01 64.2065C120.866 64.3365 120.66 64.4054 120.378 64.4054H115.536C115.147 64.4054 114.872 64.3212 114.697 64.1453C114.522 63.9694 114.445 63.694 114.445 63.3115V56.6794C114.445 56.427 114.483 56.2128 114.56 56.0521C114.636 55.8915 114.75 55.7691 114.918 55.7002C115.086 55.6314 115.284 55.5855 115.536 55.5855H120.24C120.522 55.5855 120.736 55.6467 120.873 55.7767C121.01 55.8991 121.079 56.0674 121.079 56.274C121.079 56.4805 121.01 56.6488 120.873 56.7788C120.736 56.9089 120.522 56.9701 120.24 56.9701V56.9624Z" fill="white"/>
<path d="M126.43 55.5855H128.748C129.351 55.5855 129.869 55.6391 130.304 55.7538C130.738 55.8685 131.127 56.0751 131.478 56.3887C132.393 57.1766 132.85 58.3699 132.85 59.9763C132.85 60.5041 132.805 60.9861 132.713 61.4221C132.622 61.8581 132.477 62.2559 132.286 62.6001C132.096 62.952 131.852 63.2656 131.547 63.541C131.31 63.7552 131.051 63.9235 130.776 64.0535C130.494 64.1835 130.197 64.2753 129.877 64.3212C129.556 64.3748 129.19 64.3977 128.786 64.3977H126.468C126.14 64.3977 125.896 64.3518 125.736 64.2524C125.569 64.1529 125.462 64.0153 125.416 63.8393C125.37 63.6634 125.34 63.4262 125.34 63.1432V56.6794C125.34 56.2969 125.424 56.0139 125.599 55.8456C125.767 55.6697 126.049 55.5855 126.43 55.5855ZM127.116 57.0007V62.9826H128.466C128.763 62.9826 128.992 62.9749 129.16 62.9596C129.328 62.9443 129.503 62.9061 129.678 62.8372C129.861 62.776 130.014 62.6842 130.144 62.5695C130.738 62.0646 131.036 61.1926 131.036 59.961C131.036 59.089 130.906 58.4388 130.647 58.0027C130.388 57.5667 130.06 57.2913 129.678 57.1766C129.297 57.0619 128.832 57.0007 128.291 57.0007H127.116Z" fill="white"/>
<path d="M137.179 63.4645V56.5188C137.179 56.1592 137.263 55.8839 137.424 55.7079C137.584 55.5243 137.797 55.4402 138.056 55.4402C138.316 55.4402 138.544 55.532 138.704 55.7079C138.872 55.8839 138.956 56.1592 138.956 56.5264V63.4722C138.956 63.8393 138.872 64.1071 138.704 64.2907C138.537 64.4742 138.323 64.5584 138.056 64.5584C137.789 64.5584 137.591 64.4666 137.424 64.283C137.256 64.0994 137.172 63.8317 137.172 63.4645H137.179Z" fill="white"/>
<path d="M145.959 56.5111L149.382 61.7127V56.4652C149.382 56.1286 149.459 55.8685 149.604 55.7002C149.748 55.532 149.947 55.4478 150.191 55.4478C150.435 55.4478 150.648 55.532 150.793 55.7002C150.938 55.8685 151.014 56.1286 151.014 56.4652V63.4033C151.014 64.1759 150.694 64.566 150.053 64.566C149.893 64.566 149.748 64.5431 149.619 64.4972C149.489 64.4513 149.367 64.3748 149.26 64.2753C149.146 64.1759 149.047 64.0611 148.948 63.9235C148.849 63.7858 148.757 63.6481 148.658 63.5104L145.318 58.3699V63.541C145.318 63.8776 145.242 64.13 145.082 64.3059C144.929 64.4819 144.724 64.566 144.48 64.566C144.236 64.566 144.03 64.4819 143.877 64.3059C143.725 64.13 143.648 63.8776 143.648 63.5486V56.7482C143.648 56.4575 143.679 56.2357 143.748 56.0674C143.824 55.8838 143.953 55.7385 144.129 55.6238C144.304 55.509 144.495 55.4555 144.701 55.4555C144.861 55.4555 144.998 55.4784 145.112 55.532C145.227 55.5855 145.326 55.6544 145.41 55.7461C145.494 55.8379 145.585 55.9527 145.677 56.0904C145.768 56.2281 145.86 56.3811 145.959 56.5264V56.5111Z" fill="white"/>
<path d="M163.685 60.8178V62.5083C163.685 62.7302 163.662 62.9138 163.616 63.0438C163.57 63.1739 163.494 63.2962 163.372 63.411C163.258 63.5181 163.105 63.6252 162.922 63.7246C162.388 64.0153 161.877 64.2218 161.389 64.3595C160.901 64.4896 160.36 64.5584 159.781 64.5584C159.102 64.5584 158.492 64.4513 157.935 64.2448C157.379 64.0382 156.906 63.7323 156.517 63.3345C156.128 62.9367 155.823 62.4548 155.617 61.8887C155.411 61.3227 155.305 60.6878 155.305 59.9917C155.305 59.2956 155.404 58.6759 155.61 58.1099C155.816 57.5362 156.113 57.0542 156.509 56.6565C156.906 56.2587 157.386 55.9527 157.951 55.7462C158.515 55.5397 159.163 55.4326 159.88 55.4326C160.474 55.4326 160.993 55.5091 161.45 55.6697C161.908 55.8303 162.274 56.0292 162.556 56.2664C162.838 56.5111 163.052 56.7636 163.197 57.0313C163.341 57.299 163.41 57.5362 163.41 57.7504C163.41 57.9722 163.326 58.1634 163.158 58.3241C162.991 58.4847 162.792 58.5612 162.564 58.5612C162.434 58.5612 162.312 58.5306 162.198 58.4694C162.083 58.4082 161.984 58.3241 161.9 58.217C161.679 57.8727 161.496 57.6127 161.344 57.4367C161.191 57.2608 160.985 57.1078 160.726 56.9931C160.467 56.8707 160.139 56.8095 159.742 56.8095C159.346 56.8095 158.965 56.8783 158.637 57.0237C158.317 57.169 158.034 57.3755 157.806 57.6433C157.577 57.911 157.402 58.2476 157.28 58.6377C157.158 59.0278 157.097 59.4638 157.097 59.9458C157.097 60.9784 157.333 61.774 157.806 62.3324C158.278 62.8908 158.942 63.1662 159.788 63.1662C160.2 63.1662 160.589 63.1127 160.947 63.0056C161.306 62.8985 161.679 62.7455 162.045 62.5389V61.1085H160.665C160.33 61.1085 160.086 61.0549 159.91 60.9555C159.742 60.8561 159.659 60.6878 159.659 60.443C159.659 60.2441 159.727 60.0835 159.872 59.9534C160.017 59.8234 160.208 59.7622 160.452 59.7622H162.472C162.724 59.7622 162.93 59.7851 163.105 59.831C163.28 59.8769 163.418 59.9764 163.524 60.1293C163.631 60.2823 163.685 60.5118 163.685 60.8178Z" fill="white"/>
<path d="M176.23 60.6342H175.605V63.4645C175.605 63.8394 175.521 64.1147 175.361 64.2907C175.193 64.4666 174.979 64.5584 174.72 64.5584C174.438 64.5584 174.217 64.4666 174.057 64.283C173.904 64.0994 173.82 63.8317 173.82 63.4722V56.6871C173.82 56.3046 173.904 56.0216 174.08 55.8533C174.255 55.685 174.529 55.5932 174.911 55.5932H177.808C178.212 55.5932 178.548 55.6085 178.83 55.6467C179.112 55.6773 179.371 55.7538 179.6 55.8533C179.875 55.968 180.119 56.1363 180.332 56.3505C180.546 56.5647 180.706 56.8171 180.812 57.1078C180.919 57.3985 180.98 57.6968 180.98 58.0181C180.98 58.676 180.797 59.2038 180.424 59.5939C180.058 59.984 179.493 60.267 178.738 60.4277C179.051 60.596 179.356 60.8484 179.646 61.1697C179.936 61.4986 180.187 61.8505 180.416 62.2177C180.645 62.5925 180.82 62.9214 180.942 63.2197C181.064 63.5181 181.133 63.7246 181.133 63.8394C181.133 63.9541 181.095 64.0688 181.018 64.1836C180.942 64.2983 180.843 64.3901 180.713 64.4513C180.584 64.5202 180.439 64.5508 180.271 64.5508C180.073 64.5508 179.905 64.5049 179.768 64.4131C179.631 64.3213 179.516 64.1989 179.417 64.0535C179.318 63.9082 179.188 63.694 179.021 63.4186L178.304 62.2253C178.045 61.7893 177.816 61.4527 177.618 61.2232C177.412 60.9937 177.213 60.8408 177 60.7566C176.786 60.6725 176.527 60.6266 176.215 60.6266L176.23 60.6342ZM177.252 56.9319H175.612V59.3568H177.206C177.633 59.3568 177.991 59.3185 178.289 59.2497C178.578 59.1732 178.807 59.0508 178.96 58.8672C179.112 58.6913 179.188 58.4465 179.188 58.1328C179.188 57.888 179.127 57.6739 179.005 57.4826C178.883 57.2914 178.708 57.1537 178.487 57.0619C178.281 56.9701 177.869 56.9319 177.259 56.9319H177.252Z" fill="white"/>
<path d="M189.223 55.4402C190.138 55.4402 190.916 55.6238 191.572 55.9986C192.227 56.3658 192.723 56.8936 193.058 57.582C193.394 58.2705 193.562 59.066 193.562 59.9916C193.562 60.6724 193.47 61.292 193.287 61.8505C193.104 62.4089 192.83 62.8908 192.464 63.2962C192.098 63.7093 191.648 64.0153 191.106 64.2371C190.573 64.4513 189.955 64.5584 189.269 64.5584C188.583 64.5584 187.965 64.4513 187.424 64.2218C186.882 64 186.425 63.6863 186.059 63.2809C185.693 62.8755 185.418 62.3859 185.235 61.8199C185.052 61.2538 184.953 60.6342 184.953 59.9763C184.953 59.3185 185.052 58.6759 185.243 58.1099C185.434 57.5438 185.716 57.0619 186.082 56.6641C186.448 56.2663 186.897 55.9604 187.424 55.7538C187.95 55.5473 188.552 55.4402 189.223 55.4402ZM191.755 59.9763C191.755 59.3338 191.648 58.7677 191.442 58.3011C191.236 57.8268 190.939 57.4673 190.55 57.2302C190.161 56.993 189.719 56.863 189.223 56.863C188.865 56.863 188.537 56.9318 188.239 57.0619C187.942 57.1919 187.675 57.3908 187.462 57.6509C187.248 57.911 187.073 58.2323 186.943 58.63C186.814 59.0278 186.753 59.4791 186.753 59.9763C186.753 60.4736 186.814 60.9325 186.943 61.3379C187.073 61.7434 187.248 62.0799 187.477 62.3477C187.706 62.6154 187.973 62.8143 188.27 62.9443C188.567 63.0744 188.895 63.1432 189.246 63.1432C189.703 63.1432 190.123 63.0285 190.504 62.799C190.885 62.5695 191.19 62.2176 191.419 61.7434C191.648 61.2691 191.755 60.6801 191.755 59.984V59.9763Z" fill="white"/>
<path d="M205.256 61.621C205.256 61.904 205.188 62.2023 205.051 62.5313C204.913 62.8602 204.7 63.1815 204.402 63.4951C204.105 63.8087 203.731 64.0688 203.266 64.2601C202.809 64.4589 202.267 64.5507 201.657 64.5507C201.192 64.5507 200.773 64.5048 200.392 64.4207C200.01 64.3365 199.667 64.1989 199.355 64.0076C199.042 63.8164 198.76 63.5792 198.501 63.2733C198.272 62.9979 198.074 62.6843 197.906 62.34C197.738 61.9958 197.616 61.6286 197.54 61.2462C197.464 60.8637 197.418 60.443 197.418 60.0069C197.418 59.2955 197.525 58.6606 197.723 58.1022C197.929 57.5438 198.226 57.0619 198.607 56.6641C198.989 56.2663 199.439 55.9604 199.957 55.7538C200.476 55.5473 201.025 55.4402 201.604 55.4402C202.313 55.4402 202.954 55.5855 203.503 55.8686C204.059 56.1516 204.486 56.5035 204.784 56.9242C205.081 57.3449 205.226 57.7427 205.226 58.1099C205.226 58.3164 205.157 58.4923 205.012 58.653C204.868 58.806 204.692 58.8901 204.494 58.8901C204.265 58.8901 204.097 58.8366 203.983 58.7295C203.869 58.6224 203.739 58.4311 203.602 58.1711C203.373 57.735 203.099 57.4061 202.786 57.1919C202.473 56.9777 202.084 56.8706 201.627 56.8706C200.895 56.8706 200.315 57.146 199.881 57.7044C199.446 58.2628 199.233 59.0507 199.233 60.0834C199.233 60.7719 199.332 61.3379 199.522 61.7969C199.713 62.2559 199.988 62.5925 200.338 62.8143C200.689 63.0361 201.101 63.1509 201.574 63.1509C202.084 63.1509 202.519 63.0208 202.87 62.7684C203.221 62.516 203.487 62.1411 203.67 61.6439C203.747 61.4144 203.838 61.2232 203.953 61.0779C204.067 60.9325 204.242 60.856 204.494 60.856C204.707 60.856 204.89 60.9325 205.043 61.0779C205.195 61.2232 205.272 61.4144 205.272 61.6286L205.256 61.621Z" fill="white"/>
<path d="M211.343 56.5188V59.6092L214.835 55.9527C215.003 55.7768 215.148 55.6467 215.262 55.5626C215.376 55.4784 215.537 55.4325 215.735 55.4325C215.994 55.4325 216.2 55.509 216.352 55.6544C216.513 55.8074 216.589 55.9909 216.589 56.2051C216.589 56.4652 216.452 56.7253 216.185 56.9777L214.019 59.0354L216.513 62.6231C216.688 62.8755 216.818 63.0897 216.909 63.2733C217.001 63.4569 217.039 63.6404 217.039 63.8164C217.039 64.0153 216.962 64.1836 216.81 64.3289C216.657 64.4742 216.444 64.5431 216.185 64.5431C215.933 64.5431 215.735 64.4895 215.582 64.3824C215.43 64.2754 215.293 64.1377 215.186 63.9617C215.079 63.7858 214.98 63.6251 214.896 63.4798L212.792 60.2288L211.335 61.6286V63.4492C211.335 63.8164 211.251 64.0918 211.084 64.2677C210.916 64.4436 210.702 64.5354 210.435 64.5354C210.283 64.5354 210.138 64.4972 210.001 64.413C209.864 64.3289 209.749 64.2218 209.673 64.0841C209.62 63.9694 209.581 63.8393 209.574 63.694C209.559 63.5487 209.559 63.3345 209.559 63.0514V56.4958C209.559 56.1363 209.635 55.8609 209.795 55.685C209.955 55.509 210.169 55.4172 210.443 55.4172C210.718 55.4172 210.931 55.509 211.091 55.685C211.251 55.8609 211.343 56.1363 211.343 56.5035V56.5188Z" fill="white"/>
<path d="M227.119 56.9624H223.108V59.1272H226.799C227.073 59.1272 227.272 59.1884 227.409 59.3108C227.546 59.4332 227.607 59.5938 227.607 59.7927C227.607 59.9916 227.539 60.1599 227.409 60.2823C227.279 60.4047 227.073 60.4735 226.799 60.4735H223.108V62.9826H227.256C227.539 62.9826 227.744 63.0514 227.889 63.1815C228.034 63.3115 228.103 63.4874 228.103 63.7016C228.103 63.9158 228.034 64.0764 227.889 64.2065C227.744 64.3365 227.539 64.4054 227.256 64.4054H222.415C222.026 64.4054 221.751 64.3212 221.576 64.1453C221.4 63.9694 221.324 63.694 221.324 63.3115V56.6794C221.324 56.427 221.362 56.2128 221.439 56.0521C221.515 55.8915 221.629 55.7691 221.797 55.7002C221.965 55.6314 222.163 55.5855 222.415 55.5855H227.119C227.401 55.5855 227.615 55.6467 227.752 55.7767C227.889 55.8991 227.958 56.0674 227.958 56.274C227.958 56.4805 227.889 56.6488 227.752 56.7788C227.615 56.9089 227.401 56.9701 227.119 56.9701V56.9624Z" fill="white"/>
<path d="M237.913 57.0619H235.968V63.4645C235.968 63.8317 235.885 64.107 235.724 64.283C235.564 64.4589 235.351 64.5507 235.092 64.5507C234.832 64.5507 234.611 64.4589 234.443 64.283C234.276 64.107 234.192 63.8317 234.192 63.4645V57.0619H232.247C231.942 57.0619 231.721 56.993 231.569 56.863C231.424 56.7253 231.348 56.5493 231.348 56.3275C231.348 56.1057 231.424 55.9221 231.576 55.7844C231.729 55.6544 231.95 55.5855 232.247 55.5855H237.905C238.21 55.5855 238.439 55.6544 238.591 55.792C238.744 55.9297 238.812 56.1057 238.812 56.3275C238.812 56.5493 238.736 56.7253 238.584 56.863C238.431 57.0007 238.202 57.0619 237.897 57.0619H237.913Z" fill="white"/>
<path d="M255.827 61.621C255.827 61.904 255.758 62.2023 255.621 62.5313C255.484 62.8602 255.27 63.1815 254.973 63.4951C254.675 63.8087 254.302 64.0688 253.837 64.2601C253.379 64.4589 252.838 64.5507 252.228 64.5507C251.763 64.5507 251.343 64.5048 250.962 64.4207C250.581 64.3365 250.238 64.1989 249.925 64.0076C249.612 63.8164 249.33 63.5792 249.071 63.2733C248.842 62.9979 248.644 62.6843 248.476 62.34C248.309 61.9958 248.187 61.6286 248.11 61.2462C248.034 60.8637 247.988 60.443 247.988 60.0069C247.988 59.2955 248.095 58.6606 248.293 58.1022C248.499 57.5438 248.797 57.0619 249.178 56.6641C249.559 56.2663 250.009 55.9604 250.527 55.7538C251.046 55.5473 251.595 55.4402 252.174 55.4402C252.884 55.4402 253.524 55.5855 254.073 55.8686C254.63 56.1516 255.057 56.5035 255.354 56.9242C255.651 57.3449 255.796 57.7427 255.796 58.1099C255.796 58.3164 255.728 58.4923 255.583 58.653C255.438 58.806 255.263 58.8901 255.064 58.8901C254.836 58.8901 254.668 58.8366 254.553 58.7295C254.439 58.6224 254.309 58.4311 254.172 58.1711C253.943 57.735 253.669 57.4061 253.356 57.1919C253.044 56.9777 252.655 56.8706 252.197 56.8706C251.465 56.8706 250.886 57.146 250.451 57.7044C250.017 58.2628 249.803 59.0507 249.803 60.0834C249.803 60.7719 249.902 61.3379 250.093 61.7969C250.283 62.2559 250.558 62.5925 250.909 62.8143C251.259 63.0361 251.671 63.1509 252.144 63.1509C252.655 63.1509 253.089 63.0208 253.44 62.7684C253.791 62.516 254.058 62.1411 254.241 61.6439C254.317 61.4144 254.409 61.2232 254.523 61.0779C254.637 60.9325 254.813 60.856 255.064 60.856C255.278 60.856 255.461 60.9325 255.613 61.0779C255.766 61.2232 255.842 61.4144 255.842 61.6286L255.827 61.621Z" fill="white"/>
<path d="M263.977 55.4402C264.892 55.4402 265.67 55.6238 266.325 55.9986C266.981 56.3658 267.477 56.8936 267.812 57.582C268.148 58.2705 268.316 59.066 268.316 59.9916C268.316 60.6724 268.224 61.292 268.041 61.8505C267.858 62.4089 267.584 62.8908 267.218 63.2962C266.852 63.7093 266.402 64.0153 265.86 64.2371C265.327 64.4513 264.709 64.5584 264.023 64.5584C263.337 64.5584 262.719 64.4513 262.178 64.2218C261.636 64 261.179 63.6863 260.813 63.2809C260.447 62.8755 260.172 62.3859 259.989 61.8199C259.806 61.2538 259.707 60.6342 259.707 59.9763C259.707 59.3185 259.806 58.6759 259.997 58.1099C260.187 57.5438 260.47 57.0619 260.836 56.6641C261.202 56.2663 261.651 55.9604 262.178 55.7538C262.704 55.5473 263.306 55.4402 263.977 55.4402ZM266.508 59.9763C266.508 59.3338 266.402 58.7677 266.196 58.3011C265.99 57.8268 265.693 57.4673 265.304 57.2302C264.915 56.993 264.473 56.863 263.977 56.863C263.619 56.863 263.291 56.9318 262.993 57.0619C262.696 57.1919 262.429 57.3908 262.216 57.6509C262.002 57.911 261.827 58.2323 261.697 58.63C261.568 59.0278 261.507 59.4791 261.507 59.9763C261.507 60.4736 261.568 60.9325 261.697 61.3379C261.827 61.7434 262.002 62.0799 262.231 62.3477C262.46 62.6154 262.726 62.8143 263.024 62.9443C263.321 63.0744 263.649 63.1432 264 63.1432C264.457 63.1432 264.877 63.0285 265.258 62.799C265.639 62.5695 265.944 62.2176 266.173 61.7434C266.402 61.2691 266.508 60.6801 266.508 59.984V59.9763Z" fill="white"/>
<path d="M275.499 63.0744L274.089 57.4596V63.5486C274.089 63.8852 274.013 64.1376 273.868 64.3059C273.715 64.4742 273.517 64.5584 273.273 64.5584C273.029 64.5584 272.838 64.4742 272.686 64.3059C272.533 64.1376 272.457 63.8852 272.457 63.541V56.5646C272.457 56.1822 272.556 55.9221 272.754 55.7844C272.953 55.6467 273.227 55.5855 273.563 55.5855H274.112C274.447 55.5855 274.684 55.6161 274.836 55.6773C274.989 55.7385 275.095 55.8456 275.172 56.0062C275.24 56.1592 275.324 56.4193 275.415 56.7712L276.697 61.6057L277.97 56.7712C278.061 56.4193 278.145 56.1669 278.214 56.0062C278.282 55.8532 278.397 55.7385 278.549 55.6773C278.702 55.6161 278.938 55.5855 279.274 55.5855H279.823C280.166 55.5855 280.433 55.6544 280.631 55.7844C280.829 55.9144 280.928 56.1745 280.928 56.5646V63.541C280.928 63.8776 280.852 64.13 280.707 64.2983C280.555 64.4666 280.356 64.5507 280.105 64.5507C279.868 64.5507 279.678 64.4666 279.525 64.2983C279.373 64.13 279.297 63.8776 279.297 63.541V57.452L277.886 63.0667C277.795 63.4339 277.718 63.7016 277.665 63.8699C277.611 64.0382 277.497 64.1988 277.345 64.3365C277.192 64.4742 276.971 64.5431 276.697 64.5431C276.491 64.5431 276.315 64.4972 276.17 64.4054C276.026 64.3136 275.911 64.1988 275.835 64.0611C275.751 63.9235 275.69 63.7628 275.644 63.5945C275.599 63.4262 275.553 63.2503 275.507 63.0591L275.499 63.0744Z" fill="white"/>
<path d="M288.858 60.9708H287.226V63.4645C287.226 63.824 287.142 64.0918 286.974 64.2754C286.806 64.4589 286.593 64.5507 286.341 64.5507C286.09 64.5507 285.861 64.4589 285.693 64.2754C285.525 64.0918 285.449 63.824 285.449 63.4722V56.6718C285.449 56.2816 285.541 55.9986 285.716 55.8303C285.899 55.662 286.181 55.5779 286.57 55.5779H288.858C289.536 55.5779 290.055 55.6314 290.421 55.7309C290.779 55.8303 291.092 55.9986 291.351 56.2281C291.61 56.4576 291.808 56.7483 291.946 57.0848C292.083 57.4214 292.152 57.8039 292.152 58.2246C292.152 59.1196 291.877 59.8004 291.328 60.267C290.779 60.726 289.956 60.9631 288.865 60.9631L288.858 60.9708ZM288.423 56.9242H287.226V59.6168H288.423C288.842 59.6168 289.193 59.5709 289.475 59.4868C289.757 59.395 289.971 59.2573 290.123 59.0508C290.268 58.8519 290.344 58.5918 290.344 58.2629C290.344 57.8727 290.23 57.5591 290.001 57.3143C289.742 57.0542 289.224 56.9242 288.423 56.9242Z" fill="white"/>
<path d="M300.873 63.4109L300.454 62.3018H296.878L296.459 63.4339C296.291 63.8776 296.154 64.1759 296.039 64.3289C295.925 64.4819 295.734 64.5584 295.467 64.5584C295.246 64.5584 295.048 64.4742 294.873 64.3136C294.697 64.1529 294.613 63.9617 294.613 63.7552C294.613 63.6328 294.636 63.5104 294.674 63.3803C294.712 63.2503 294.781 63.0744 294.873 62.8449L297.122 57.1154C297.183 56.9548 297.259 56.7559 297.351 56.5264C297.442 56.2969 297.534 56.1057 297.64 55.9527C297.74 55.7997 297.877 55.6773 298.045 55.5855C298.212 55.4937 298.418 55.4478 298.662 55.4478C298.906 55.4478 299.12 55.4937 299.28 55.5855C299.44 55.6773 299.577 55.7997 299.684 55.9527C299.783 56.098 299.874 56.2587 299.943 56.4346C300.012 56.6029 300.103 56.8324 300.21 57.1154L302.505 62.8066C302.688 63.2426 302.772 63.5563 302.772 63.7475C302.772 63.9388 302.688 64.1376 302.52 64.3136C302.353 64.4819 302.147 64.566 301.903 64.566C301.765 64.566 301.643 64.5431 301.544 64.4895C301.445 64.436 301.361 64.3748 301.293 64.283C301.224 64.1988 301.156 64.0611 301.072 63.8852C300.995 63.7093 300.927 63.5486 300.873 63.4109ZM297.351 60.9631H299.974L298.647 57.3219L297.343 60.9631H297.351Z" fill="white"/>
<path d="M309.088 56.5111L312.511 61.7127V56.4652C312.511 56.1286 312.588 55.8685 312.732 55.7002C312.877 55.532 313.076 55.4478 313.32 55.4478C313.564 55.4478 313.777 55.532 313.922 55.7002C314.067 55.8685 314.143 56.1286 314.143 56.4652V63.4033C314.143 64.1759 313.823 64.566 313.182 64.566C313.022 64.566 312.877 64.5431 312.748 64.4972C312.618 64.4513 312.496 64.3748 312.389 64.2753C312.275 64.1759 312.176 64.0611 312.077 63.9235C311.978 63.7858 311.886 63.6481 311.787 63.5104L308.447 58.3699V63.541C308.447 63.8776 308.371 64.13 308.211 64.3059C308.058 64.4819 307.852 64.566 307.608 64.566C307.364 64.566 307.159 64.4819 307.006 64.3059C306.854 64.13 306.777 63.8776 306.777 63.5486V56.7482C306.777 56.4575 306.808 56.2357 306.876 56.0674C306.953 55.8838 307.082 55.7385 307.258 55.6238C307.433 55.509 307.624 55.4555 307.83 55.4555C307.99 55.4555 308.127 55.4784 308.241 55.532C308.356 55.5855 308.455 55.6544 308.539 55.7461C308.623 55.8379 308.714 55.9527 308.806 56.0904C308.897 56.2281 308.989 56.3811 309.088 56.5264V56.5111Z" fill="white"/>
<path d="M320.743 63.4645V60.6648L318.593 57.322C318.402 57.0237 318.273 56.7865 318.196 56.6182C318.12 56.4499 318.082 56.3046 318.082 56.1822C318.082 55.9757 318.158 55.7997 318.318 55.6544C318.479 55.5091 318.669 55.4326 318.906 55.4326C319.15 55.4326 319.333 55.5014 319.462 55.6391C319.592 55.7768 319.775 56.0522 320.026 56.4652L321.666 59.1426L323.328 56.4652C323.427 56.2969 323.511 56.1593 323.58 56.0522C323.648 55.9374 323.724 55.838 323.808 55.7385C323.892 55.6391 323.984 55.5626 324.083 55.509C324.182 55.4555 324.304 55.4326 324.449 55.4326C324.67 55.4326 324.861 55.5014 325.013 55.6544C325.166 55.7997 325.234 55.968 325.234 56.1593C325.234 56.3123 325.196 56.4729 325.12 56.6259C325.044 56.7789 324.914 57.0007 324.731 57.2761L322.527 60.6648V63.4645C322.527 63.8317 322.444 64.0994 322.276 64.283C322.108 64.4666 321.895 64.5508 321.635 64.5508C321.376 64.5508 321.155 64.459 320.995 64.283C320.835 64.1071 320.751 63.8317 320.751 63.4645H320.743Z" fill="white"/>
<path d="M336.659 56.5188V62.9367H340.266C340.556 62.9367 340.777 63.0055 340.929 63.1509C341.082 63.2886 341.158 63.4645 341.158 63.6787C341.158 63.8929 341.082 64.0688 340.929 64.2065C340.777 64.3442 340.556 64.4054 340.266 64.4054H335.965C335.576 64.4054 335.302 64.3212 335.127 64.1453C334.951 63.9694 334.875 63.694 334.875 63.3115V56.5188C334.875 56.1592 334.959 55.8839 335.119 55.7079C335.279 55.532 335.493 55.4402 335.759 55.4402C336.026 55.4402 336.248 55.532 336.408 55.7079C336.568 55.8839 336.659 56.1592 336.659 56.5264V56.5188Z" fill="white"/>
<path d="M345.09 63.4645V56.5188C345.09 56.1592 345.174 55.8839 345.334 55.7079C345.494 55.5243 345.707 55.4402 345.967 55.4402C346.226 55.4402 346.455 55.532 346.615 55.7079C346.782 55.8839 346.866 56.1592 346.866 56.5264V63.4722C346.866 63.8393 346.782 64.1071 346.615 64.2907C346.447 64.4742 346.233 64.5584 345.967 64.5584C345.7 64.5584 345.501 64.4666 345.334 64.283C345.166 64.0994 345.082 63.8317 345.082 63.4645H345.09Z" fill="white"/>
<path d="M354.515 63.0744L353.104 57.4596V63.5486C353.104 63.8852 353.028 64.1376 352.883 64.3059C352.731 64.4742 352.533 64.5584 352.289 64.5584C352.045 64.5584 351.854 64.4742 351.701 64.3059C351.549 64.1376 351.473 63.8852 351.473 63.541V56.5646C351.473 56.1822 351.572 55.9221 351.77 55.7844C351.968 55.6467 352.243 55.5855 352.578 55.5855H353.127C353.463 55.5855 353.699 55.6161 353.852 55.6773C354.004 55.7385 354.111 55.8456 354.187 56.0062C354.256 56.1592 354.34 56.4193 354.431 56.7712L355.712 61.6057L356.986 56.7712C357.077 56.4193 357.161 56.1669 357.23 56.0062C357.298 55.8532 357.413 55.7385 357.565 55.6773C357.718 55.6161 357.954 55.5855 358.289 55.5855H358.838C359.181 55.5855 359.448 55.6544 359.647 55.7844C359.845 55.9144 359.944 56.1745 359.944 56.5646V63.541C359.944 63.8776 359.868 64.13 359.723 64.2983C359.57 64.4666 359.372 64.5507 359.12 64.5507C358.884 64.5507 358.694 64.4666 358.541 64.2983C358.389 64.13 358.312 63.8776 358.312 63.541V57.452L356.902 63.0667C356.81 63.4339 356.734 63.7016 356.681 63.8699C356.627 64.0382 356.513 64.1988 356.36 64.3365C356.208 64.4742 355.987 64.5431 355.712 64.5431C355.506 64.5431 355.331 64.4972 355.186 64.4054C355.041 64.3136 354.927 64.1988 354.851 64.0611C354.767 63.9235 354.706 63.7628 354.66 63.5945C354.614 63.4262 354.568 63.2503 354.523 63.0591L354.515 63.0744Z" fill="white"/>
<path d="M364.543 63.4645V56.5188C364.543 56.1592 364.627 55.8839 364.787 55.7079C364.947 55.5243 365.16 55.4402 365.42 55.4402C365.679 55.4402 365.908 55.532 366.068 55.7079C366.236 55.8839 366.319 56.1592 366.319 56.5264V63.4722C366.319 63.8393 366.236 64.1071 366.068 64.2907C365.9 64.4742 365.687 64.5584 365.42 64.5584C365.153 64.5584 364.955 64.4666 364.787 64.283C364.619 64.0994 364.535 63.8317 364.535 63.4645H364.543Z" fill="white"/>
<path d="M376.714 57.0619H374.769V63.4645C374.769 63.8317 374.685 64.107 374.525 64.283C374.365 64.4589 374.152 64.5507 373.892 64.5507C373.633 64.5507 373.412 64.4589 373.244 64.283C373.076 64.107 372.993 63.8317 372.993 63.4645V57.0619H371.048C370.743 57.0619 370.522 56.993 370.37 56.863C370.225 56.7253 370.148 56.5493 370.148 56.3275C370.148 56.1057 370.225 55.9221 370.377 55.7844C370.53 55.6544 370.751 55.5855 371.048 55.5855H376.706C377.011 55.5855 377.24 55.6544 377.392 55.792C377.545 55.9297 377.613 56.1057 377.613 56.3275C377.613 56.5493 377.537 56.7253 377.385 56.863C377.232 57.0007 377.003 57.0619 376.698 57.0619H376.714Z" fill="white"/>
<path d="M387.158 56.9624H383.148V59.1272H386.838C387.112 59.1272 387.311 59.1884 387.448 59.3108C387.585 59.4332 387.646 59.5938 387.646 59.7927C387.646 59.9916 387.578 60.1599 387.448 60.2823C387.318 60.4047 387.112 60.4735 386.838 60.4735H383.148V62.9826H387.296C387.578 62.9826 387.784 63.0514 387.928 63.1815C388.073 63.3115 388.142 63.4874 388.142 63.7016C388.142 63.9158 388.073 64.0764 387.928 64.2065C387.784 64.3365 387.578 64.4054 387.296 64.4054H382.454C382.065 64.4054 381.79 64.3212 381.615 64.1453C381.44 63.9694 381.363 63.694 381.363 63.3115V56.6794C381.363 56.427 381.401 56.2128 381.478 56.0521C381.554 55.8915 381.668 55.7691 381.836 55.7002C382.004 55.6314 382.202 55.5855 382.454 55.5855H387.158C387.44 55.5855 387.654 55.6467 387.791 55.7767C387.928 55.8991 387.997 56.0674 387.997 56.274C387.997 56.4805 387.928 56.6488 387.791 56.7788C387.654 56.9089 387.44 56.9701 387.158 56.9701V56.9624Z" fill="white"/>
<path d="M393.348 55.5855H395.666C396.269 55.5855 396.787 55.6391 397.222 55.7538C397.656 55.8685 398.045 56.0751 398.396 56.3887C399.311 57.1766 399.768 58.3699 399.768 59.9763C399.768 60.5041 399.723 60.9861 399.631 61.4221C399.54 61.8581 399.395 62.2559 399.204 62.6001C399.014 62.952 398.77 63.2656 398.465 63.541C398.228 63.7552 397.969 63.9235 397.694 64.0535C397.412 64.1835 397.115 64.2753 396.795 64.3212C396.474 64.3748 396.108 64.3977 395.704 64.3977H393.386C393.058 64.3977 392.814 64.3518 392.654 64.2524C392.487 64.1529 392.38 64.0153 392.334 63.8393C392.288 63.6634 392.258 63.4262 392.258 63.1432V56.6794C392.258 56.2969 392.342 56.0139 392.517 55.8456C392.685 55.6697 392.967 55.5855 393.348 55.5855ZM394.034 57.0007V62.9826H395.384C395.681 62.9826 395.91 62.9749 396.078 62.9596C396.246 62.9443 396.421 62.9061 396.596 62.8372C396.779 62.776 396.932 62.6842 397.062 62.5695C397.656 62.0646 397.954 61.1926 397.954 59.961C397.954 59.089 397.824 58.4388 397.565 58.0027C397.306 57.5667 396.978 57.2913 396.596 57.1766C396.215 57.0619 395.75 57.0007 395.209 57.0007H394.034Z" fill="white"/>
</svg>
