<svg width="241" height="38" viewBox="0 0 241 38" fill="none" xmlns="http://www.w3.org/2000/svg">
<path d="M48.6488 31.3185C48.6488 31.6494 48.564 31.9424 48.3943 32.2071C48.2247 32.4718 47.975 32.6751 47.6499 32.8263C47.3248 32.9776 46.9384 33.0485 46.4908 33.0485C45.9537 33.0485 45.5108 32.9492 45.1621 32.746C44.9171 32.5995 44.7145 32.4057 44.559 32.1599C44.4035 31.9141 44.3281 31.6777 44.3281 31.4461C44.3281 31.3137 44.3752 31.1956 44.4648 31.101C44.559 31.0065 44.6768 30.9592 44.8181 30.9592C44.9359 30.9592 45.0302 30.997 45.115 31.0727C45.1951 31.1483 45.2658 31.257 45.3223 31.4036C45.393 31.5785 45.4684 31.7203 45.5485 31.8384C45.6286 31.9566 45.7416 32.0511 45.8877 32.1268C46.0338 32.2024 46.2222 32.2402 46.4625 32.2402C46.7876 32.2402 47.0515 32.1646 47.2588 32.0133C47.4614 31.8621 47.5651 31.6683 47.5651 31.4414C47.5651 31.2617 47.5085 31.1152 47.4002 31.0018C47.2918 30.8883 47.1504 30.8032 46.9761 30.7418C46.8018 30.6803 46.5709 30.6189 46.2788 30.5527C45.8877 30.4629 45.5626 30.3542 45.2987 30.2313C45.0349 30.1084 44.8276 29.9429 44.6721 29.7302C44.5166 29.5175 44.4412 29.2576 44.4412 28.9408C44.4412 28.6241 44.5213 28.3736 44.6862 28.142C44.8511 27.9104 45.0867 27.7308 45.393 27.6031C45.6992 27.4755 46.0668 27.4141 46.4814 27.4141C46.8159 27.4141 47.1033 27.4566 47.3483 27.537C47.5934 27.622 47.796 27.7308 47.9562 27.8678C48.1164 28.0049 48.2341 28.1515 48.3095 28.3027C48.3849 28.454 48.4226 28.6005 48.4226 28.747C48.4226 28.8794 48.3755 28.9976 48.286 29.1016C48.1917 29.2056 48.0787 29.2576 47.9373 29.2576C47.8101 29.2576 47.7159 29.2245 47.6499 29.163C47.5839 29.1016 47.5133 28.9976 47.4379 28.851C47.3389 28.6478 47.2211 28.4871 47.0845 28.3689C46.9478 28.2554 46.7217 28.194 46.4154 28.194C46.1327 28.194 45.9018 28.2555 45.7275 28.3831C45.5532 28.5107 45.4684 28.6572 45.4684 28.8369C45.4684 28.9456 45.4966 29.0401 45.5579 29.1205C45.6191 29.2008 45.6992 29.267 45.8029 29.3237C45.9066 29.3804 46.0102 29.4277 46.1186 29.4561C46.2269 29.4844 46.4013 29.5364 46.6463 29.5979C46.9526 29.6688 47.2305 29.7491 47.4803 29.8342C47.73 29.9193 47.9373 30.028 48.1116 30.1509C48.286 30.2738 48.4226 30.4298 48.5216 30.6236C48.6205 30.8127 48.6676 31.0443 48.6676 31.3185H48.6488Z" fill="white"/>
<path d="M53.3522 30.8305H52.3439V32.3715C52.3439 32.5936 52.2921 32.7591 52.1884 32.8725C52.0848 32.986 51.9529 33.0427 51.7974 33.0427C51.6419 33.0427 51.5005 32.986 51.3969 32.8725C51.2932 32.7591 51.2461 32.5936 51.2461 32.3762V28.174C51.2461 27.9329 51.3026 27.758 51.411 27.654C51.5241 27.55 51.6984 27.498 51.9387 27.498H53.3522C53.7716 27.498 54.092 27.5311 54.3181 27.5926C54.5396 27.654 54.7328 27.758 54.893 27.8998C55.0532 28.0416 55.1757 28.2213 55.2605 28.4292C55.3453 28.6372 55.3877 28.8736 55.3877 29.1336C55.3877 29.6866 55.2181 30.1073 54.8788 30.3956C54.5396 30.6792 54.0307 30.8258 53.3569 30.8258L53.3522 30.8305ZM53.0837 28.33H52.3439V29.9938H53.0837C53.3428 29.9938 53.5596 29.9655 53.7339 29.9135C53.9082 29.8568 54.0401 29.7717 54.1344 29.6441C54.2239 29.5212 54.271 29.3604 54.271 29.1572C54.271 28.9161 54.2003 28.7223 54.059 28.571C53.8988 28.4103 53.5784 28.33 53.0837 28.33Z" fill="white"/>
<path d="M61.5458 28.3528H59.0674V29.6905H61.3479C61.5175 29.6905 61.64 29.7283 61.7248 29.8039C61.8096 29.8796 61.8473 29.9788 61.8473 30.1017C61.8473 30.2246 61.8049 30.3286 61.7248 30.4043C61.6447 30.4799 61.5175 30.5224 61.3479 30.5224H59.0674V32.0729H61.6306C61.8049 32.0729 61.9321 32.1154 62.0216 32.1958C62.1112 32.2761 62.1536 32.3848 62.1536 32.5172C62.1536 32.6495 62.1112 32.7488 62.0216 32.8292C61.9321 32.9095 61.8049 32.9521 61.6306 32.9521H58.6386C58.3983 32.9521 58.2287 32.9001 58.1203 32.7913C58.012 32.6826 57.9648 32.5125 57.9648 32.2761V28.1779C57.9648 28.0219 57.9884 27.8896 58.0355 27.7903C58.0826 27.691 58.1533 27.6154 58.257 27.5729C58.3606 27.5303 58.4831 27.502 58.6386 27.502H61.5458C61.7201 27.502 61.852 27.5398 61.9368 27.6201C62.0216 27.6958 62.064 27.7997 62.064 27.9274C62.064 28.055 62.0216 28.159 61.9368 28.2393C61.852 28.3197 61.7201 28.3575 61.5458 28.3575V28.3528Z" fill="white"/>
<path d="M68.2723 28.3528H65.7939V29.6905H68.0744C68.244 29.6905 68.3666 29.7283 68.4514 29.8039C68.5362 29.8796 68.5739 29.9788 68.5739 30.1017C68.5739 30.2246 68.5315 30.3286 68.4514 30.4043C68.3713 30.4799 68.244 30.5224 68.0744 30.5224H65.7939V32.0729H68.3571C68.5315 32.0729 68.6587 32.1154 68.7482 32.1958C68.8377 32.2761 68.8801 32.3848 68.8801 32.5172C68.8801 32.6495 68.8377 32.7488 68.7482 32.8292C68.6587 32.9095 68.5315 32.9521 68.3571 32.9521H65.3652C65.1249 32.9521 64.9553 32.9001 64.8469 32.7913C64.7385 32.6826 64.6914 32.5125 64.6914 32.2761V28.1779C64.6914 28.0219 64.715 27.8896 64.7621 27.7903C64.8092 27.691 64.8799 27.6154 64.9835 27.5729C65.0872 27.5303 65.2097 27.502 65.3652 27.502H68.2723C68.4467 27.502 68.5786 27.5398 68.6634 27.6201C68.7482 27.6958 68.7906 27.7997 68.7906 27.9274C68.7906 28.055 68.7482 28.159 68.6634 28.2393C68.5786 28.3197 68.4467 28.3575 68.2723 28.3575V28.3528Z" fill="white"/>
<path d="M72.0957 27.502H73.528C73.9002 27.502 74.2206 27.535 74.4892 27.6059C74.7578 27.6768 74.9981 27.8045 75.2148 27.9983C75.7802 28.4851 76.0629 29.2225 76.0629 30.2152C76.0629 30.5413 76.0347 30.8391 75.9781 31.1086C75.9216 31.378 75.8321 31.6238 75.7143 31.8365C75.5965 32.0539 75.4457 32.2477 75.2572 32.4179C75.1112 32.5503 74.951 32.6543 74.7813 32.7346C74.607 32.815 74.4233 32.8717 74.2254 32.9001C74.0275 32.9331 73.8013 32.9473 73.5516 32.9473H72.1192C71.9166 32.9473 71.7658 32.919 71.6669 32.8575C71.5632 32.7961 71.4973 32.711 71.469 32.6023C71.4407 32.4935 71.4219 32.347 71.4219 32.1721V28.1779C71.4219 27.9416 71.4737 27.7667 71.5821 27.6627C71.6857 27.5539 71.8601 27.502 72.0957 27.502ZM72.5197 28.3764V32.0729H73.3537C73.5374 32.0729 73.6788 32.0681 73.7825 32.0587C73.8861 32.0492 73.9945 32.0256 74.1028 31.983C74.2159 31.9452 74.3102 31.8885 74.3903 31.8176C74.7578 31.5056 74.9415 30.9668 74.9415 30.2057C74.9415 29.6669 74.8614 29.2651 74.7012 28.9956C74.541 28.7262 74.3384 28.556 74.1028 28.4851C73.8673 28.4142 73.5799 28.3764 73.2453 28.3764H72.5197Z" fill="white"/>
<path d="M78.7313 32.3726V28.0806C78.7313 27.8584 78.7831 27.6882 78.8821 27.5795C78.981 27.4661 79.1129 27.4141 79.2731 27.4141C79.4333 27.4141 79.5747 27.4708 79.6736 27.5795C79.7773 27.6882 79.8291 27.8584 79.8291 28.0853V32.3773C79.8291 32.6042 79.7773 32.7696 79.6736 32.8831C79.57 32.9965 79.438 33.0485 79.2731 33.0485C79.1082 33.0485 78.9857 32.9918 78.8821 32.8783C78.7784 32.7649 78.7266 32.5995 78.7266 32.3726H78.7313Z" fill="white"/>
<path d="M84.1581 28.075L86.2737 31.2893V28.0466C86.2737 27.8387 86.3208 27.6779 86.4103 27.574C86.4999 27.47 86.6224 27.418 86.7731 27.418C86.9239 27.418 87.0558 27.47 87.1454 27.574C87.2349 27.6779 87.282 27.8387 87.282 28.0466V32.3339C87.282 32.8114 87.0841 33.0524 86.6883 33.0524C86.5894 33.0524 86.4999 33.0382 86.4198 33.0099C86.3397 32.9815 86.2643 32.9342 86.1983 32.8728C86.1276 32.8113 86.0664 32.7404 86.0051 32.6554C85.9439 32.5703 85.8873 32.4852 85.8261 32.4001L83.7623 29.2236V32.419C83.7623 32.627 83.7152 32.783 83.6163 32.8917C83.522 33.0004 83.3948 33.0524 83.244 33.0524C83.0933 33.0524 82.9661 33.0004 82.8718 32.8917C82.7776 32.783 82.7305 32.627 82.7305 32.4237V28.2215C82.7305 28.0419 82.7493 27.9048 82.7917 27.8008C82.8388 27.6874 82.9189 27.5976 83.0273 27.5267C83.1357 27.4558 83.2535 27.4227 83.3807 27.4227C83.4796 27.4227 83.5644 27.4369 83.6351 27.47C83.7058 27.5031 83.767 27.5456 83.8189 27.6023C83.8707 27.659 83.9272 27.7299 83.9838 27.815C84.0403 27.9001 84.0969 27.9946 84.1581 28.0845V28.075Z" fill="white"/>
<path d="M95.1118 30.734V31.7786C95.1118 31.9157 95.0977 32.0292 95.0694 32.1095C95.0411 32.1899 94.994 32.2655 94.9186 32.3364C94.8479 32.4026 94.7537 32.4688 94.6406 32.5302C94.3108 32.7098 93.9951 32.8374 93.6936 32.9225C93.392 33.0029 93.0575 33.0454 92.6994 33.0454C92.28 33.0454 91.9031 32.9793 91.5591 32.8516C91.2152 32.724 90.9231 32.5349 90.6828 32.2891C90.4425 32.0433 90.254 31.7455 90.1268 31.3957C89.9996 31.046 89.9336 30.6536 89.9336 30.2235C89.9336 29.7933 89.9949 29.4105 90.1221 29.0607C90.2493 28.7061 90.433 28.4083 90.678 28.1626C90.9231 27.9168 91.2199 27.7277 91.5686 27.6001C91.9172 27.4724 92.3177 27.4062 92.7606 27.4062C93.1281 27.4062 93.4485 27.4535 93.7312 27.5528C94.014 27.6521 94.2401 27.7749 94.4145 27.9215C94.5888 28.0727 94.7207 28.2287 94.8102 28.3942C94.8998 28.5596 94.9422 28.7061 94.9422 28.8385C94.9422 28.9756 94.8903 29.0937 94.7867 29.193C94.683 29.2923 94.5605 29.3396 94.4192 29.3396C94.3391 29.3396 94.2637 29.3206 94.193 29.2828C94.1223 29.245 94.0611 29.193 94.0092 29.1268C93.8726 28.9141 93.7595 28.7534 93.6653 28.6447C93.571 28.536 93.4438 28.4414 93.2836 28.3705C93.1234 28.2949 92.9208 28.2571 92.6758 28.2571C92.4308 28.2571 92.1952 28.2996 91.9926 28.3894C91.7947 28.4793 91.6204 28.6069 91.479 28.7723C91.3377 28.9378 91.2293 29.1457 91.1539 29.3868C91.0785 29.6279 91.0409 29.8973 91.0409 30.1951C91.0409 30.8332 91.1869 31.3248 91.479 31.6699C91.7712 32.015 92.1811 32.1851 92.7041 32.1851C92.9585 32.1851 93.1988 32.152 93.4203 32.0859C93.6417 32.0197 93.8726 31.9252 94.0988 31.7975V30.9136H93.2459C93.0386 30.9136 92.8879 30.8805 92.7795 30.8191C92.6758 30.7576 92.624 30.6536 92.624 30.5024C92.624 30.3795 92.6664 30.2802 92.7559 30.1998C92.8454 30.1195 92.9632 30.0817 93.114 30.0817H94.3626C94.5181 30.0817 94.6453 30.0959 94.7537 30.1242C94.8621 30.1526 94.9469 30.214 95.0128 30.3086C95.0788 30.4031 95.1118 30.5449 95.1118 30.734Z" fill="white"/>
<path d="M102.872 30.6209H102.485V32.3698C102.485 32.6014 102.434 32.7716 102.335 32.8803C102.231 32.9891 102.099 33.0458 101.939 33.0458C101.764 33.0458 101.628 32.9891 101.529 32.8756C101.435 32.7622 101.383 32.5967 101.383 32.3746V28.1818C101.383 27.9455 101.435 27.7706 101.543 27.6666C101.651 27.5626 101.821 27.5059 102.057 27.5059H103.847C104.097 27.5059 104.304 27.5153 104.478 27.5389C104.653 27.5579 104.813 27.6051 104.954 27.6666C105.124 27.7375 105.275 27.8415 105.407 27.9738C105.539 28.1062 105.638 28.2622 105.703 28.4418C105.769 28.6214 105.807 28.8058 105.807 29.0043C105.807 29.4108 105.694 29.737 105.463 29.978C105.237 30.2191 104.888 30.394 104.422 30.4933C104.615 30.5972 104.804 30.7532 104.983 30.9518C105.162 31.155 105.317 31.3725 105.458 31.5993C105.6 31.831 105.708 32.0342 105.784 32.2186C105.859 32.4029 105.901 32.5305 105.901 32.6014C105.901 32.6724 105.878 32.7433 105.831 32.8142C105.784 32.8851 105.722 32.9418 105.642 32.9796C105.562 33.0221 105.473 33.041 105.369 33.041C105.246 33.041 105.143 33.0127 105.058 32.956C104.973 32.8992 104.902 32.8236 104.841 32.7338C104.78 32.644 104.7 32.5116 104.596 32.3415L104.153 31.6041C103.993 31.3346 103.852 31.1267 103.729 30.9849C103.602 30.843 103.48 30.7485 103.348 30.6965C103.216 30.6445 103.055 30.6162 102.862 30.6162L102.872 30.6209ZM103.503 28.3331H102.49V29.8315H103.475C103.739 29.8315 103.96 29.8079 104.144 29.7653C104.323 29.718 104.464 29.6424 104.559 29.529C104.653 29.4203 104.7 29.269 104.7 29.0752C104.7 28.9239 104.662 28.7916 104.587 28.6734C104.511 28.5552 104.403 28.4701 104.266 28.4134C104.139 28.3567 103.885 28.3331 103.508 28.3331H103.503Z" fill="white"/>
<path d="M110.896 27.4141C111.462 27.4141 111.942 27.5275 112.348 27.7591C112.753 27.986 113.059 28.3122 113.266 28.7376C113.474 29.163 113.577 29.6546 113.577 30.2266C113.577 30.6473 113.521 31.0301 113.408 31.3752C113.295 31.7203 113.125 32.0181 112.899 32.2686C112.673 32.5238 112.395 32.7129 112.06 32.85C111.73 32.9823 111.349 33.0485 110.925 33.0485C110.501 33.0485 110.119 32.9823 109.784 32.8405C109.45 32.7035 109.167 32.5096 108.941 32.2591C108.715 32.0086 108.545 31.7061 108.432 31.3563C108.319 31.0065 108.258 30.6236 108.258 30.2171C108.258 29.8106 108.319 29.4135 108.437 29.0637C108.555 28.714 108.729 28.4162 108.955 28.1704C109.181 27.9246 109.459 27.7355 109.784 27.6079C110.11 27.4802 110.482 27.4141 110.896 27.4141ZM112.461 30.2171C112.461 29.82 112.395 29.4703 112.267 29.1819C112.14 28.8889 111.957 28.6667 111.716 28.5202C111.476 28.3736 111.203 28.2933 110.896 28.2933C110.675 28.2933 110.472 28.3358 110.289 28.4162C110.105 28.4965 109.94 28.6194 109.808 28.7801C109.676 28.9408 109.568 29.1394 109.488 29.3852C109.407 29.631 109.37 29.9099 109.37 30.2171C109.37 30.5244 109.407 30.808 109.488 31.0585C109.568 31.309 109.676 31.517 109.817 31.6824C109.959 31.8479 110.124 31.9708 110.307 32.0511C110.491 32.1315 110.694 32.174 110.911 32.174C111.193 32.174 111.452 32.1031 111.688 31.9613C111.924 31.8195 112.112 31.6021 112.253 31.309C112.395 31.016 112.461 30.652 112.461 30.2218V30.2171Z" fill="white"/>
<path d="M120.801 31.2334C120.801 31.4083 120.758 31.5926 120.673 31.7959C120.589 31.9991 120.457 32.1977 120.273 32.3915C120.089 32.5853 119.858 32.746 119.571 32.8642C119.288 32.9871 118.954 33.0438 118.577 33.0438C118.289 33.0438 118.03 33.0154 117.795 32.9634C117.559 32.9114 117.347 32.8263 117.154 32.7082C116.961 32.59 116.786 32.4435 116.626 32.2544C116.485 32.0842 116.362 31.8904 116.259 31.6777C116.155 31.465 116.08 31.2381 116.032 31.0018C115.985 30.7654 115.957 30.5054 115.957 30.236C115.957 29.7964 116.023 29.4041 116.145 29.059C116.273 28.714 116.456 28.4162 116.692 28.1704C116.928 27.9246 117.206 27.7355 117.526 27.6079C117.846 27.4802 118.186 27.4141 118.544 27.4141C118.982 27.4141 119.378 27.5039 119.717 27.6788C120.061 27.8537 120.325 28.0711 120.509 28.3311C120.692 28.5911 120.782 28.8369 120.782 29.0637C120.782 29.1914 120.739 29.3001 120.65 29.3994C120.56 29.4939 120.452 29.5459 120.33 29.5459C120.188 29.5459 120.084 29.5128 120.014 29.4466C119.943 29.3805 119.863 29.2623 119.778 29.1016C119.637 28.8321 119.467 28.6289 119.274 28.4965C119.081 28.3642 118.841 28.298 118.558 28.298C118.106 28.298 117.747 28.4682 117.479 28.8132C117.21 29.1583 117.078 29.6452 117.078 30.2833C117.078 30.7087 117.14 31.0585 117.257 31.3421C117.375 31.6257 117.545 31.8337 117.762 31.9708C117.978 32.1079 118.233 32.1788 118.525 32.1788C118.841 32.1788 119.109 32.0984 119.326 31.9424C119.543 31.7864 119.708 31.5548 119.821 31.2476C119.868 31.1058 119.924 30.9876 119.995 30.8978C120.066 30.808 120.174 30.7607 120.33 30.7607C120.461 30.7607 120.575 30.808 120.669 30.8978C120.763 30.9876 120.81 31.1058 120.81 31.2381L120.801 31.2334Z" fill="white"/>
<path d="M124.563 28.0791V29.9888L126.721 27.7293C126.825 27.6206 126.915 27.5402 126.985 27.4882C127.056 27.4363 127.155 27.4079 127.277 27.4079C127.438 27.4079 127.565 27.4552 127.659 27.545C127.758 27.6395 127.805 27.753 127.805 27.8853C127.805 28.046 127.72 28.2067 127.555 28.3627L126.217 29.6343L127.758 31.8512C127.866 32.0072 127.947 32.1395 128.003 32.253C128.06 32.3664 128.083 32.4798 128.083 32.5886C128.083 32.7115 128.036 32.8155 127.942 32.9053C127.848 32.9951 127.716 33.0376 127.555 33.0376C127.4 33.0376 127.277 33.0045 127.183 32.9384C127.089 32.8722 127.004 32.7871 126.938 32.6784C126.872 32.5697 126.811 32.4704 126.759 32.3806L125.459 30.3717L124.559 31.2367V32.3617C124.559 32.5886 124.507 32.7587 124.403 32.8674C124.3 32.9762 124.168 33.0329 124.003 33.0329C123.909 33.0329 123.819 33.0093 123.734 32.9573C123.649 32.9053 123.579 32.8391 123.532 32.754C123.499 32.6831 123.475 32.6027 123.47 32.5129C123.461 32.4231 123.461 32.2908 123.461 32.1159V28.0649C123.461 27.8428 123.508 27.6726 123.607 27.5639C123.706 27.4552 123.838 27.3984 124.007 27.3984C124.177 27.3984 124.309 27.4552 124.408 27.5639C124.507 27.6726 124.563 27.8428 124.563 28.0697V28.0791Z" fill="white"/>
<path d="M134.315 28.3528H131.837V29.6905H134.117C134.287 29.6905 134.41 29.7283 134.494 29.8039C134.579 29.8796 134.617 29.9788 134.617 30.1017C134.617 30.2246 134.574 30.3286 134.494 30.4043C134.414 30.4799 134.287 30.5224 134.117 30.5224H131.837V32.0729H134.4C134.574 32.0729 134.702 32.1154 134.791 32.1958C134.881 32.2761 134.923 32.3848 134.923 32.5172C134.923 32.6495 134.881 32.7488 134.791 32.8292C134.702 32.9095 134.574 32.9521 134.4 32.9521H131.408C131.168 32.9521 130.998 32.9001 130.89 32.7913C130.781 32.6826 130.734 32.5125 130.734 32.2761V28.1779C130.734 28.0219 130.758 27.8896 130.805 27.7903C130.852 27.691 130.923 27.6154 131.026 27.5729C131.13 27.5303 131.253 27.502 131.408 27.502H134.315C134.49 27.502 134.622 27.5398 134.706 27.6201C134.791 27.6958 134.834 27.7997 134.834 27.9274C134.834 28.055 134.791 28.159 134.706 28.2393C134.622 28.3197 134.49 28.3575 134.315 28.3575V28.3528Z" fill="white"/>
<path d="M140.986 28.4142H139.785V32.3706C139.785 32.5975 139.733 32.7677 139.634 32.8764C139.535 32.9851 139.403 33.0419 139.243 33.0419C139.083 33.0419 138.946 32.9851 138.843 32.8764C138.739 32.7677 138.687 32.5975 138.687 32.3706V28.4142H137.486C137.297 28.4142 137.161 28.3717 137.066 28.2913C136.977 28.2063 136.93 28.0975 136.93 27.9605C136.93 27.8234 136.977 27.7099 137.071 27.6248C137.165 27.5445 137.302 27.502 137.486 27.502H140.982C141.17 27.502 141.312 27.5445 141.406 27.6296C141.5 27.7147 141.542 27.8234 141.542 27.9605C141.542 28.0975 141.495 28.2063 141.401 28.2913C141.307 28.3764 141.166 28.4142 140.977 28.4142H140.986Z" fill="white"/>
<path d="M152.055 31.2334C152.055 31.4083 152.012 31.5926 151.927 31.7959C151.843 31.9991 151.711 32.1977 151.527 32.3915C151.343 32.5853 151.112 32.746 150.825 32.8642C150.542 32.9871 150.208 33.0438 149.831 33.0438C149.543 33.0438 149.284 33.0154 149.049 32.9634C148.813 32.9114 148.601 32.8263 148.408 32.7082C148.215 32.59 148.04 32.4435 147.88 32.2544C147.739 32.0842 147.616 31.8904 147.512 31.6777C147.409 31.465 147.333 31.2381 147.286 31.0018C147.239 30.7654 147.211 30.5054 147.211 30.236C147.211 29.7964 147.277 29.4041 147.399 29.059C147.527 28.714 147.71 28.4162 147.946 28.1704C148.182 27.9246 148.46 27.7355 148.78 27.6079C149.1 27.4802 149.44 27.4141 149.798 27.4141C150.236 27.4141 150.632 27.5039 150.971 27.6788C151.315 27.8537 151.579 28.0711 151.762 28.3311C151.946 28.5911 152.036 28.8369 152.036 29.0637C152.036 29.1914 151.993 29.3001 151.904 29.3994C151.814 29.4939 151.706 29.5459 151.583 29.5459C151.442 29.5459 151.338 29.5128 151.268 29.4466C151.197 29.3805 151.117 29.2623 151.032 29.1016C150.891 28.8321 150.721 28.6289 150.528 28.4965C150.335 28.3642 150.095 28.298 149.812 28.298C149.359 28.298 149.001 28.4682 148.733 28.8132C148.464 29.1583 148.332 29.6452 148.332 30.2833C148.332 30.7087 148.394 31.0585 148.511 31.3421C148.629 31.6257 148.799 31.8337 149.016 31.9708C149.232 32.1079 149.487 32.1788 149.779 32.1788C150.095 32.1788 150.363 32.0984 150.58 31.9424C150.797 31.7864 150.961 31.5548 151.075 31.2476C151.122 31.1058 151.178 30.9876 151.249 30.8978C151.32 30.808 151.428 30.7607 151.583 30.7607C151.715 30.7607 151.828 30.808 151.923 30.8978C152.017 30.9876 152.064 31.1058 152.064 31.2381L152.055 31.2334Z" fill="white"/>
<path d="M157.092 27.4141C157.657 27.4141 158.138 27.5275 158.543 27.7591C158.948 27.986 159.254 28.3122 159.462 28.7376C159.669 29.163 159.773 29.6546 159.773 30.2266C159.773 30.6473 159.716 31.0301 159.603 31.3752C159.49 31.7203 159.32 32.0181 159.094 32.2686C158.868 32.5238 158.59 32.7129 158.255 32.85C157.926 32.9823 157.544 33.0485 157.12 33.0485C156.696 33.0485 156.314 32.9823 155.98 32.8405C155.645 32.7035 155.362 32.5096 155.136 32.2591C154.91 32.0086 154.741 31.7061 154.627 31.3563C154.514 31.0065 154.453 30.6236 154.453 30.2171C154.453 29.8106 154.514 29.4135 154.632 29.0637C154.75 28.714 154.924 28.4162 155.15 28.1704C155.377 27.9246 155.655 27.7355 155.98 27.6079C156.305 27.4802 156.677 27.4141 157.092 27.4141ZM158.656 30.2171C158.656 29.82 158.59 29.4703 158.463 29.1819C158.336 28.8889 158.152 28.6667 157.912 28.5202C157.671 28.3736 157.398 28.2933 157.092 28.2933C156.87 28.2933 156.668 28.3358 156.484 28.4162C156.3 28.4965 156.135 28.6194 156.003 28.7801C155.871 28.9408 155.763 29.1394 155.683 29.3852C155.603 29.631 155.565 29.9099 155.565 30.2171C155.565 30.5244 155.603 30.808 155.683 31.0585C155.763 31.309 155.871 31.517 156.013 31.6824C156.154 31.8479 156.319 31.9708 156.503 32.0511C156.686 32.1315 156.889 32.174 157.106 32.174C157.389 32.174 157.648 32.1031 157.883 31.9613C158.119 31.8195 158.307 31.6021 158.449 31.309C158.59 31.016 158.656 30.652 158.656 30.2218V30.2171Z" fill="white"/>
<path d="M164.212 32.1296L163.34 28.66V32.4226C163.34 32.6306 163.293 32.7866 163.204 32.8906C163.109 32.9946 162.987 33.0466 162.836 33.0466C162.685 33.0466 162.568 32.9946 162.473 32.8906C162.379 32.7866 162.332 32.6306 162.332 32.4179V28.107C162.332 27.8706 162.393 27.7099 162.516 27.6248C162.638 27.5398 162.808 27.502 163.015 27.502H163.354C163.562 27.502 163.708 27.5209 163.802 27.5587C163.896 27.5965 163.962 27.6627 164.009 27.7619C164.052 27.8565 164.104 28.0172 164.16 28.2346L164.952 31.222L165.739 28.2346C165.795 28.0172 165.847 27.8612 165.889 27.7619C165.932 27.6674 166.002 27.5965 166.097 27.5587C166.191 27.5209 166.337 27.502 166.544 27.502H166.884C167.096 27.502 167.261 27.5445 167.383 27.6248C167.506 27.7052 167.567 27.8659 167.567 28.107V32.4179C167.567 32.6259 167.52 32.7819 167.43 32.8859C167.336 32.9899 167.213 33.0419 167.058 33.0419C166.912 33.0419 166.794 32.9899 166.7 32.8859C166.606 32.7819 166.558 32.6259 166.558 32.4179V28.6553L165.687 32.1249C165.63 32.3517 165.583 32.5172 165.55 32.6212C165.517 32.7252 165.446 32.8244 165.352 32.9095C165.258 32.9946 165.121 33.0371 164.952 33.0371C164.825 33.0371 164.716 33.0088 164.627 32.9521C164.537 32.8953 164.466 32.8244 164.419 32.7393C164.367 32.6543 164.33 32.555 164.302 32.451C164.273 32.347 164.245 32.2383 164.217 32.1201L164.212 32.1296Z" fill="white"/>
<path d="M172.462 30.8305H171.453V32.3715C171.453 32.5936 171.401 32.7591 171.298 32.8725C171.194 32.986 171.062 33.0427 170.907 33.0427C170.751 33.0427 170.61 32.986 170.506 32.8725C170.403 32.7591 170.355 32.5936 170.355 32.3762V28.174C170.355 27.9329 170.412 27.758 170.52 27.654C170.633 27.55 170.808 27.498 171.048 27.498H172.462C172.881 27.498 173.201 27.5311 173.428 27.5926C173.649 27.654 173.842 27.758 174.002 27.8998C174.163 28.0416 174.285 28.2213 174.37 28.4292C174.455 28.6372 174.497 28.8736 174.497 29.1336C174.497 29.6866 174.327 30.1073 173.988 30.3956C173.649 30.6792 173.14 30.8258 172.466 30.8258L172.462 30.8305ZM172.193 28.33H171.453V29.9938H172.193C172.452 29.9938 172.669 29.9655 172.843 29.9135C173.018 29.8568 173.15 29.7717 173.244 29.6441C173.333 29.5212 173.38 29.3604 173.38 29.1572C173.38 28.9161 173.31 28.7223 173.168 28.571C173.008 28.4103 172.688 28.33 172.193 28.33Z" fill="white"/>
<path d="M179.892 32.3387L179.633 31.6533H177.423L177.164 32.3528C177.06 32.627 176.975 32.8113 176.905 32.9059C176.834 33.0004 176.716 33.0477 176.551 33.0477C176.415 33.0477 176.292 32.9957 176.184 32.8964C176.075 32.7972 176.023 32.679 176.023 32.5514C176.023 32.4757 176.038 32.4001 176.061 32.3198C176.085 32.2394 176.127 32.1307 176.184 31.9889L177.574 28.4484C177.611 28.3492 177.658 28.2263 177.715 28.0845C177.771 27.9427 177.828 27.8245 177.894 27.7299C177.955 27.6354 178.04 27.5598 178.144 27.5031C178.247 27.4463 178.375 27.418 178.525 27.418C178.676 27.418 178.808 27.4463 178.907 27.5031C179.006 27.5598 179.091 27.6354 179.157 27.7299C179.218 27.8198 179.275 27.919 179.317 28.0277C179.359 28.1317 179.416 28.2735 179.482 28.4484L180.9 31.9652C181.013 32.2347 181.065 32.4285 181.065 32.5466C181.065 32.6648 181.013 32.7877 180.909 32.8964C180.806 33.0004 180.679 33.0524 180.528 33.0524C180.443 33.0524 180.368 33.0382 180.306 33.0052C180.245 32.9721 180.193 32.9342 180.151 32.8775C180.108 32.8255 180.066 32.7404 180.014 32.6317C179.967 32.523 179.925 32.4237 179.892 32.3387ZM177.715 30.8261H179.336L178.516 28.5761L177.71 30.8261H177.715Z" fill="white"/>
<path d="M184.963 28.075L187.078 31.2893V28.0466C187.078 27.8387 187.125 27.6779 187.215 27.574C187.305 27.47 187.427 27.418 187.578 27.418C187.729 27.418 187.861 27.47 187.95 27.574C188.04 27.6779 188.087 27.8387 188.087 28.0466V32.3339C188.087 32.8114 187.889 33.0524 187.493 33.0524C187.394 33.0524 187.305 33.0382 187.224 33.0099C187.144 32.9815 187.069 32.9342 187.003 32.8728C186.932 32.8113 186.871 32.7404 186.81 32.6554C186.749 32.5703 186.692 32.4852 186.631 32.4001L184.567 29.2236V32.419C184.567 32.627 184.52 32.783 184.421 32.8917C184.327 33.0004 184.2 33.0524 184.049 33.0524C183.898 33.0524 183.771 33.0004 183.677 32.8917C183.582 32.783 183.535 32.627 183.535 32.4237V28.2215C183.535 28.0419 183.554 27.9048 183.596 27.8008C183.644 27.6874 183.724 27.5976 183.832 27.5267C183.94 27.4558 184.058 27.4227 184.185 27.4227C184.284 27.4227 184.369 27.4369 184.44 27.47C184.51 27.5031 184.572 27.5456 184.624 27.6023C184.675 27.659 184.732 27.7299 184.788 27.815C184.845 27.9001 184.902 27.9946 184.963 28.0845V28.075Z" fill="white"/>
<path d="M192.168 32.3695V30.6394L190.839 28.5738C190.721 28.3894 190.641 28.2429 190.594 28.1389C190.547 28.0349 190.523 27.9451 190.523 27.8695C190.523 27.7419 190.571 27.6331 190.669 27.5433C190.768 27.4535 190.886 27.4062 191.032 27.4062C191.183 27.4062 191.296 27.4488 191.376 27.5339C191.456 27.619 191.569 27.7891 191.725 28.0444L192.738 29.6988L193.765 28.0444C193.826 27.9404 193.878 27.8553 193.921 27.7891C193.963 27.7182 194.01 27.6568 194.062 27.5953C194.114 27.5339 194.17 27.4866 194.232 27.4535C194.293 27.4204 194.368 27.4062 194.458 27.4062C194.594 27.4062 194.712 27.4488 194.806 27.5433C194.901 27.6331 194.943 27.7371 194.943 27.8553C194.943 27.9498 194.919 28.0491 194.872 28.1436C194.825 28.2382 194.745 28.3753 194.632 28.5454L193.27 30.6394V32.3695C193.27 32.5964 193.219 32.7618 193.115 32.8753C193.011 32.9887 192.879 33.0407 192.719 33.0407C192.559 33.0407 192.422 32.984 192.323 32.8753C192.224 32.7665 192.173 32.5964 192.173 32.3695H192.168Z" fill="white"/>
<path d="M202.001 28.0806V32.0464H204.23C204.409 32.0464 204.545 32.089 204.64 32.1788C204.734 32.2639 204.781 32.3726 204.781 32.5049C204.781 32.6373 204.734 32.746 204.64 32.8311C204.545 32.9162 204.409 32.954 204.23 32.954H201.572C201.332 32.954 201.162 32.902 201.054 32.7933C200.946 32.6845 200.898 32.5144 200.898 32.278V28.0806C200.898 27.8584 200.95 27.6882 201.049 27.5795C201.148 27.4708 201.28 27.4141 201.445 27.4141C201.61 27.4141 201.747 27.4708 201.845 27.5795C201.944 27.6882 202.001 27.8584 202.001 28.0853V28.0806Z" fill="white"/>
<path d="M207.212 32.3726V28.0806C207.212 27.8584 207.264 27.6882 207.363 27.5795C207.461 27.4661 207.593 27.4141 207.754 27.4141C207.914 27.4141 208.055 27.4708 208.154 27.5795C208.258 27.6882 208.31 27.8584 208.31 28.0853V32.3773C208.31 32.6042 208.258 32.7696 208.154 32.8831C208.05 32.9965 207.918 33.0485 207.754 33.0485C207.589 33.0485 207.466 32.9918 207.363 32.8783C207.259 32.7649 207.207 32.5995 207.207 32.3726H207.212Z" fill="white"/>
<path d="M213.04 32.1296L212.168 28.66V32.4226C212.168 32.6306 212.121 32.7866 212.032 32.8906C211.938 32.9946 211.815 33.0466 211.664 33.0466C211.514 33.0466 211.396 32.9946 211.302 32.8906C211.207 32.7866 211.16 32.6306 211.16 32.4179V28.107C211.16 27.8706 211.221 27.7099 211.344 27.6248C211.466 27.5398 211.636 27.502 211.843 27.502H212.183C212.39 27.502 212.536 27.5209 212.63 27.5587C212.724 27.5965 212.79 27.6627 212.838 27.7619C212.88 27.8565 212.932 28.0172 212.988 28.2346L213.78 31.222L214.567 28.2346C214.623 28.0172 214.675 27.8612 214.718 27.7619C214.76 27.6674 214.831 27.5965 214.925 27.5587C215.019 27.5209 215.165 27.502 215.372 27.502H215.712C215.924 27.502 216.089 27.5445 216.211 27.6248C216.334 27.7052 216.395 27.8659 216.395 28.107V32.4179C216.395 32.6259 216.348 32.7819 216.258 32.8859C216.164 32.9899 216.042 33.0419 215.886 33.0419C215.74 33.0419 215.622 32.9899 215.528 32.8859C215.434 32.7819 215.387 32.6259 215.387 32.4179V28.6553L214.515 32.1249C214.458 32.3517 214.411 32.5172 214.378 32.6212C214.345 32.7252 214.275 32.8244 214.18 32.9095C214.086 32.9946 213.95 33.0371 213.78 33.0371C213.653 33.0371 213.544 33.0088 213.455 32.9521C213.365 32.8953 213.295 32.8244 213.247 32.7393C213.196 32.6543 213.158 32.555 213.13 32.451C213.101 32.347 213.073 32.2383 213.045 32.1201L213.04 32.1296Z" fill="white"/>
<path d="M219.231 32.3726V28.0806C219.231 27.8584 219.283 27.6882 219.382 27.5795C219.481 27.4661 219.613 27.4141 219.773 27.4141C219.933 27.4141 220.075 27.4708 220.174 27.5795C220.277 27.6882 220.329 27.8584 220.329 28.0853V32.3773C220.329 32.6042 220.277 32.7696 220.174 32.8831C220.07 32.9965 219.938 33.0485 219.773 33.0485C219.608 33.0485 219.486 32.9918 219.382 32.8783C219.278 32.7649 219.227 32.5995 219.227 32.3726H219.231Z" fill="white"/>
<path d="M226.756 28.4142H225.555V32.3706C225.555 32.5975 225.503 32.7677 225.404 32.8764C225.305 32.9851 225.173 33.0419 225.013 33.0419C224.852 33.0419 224.716 32.9851 224.612 32.8764C224.509 32.7677 224.457 32.5975 224.457 32.3706V28.4142H223.255C223.067 28.4142 222.93 28.3717 222.836 28.2913C222.746 28.2063 222.699 28.0975 222.699 27.9605C222.699 27.8234 222.746 27.7099 222.841 27.6248C222.935 27.5445 223.071 27.502 223.255 27.502H226.751C226.94 27.502 227.081 27.5445 227.175 27.6296C227.27 27.7147 227.312 27.8234 227.312 27.9605C227.312 28.0975 227.265 28.2063 227.171 28.2913C227.076 28.3764 226.935 28.4142 226.747 28.4142H226.756Z" fill="white"/>
<path d="M233.21 28.3528H230.731V29.6905H233.012C233.182 29.6905 233.304 29.7283 233.389 29.8039C233.474 29.8796 233.511 29.9788 233.511 30.1017C233.511 30.2246 233.469 30.3286 233.389 30.4043C233.309 30.4799 233.182 30.5224 233.012 30.5224H230.731V32.0729H233.295C233.469 32.0729 233.596 32.1154 233.686 32.1958C233.775 32.2761 233.818 32.3848 233.818 32.5172C233.818 32.6495 233.775 32.7488 233.686 32.8292C233.596 32.9095 233.469 32.9521 233.295 32.9521H230.303C230.062 32.9521 229.893 32.9001 229.784 32.7913C229.676 32.6826 229.629 32.5125 229.629 32.2761V28.1779C229.629 28.0219 229.652 27.8896 229.7 27.7903C229.747 27.691 229.817 27.6154 229.921 27.5729C230.025 27.5303 230.147 27.502 230.303 27.502H233.21C233.384 27.502 233.516 27.5398 233.601 27.6201C233.686 27.6958 233.728 27.7997 233.728 27.9274C233.728 28.055 233.686 28.159 233.601 28.2393C233.516 28.3197 233.384 28.3575 233.21 28.3575V28.3528Z" fill="white"/>
<path d="M237.033 27.502H238.466C238.838 27.502 239.158 27.535 239.427 27.6059C239.695 27.6768 239.936 27.8045 240.152 27.9983C240.718 28.4851 241 29.2225 241 30.2152C241 30.5413 240.972 30.8391 240.916 31.1086C240.859 31.378 240.77 31.6238 240.652 31.8365C240.534 32.0539 240.383 32.2477 240.195 32.4179C240.049 32.5503 239.888 32.6543 239.719 32.7346C239.545 32.815 239.361 32.8717 239.163 32.9001C238.965 32.9331 238.739 32.9473 238.489 32.9473H237.057C236.854 32.9473 236.703 32.919 236.604 32.8575C236.501 32.7961 236.435 32.711 236.406 32.6023C236.378 32.4935 236.359 32.347 236.359 32.1721V28.1779C236.359 27.9416 236.411 27.7667 236.52 27.6627C236.623 27.5539 236.798 27.502 237.033 27.502ZM237.457 28.3764V32.0729H238.291C238.475 32.0729 238.616 32.0681 238.72 32.0587C238.824 32.0492 238.932 32.0256 239.04 31.983C239.153 31.9452 239.248 31.8885 239.328 31.8176C239.695 31.5056 239.879 30.9668 239.879 30.2057C239.879 29.6669 239.799 29.2651 239.639 28.9956C239.479 28.7262 239.276 28.556 239.04 28.4851C238.805 28.4142 238.517 28.3764 238.183 28.3764H237.457Z" fill="white"/>
<path d="M62.4889 19.3595V19.6999C62.4889 19.9268 62.4794 20.2056 62.47 20.5413C62.4559 20.8769 62.4182 21.1605 62.3522 21.4016C62.2438 21.8412 61.9988 22.172 61.603 22.3895C61.212 22.6069 60.8021 22.7345 60.378 22.7582C60.2602 22.7724 60.0812 22.7771 59.8503 22.7771H59.0917C58.8184 22.7771 58.5451 22.7771 58.2671 22.7676C57.9891 22.7582 57.7441 22.7582 57.5321 22.7582C56.5097 22.7298 55.7888 22.4698 55.3694 21.9688C54.9501 21.4677 54.7428 20.8012 54.7428 19.9599V13.8622H51.8922C51.9581 13.9709 51.9911 14.0796 51.9911 14.2025C51.9911 15.4551 51.7932 16.5659 51.3927 17.5302C50.9922 18.4945 50.4881 19.3359 49.8661 20.0497C49.2489 20.7634 48.5751 21.3496 47.8448 21.8081C47.1145 22.2666 46.4218 22.6164 45.7716 22.8574C45.6114 22.9236 45.4701 22.9472 45.3429 22.9283C45.2156 22.9094 45.1261 22.8716 45.0743 22.8196C44.8764 22.6731 44.768 22.4935 44.7539 22.2808C44.7398 22.0397 44.8387 21.8553 45.0507 21.723C45.6491 21.3779 46.2381 20.9714 46.8223 20.5129C47.4066 20.0544 47.9343 19.5108 48.4055 18.8821C48.8767 18.2582 49.2536 17.535 49.541 16.7125C49.8284 15.8947 49.9698 14.9446 49.9698 13.8622H45.3287C44.9565 13.8622 44.7492 13.7676 44.7115 13.5833C44.6832 13.4651 44.6738 13.328 44.6832 13.172C44.6926 13.0161 44.7068 12.8837 44.7351 12.7608C44.7633 12.6568 44.8293 12.5859 44.9329 12.5528C45.0413 12.5197 45.1732 12.5008 45.3334 12.5008H52.6837V5.80282C52.6837 5.60429 52.7356 5.46248 52.8439 5.38212C52.9523 5.30177 53.0513 5.24977 53.1408 5.22141C53.3387 5.19305 53.513 5.18359 53.6591 5.18359C53.8051 5.18359 53.9559 5.19777 54.1161 5.22141C54.2198 5.24977 54.3234 5.31122 54.4224 5.41049C54.5213 5.50975 54.5731 5.6421 54.5731 5.79809V12.4961H61.8669C61.9988 12.4961 62.1166 12.515 62.2156 12.5575C62.3145 12.6001 62.3758 12.671 62.404 12.775C62.4323 12.8837 62.4417 13.0161 62.4417 13.1768C62.4417 13.3375 62.4276 13.4698 62.404 13.5786C62.3758 13.6873 62.3145 13.7582 62.2156 13.796C62.1166 13.8338 61.9988 13.8574 61.8669 13.8574H56.6652V19.9551C56.6652 20.3144 56.75 20.5933 56.9243 20.7823C57.0986 20.9714 57.4237 21.0849 57.8996 21.1132C58.2577 21.1416 58.6158 21.151 58.9739 21.1416C59.332 21.1368 59.7513 21.1179 60.2272 21.0896C60.4251 21.0754 60.59 20.995 60.7172 20.8485C60.8445 20.702 60.9151 20.598 60.9246 20.5271C60.9905 20.2718 61.0471 20.0638 61.0942 19.8984C61.1413 19.733 61.1837 19.5344 61.2261 19.3075C61.2402 19.213 61.2874 19.1232 61.3675 19.0287C61.4476 18.9341 61.5277 18.8821 61.6078 18.8679C61.7255 18.8396 61.8292 18.8349 61.9187 18.849C62.0035 18.8632 62.0695 18.8679 62.1072 18.8679C62.2156 18.8821 62.3051 18.9341 62.3758 19.0287C62.4464 19.1232 62.4841 19.2272 62.4841 19.3501L62.4889 19.3595ZM48.561 11.286C48.4432 10.9268 48.3113 10.5817 48.1746 10.2555C48.0333 9.92939 47.8825 9.58906 47.7176 9.23454C47.5527 8.88002 47.3642 8.49714 47.1475 8.0859C46.9307 7.67467 46.6951 7.19252 46.4313 6.64893C46.3135 6.40786 46.337 6.2046 46.5114 6.02971C46.5773 5.96353 46.6292 5.91154 46.6716 5.87845C46.714 5.84536 46.7799 5.817 46.8695 5.78864C46.9637 5.75082 47.0674 5.72719 47.1899 5.72719C47.3124 5.72719 47.4207 5.77918 47.5291 5.8879C47.7835 6.15261 48.0615 6.48349 48.3678 6.87582C48.6741 7.26815 48.9662 7.68412 49.2442 8.12372C49.5222 8.56332 49.7766 8.99819 50.0028 9.43307C50.2289 9.86794 50.3938 10.2508 50.5022 10.5817C50.5682 10.7802 50.5635 10.9599 50.4928 11.1111C50.4221 11.2624 50.309 11.39 50.163 11.4798C49.9227 11.6263 49.6729 11.7114 49.4044 11.7398C48.9803 11.806 48.7023 11.6547 48.5657 11.2813L48.561 11.286ZM57.028 11.7256C56.962 11.6972 56.9007 11.6594 56.8395 11.6074C56.7782 11.5554 56.717 11.4751 56.651 11.3664C56.5568 11.1915 56.5851 11.0071 56.7311 10.8086C56.9431 10.5675 57.1787 10.2697 57.4379 9.91048C57.697 9.55124 57.9562 9.16364 58.2153 8.7524C58.4745 8.34116 58.7242 7.92519 58.9645 7.5045C59.2048 7.0838 59.4168 6.6962 59.6006 6.33696C59.7749 5.96353 60.067 5.83591 60.4769 5.9588C60.6513 6.02498 60.7973 6.09116 60.9151 6.15733C61.0329 6.22351 61.146 6.31805 61.2544 6.43622C61.4805 6.66311 61.5135 6.93727 61.3533 7.25397C61.1931 7.56122 60.9764 7.91101 60.7078 8.3128C60.4345 8.71458 60.1377 9.11637 59.8126 9.52288C59.4875 9.92939 59.1388 10.317 58.7666 10.6904C58.3944 11.0638 58.0316 11.3758 57.6735 11.6311C57.5274 11.7398 57.4096 11.7965 57.3154 11.8012C57.2211 11.8107 57.1269 11.7871 57.0374 11.7303L57.028 11.7256Z" fill="white"/>
<path d="M82.454 21.2522C82.4917 21.3845 82.5011 21.5641 82.4728 21.791C82.4445 22.0179 82.4069 22.1834 82.355 22.2921C82.3032 22.4103 82.2043 22.5001 82.0676 22.5521C81.931 22.6041 81.7802 22.6371 81.62 22.6513H77.2758C76.9318 22.6513 76.5266 22.6419 76.0602 22.6324C75.5937 22.6182 75.099 22.5899 74.576 22.5426C74.053 22.4953 73.5111 22.4339 72.9504 22.363C72.3897 22.2921 71.8432 22.1928 71.2966 22.0746C71.0327 22.0226 70.6699 21.8997 70.2223 21.7154C69.7747 21.531 69.3742 21.3278 69.0255 21.1151C68.8795 21.0347 68.7617 20.9827 68.6675 20.9638C68.5732 20.9449 68.4696 20.9875 68.347 21.0962C68.2387 21.2143 68.0691 21.3656 67.8382 21.5452C67.6073 21.7249 67.3529 21.9092 67.0796 22.0935C66.8063 22.2779 66.5425 22.4481 66.2833 22.6041C66.0242 22.76 65.8169 22.8688 65.6567 22.9349C65.5389 23.0011 65.4116 23.0342 65.2797 23.0342C65.1478 23.0342 65.0536 23.0058 65.0017 22.9538C64.9358 22.9018 64.8839 22.8593 64.8415 22.8215C64.7991 22.7837 64.7567 22.727 64.7002 22.6324C64.6483 22.5521 64.6248 22.4575 64.6295 22.3535C64.6342 22.2495 64.6907 22.155 64.7991 22.0746C65.0771 21.8619 65.3787 21.6445 65.7038 21.4271C66.0289 21.2096 66.3304 20.9402 66.6084 20.6282C66.8864 20.3162 67.1173 19.9475 67.3058 19.5268C67.4942 19.1062 67.5838 18.5909 67.5838 17.9764V16.0384C67.5838 15.8919 67.5131 15.7737 67.3764 15.6886C67.2398 15.6035 67.1126 15.5563 67.0089 15.5563H65.4729C65.2609 15.5563 65.1007 15.5137 64.997 15.4286C64.8934 15.3436 64.8227 15.2348 64.7897 15.1072C64.7567 14.9796 64.752 14.8567 64.7803 14.7291C64.8085 14.6014 64.851 14.4974 64.9216 14.4171C64.9593 14.3651 65.0912 14.2233 65.308 13.9964C65.5247 13.7695 65.765 13.4953 66.0242 13.1786C66.2833 12.8619 66.533 12.5074 66.7733 12.1293C67.0136 11.7511 67.1738 11.3777 67.2492 11.0184C67.2775 10.9097 67.2445 10.8246 67.1503 10.7585C67.056 10.6923 66.9759 10.6592 66.91 10.6592H65.3174C65.0912 10.6592 64.9452 10.5788 64.8792 10.4181C64.8274 10.1771 64.8274 9.9738 64.8792 9.79891C64.9169 9.70437 64.9687 9.63819 65.03 9.60038C65.0912 9.56256 65.1949 9.53893 65.341 9.53893H65.8781C66.1844 9.53893 66.5142 9.53893 66.8629 9.52948C67.2162 9.52475 67.5413 9.52002 67.8476 9.52002H68.4271C68.6015 9.52002 68.757 9.55784 68.903 9.6382C69.0491 9.71855 69.1669 9.81309 69.2611 9.92653C69.3554 10.04 69.4213 10.1629 69.459 10.2952C69.4967 10.4276 69.4967 10.5505 69.459 10.6545C69.313 11.0799 69.0962 11.4911 68.8135 11.8835C68.5261 12.2758 68.2293 12.635 67.9183 12.9612C67.6073 13.2874 67.3152 13.5662 67.0419 13.7884C66.7686 14.0153 66.5802 14.1666 66.4718 14.2469H67.9466C68.3989 14.2327 68.7475 14.3604 69.002 14.6251C69.1198 14.7432 69.2093 14.885 69.2611 15.0458C69.313 15.2065 69.3459 15.3766 69.3601 15.5657V16.0242C69.3601 16.1849 69.3506 16.3362 69.3412 16.4827L69.28 18.0237C69.2517 18.2364 69.2234 18.4491 69.1905 18.6618C69.1575 18.8745 69.1198 19.0731 69.0821 19.2621C69.0538 19.3709 69.0303 19.4701 69.002 19.5741C68.9737 19.6781 68.9502 19.7726 68.9219 19.8625C69.0397 19.8908 69.1433 19.9192 69.2329 19.9523C69.3177 19.9854 69.3931 20.0137 69.4637 20.0421C69.8501 20.1744 70.2129 20.2879 70.5569 20.3824C70.9008 20.477 71.2636 20.5526 71.6453 20.614C72.0222 20.6755 72.4368 20.7228 72.8797 20.7558C73.3226 20.7889 73.8409 20.8078 74.4252 20.8078L78.0108 20.8457C78.4631 20.8457 78.906 20.8456 79.3442 20.8551C79.7824 20.8646 80.1829 20.8646 80.541 20.8646H81.8367C81.9828 20.8787 82.1147 20.9118 82.2372 20.9638C82.3597 21.0158 82.4304 21.1104 82.454 21.2427V21.2522ZM67.2916 8.57937C67.0278 8.27212 66.7451 7.94124 66.4435 7.582C66.1467 7.22275 65.8687 6.88715 65.619 6.58462C65.4588 6.40028 65.4258 6.22538 65.52 6.06467C65.586 5.95595 65.6519 5.88032 65.7085 5.82359C65.765 5.76687 65.8357 5.72433 65.9158 5.68179C65.9959 5.62979 66.0996 5.62034 66.2362 5.65343C66.3681 5.68651 66.4906 5.74324 66.5943 5.82359C66.9948 6.10248 67.3764 6.38609 67.7487 6.67443C68.1209 6.96277 68.38 7.20385 68.5261 7.40238C68.5921 7.48273 68.6298 7.57727 68.6345 7.69072C68.6392 7.80416 68.625 7.89397 68.5826 7.96015C68.4884 8.12086 68.3847 8.26267 68.2622 8.38084C68.1397 8.49901 68.0314 8.59355 67.923 8.65973C67.8429 8.71172 67.7392 8.74009 67.612 8.74009C67.4848 8.74009 67.3764 8.68809 67.2822 8.57937H67.2916ZM70.081 7.97906C69.9208 7.97906 69.7936 7.96015 69.6946 7.91761C69.5957 7.87507 69.5344 7.79943 69.5061 7.67654C69.4779 7.53 69.4684 7.41183 69.4684 7.31729C69.4684 7.22275 69.4826 7.11876 69.5061 6.99586C69.5344 6.90133 69.6004 6.83042 69.7135 6.77843C69.8265 6.72643 69.949 6.69807 70.081 6.69807H75V5.93704C75 5.71015 75.0471 5.54943 75.1414 5.45962C75.2356 5.36981 75.3345 5.30836 75.4382 5.28C75.6644 5.25164 75.8387 5.24219 75.9565 5.24219C76.0743 5.24219 76.2298 5.25637 76.4135 5.28C76.5455 5.30836 76.6538 5.37454 76.7434 5.48799C76.8282 5.60143 76.8706 5.75269 76.8706 5.93704V6.69807H81.7896C82.11 6.69807 82.2938 6.78315 82.3456 6.95805C82.4257 7.17076 82.4257 7.41656 82.3456 7.69544C82.2796 7.88452 82.0912 7.97433 81.7896 7.97433H76.8706V9.29313H80.3196C81.2478 9.29313 81.7142 9.73273 81.7142 10.6119V12.9517C81.7142 13.8829 81.2478 14.3509 80.3196 14.3509H76.8706V19.7868C76.8706 19.9712 76.8282 20.1319 76.7434 20.2548C76.6585 20.3824 76.5455 20.458 76.4135 20.4864C76.2298 20.5148 76.0743 20.5242 75.9565 20.5242C75.8387 20.5242 75.6644 20.5053 75.4382 20.4628C75.3298 20.4486 75.2309 20.3919 75.1414 20.2926C75.0518 20.1933 75 20.0232 75 19.7821V16.6624C74.8163 16.8751 74.6231 17.0783 74.4299 17.2721C74.2367 17.4659 74.0624 17.6266 73.9022 17.7637C73.6242 17.9906 73.3226 18.208 72.9975 18.4208C72.6724 18.6335 72.3426 18.832 72.0128 19.0116C71.683 19.1912 71.3673 19.3425 71.0657 19.4701C70.7689 19.5978 70.5097 19.6876 70.2977 19.7396C70.0338 19.8199 69.8312 19.7726 69.6993 19.5978C69.6051 19.489 69.5391 19.3425 69.5014 19.1582C69.4732 19.0542 69.4779 18.9502 69.5108 18.8604C69.5438 18.7658 69.6334 18.6855 69.7794 18.6193C70.7736 18.1135 71.6924 17.4848 72.5311 16.7427C73.3698 15.9959 74.0671 15.197 74.6231 14.3414H71.5557C70.6275 14.3414 70.1611 13.8735 70.1611 12.9423V10.6025C70.1611 9.72328 70.6275 9.28368 71.5557 9.28368H75.0047V7.96488H70.0857L70.081 7.97906ZM75 10.437H72.5499C72.1635 10.437 71.9704 10.6356 71.9704 11.0374V12.5358C71.9704 12.9754 72.1635 13.1975 72.5499 13.1975H75V10.437ZM76.8706 13.1975H79.3207C79.7212 13.1975 79.9191 12.9801 79.9191 12.5358V11.0374C79.9191 10.6356 79.7212 10.437 79.3207 10.437H76.8706V13.1975ZM78.3265 15.2774C78.4584 15.3294 78.7034 15.4806 79.0521 15.7264C79.4008 15.9722 79.7777 16.2511 80.1782 16.5678C80.5787 16.8798 80.9509 17.187 81.3043 17.4896C81.6577 17.7874 81.9121 18.0237 82.0723 18.1986C82.176 18.3073 82.2372 18.4349 82.2514 18.5862C82.2655 18.7375 82.2372 18.8698 82.1713 18.9738C82.0912 19.092 81.9781 19.2149 81.832 19.3425C81.686 19.4701 81.5587 19.5647 81.4551 19.6308C81.3514 19.697 81.2289 19.7254 81.097 19.7112C80.9651 19.697 80.8426 19.6403 80.7389 19.5316C80.541 19.3047 80.2866 19.0258 79.9803 18.6902C79.674 18.3546 79.3631 18.0284 79.0427 17.7023C78.7223 17.3761 78.4254 17.0736 78.1569 16.7947C77.8836 16.5158 77.681 16.3173 77.5491 16.1944C77.4407 16.0999 77.3841 16.0006 77.3794 15.8919C77.3747 15.7832 77.3936 15.6933 77.4501 15.613C77.4878 15.561 77.5915 15.4523 77.7469 15.2916C77.893 15.1828 78.0862 15.1781 78.3265 15.2726V15.2774Z" fill="white"/>
<path d="M102.141 21.1779C102.287 21.2866 102.368 21.4332 102.382 21.6175C102.396 21.8019 102.368 21.9626 102.302 22.0949C102.236 22.2793 102.137 22.4495 102.005 22.596C101.873 22.7425 101.746 22.8701 101.628 22.9741C101.519 23.0403 101.369 23.0829 101.171 23.0923C100.973 23.1065 100.794 23.0639 100.634 22.9741C99.3191 22.2131 98.0846 21.1685 96.9396 19.8355C95.79 18.5025 94.8194 16.9048 94.0231 15.0377C93.8488 14.6359 93.7215 14.2861 93.6461 13.9789C93.3399 15.0708 92.897 16.0871 92.3127 17.0277C91.7285 17.9684 91.0594 18.8145 90.3102 19.5755C89.5611 20.3365 88.7648 21.003 87.9167 21.575C87.0686 22.1469 86.244 22.6149 85.4383 22.9741C85.264 23.0403 85.1179 23.0687 85.0001 23.0639C84.8823 23.0592 84.7881 23.0356 84.7221 22.993C84.6279 22.941 84.5478 22.8654 84.4818 22.7756C84.4159 22.6811 84.3687 22.6007 84.3405 22.5345C84.2886 22.4258 84.2792 22.3076 84.3122 22.1753C84.3452 22.0429 84.4441 21.92 84.5996 21.816C85.3441 21.3623 86.1121 20.8423 86.899 20.2467C87.6905 19.6559 88.4255 18.9705 89.1087 18.2C89.7919 17.4295 90.3856 16.5597 90.8945 15.5907C91.3987 14.6265 91.7379 13.544 91.9122 12.3434C91.9923 11.8092 92.0536 11.2845 92.0913 10.7646C92.129 10.2446 92.1619 9.71994 92.1808 9.19525C92.1996 8.67057 92.2138 8.12698 92.2185 7.57393C92.2232 7.02088 92.2279 6.43948 92.2279 5.82498C92.2279 5.59809 92.2845 5.43738 92.3975 5.34757C92.5106 5.25775 92.6473 5.19631 92.8075 5.16794C92.9912 5.13013 93.1703 5.11122 93.3352 5.11595C93.5001 5.1254 93.6367 5.13958 93.7451 5.16794C93.9194 5.19631 94.0608 5.26248 94.1739 5.36647C94.2869 5.47047 94.3435 5.64063 94.3435 5.86752C94.3435 6.76091 94.3341 7.52193 94.3152 8.15534C94.2964 8.78874 94.2728 9.33706 94.2445 9.80502C94.2163 10.273 94.1833 10.6795 94.1456 11.034C94.1079 11.3885 94.0655 11.7289 94.0278 12.0645L94.188 12.4237C94.7204 12.1165 95.2387 11.743 95.7523 11.3034C96.2612 10.8638 96.7417 10.4148 97.1847 9.95156C97.6276 9.49305 98.0328 9.04872 98.4003 8.6233C98.7631 8.19788 99.0599 7.83864 99.2861 7.54557C99.4039 7.38485 99.5499 7.29504 99.7243 7.27614C99.8986 7.25723 100.049 7.27614 100.181 7.32813C100.502 7.47467 100.766 7.65429 100.978 7.867C101.095 7.97572 101.161 8.12225 101.166 8.3066C101.171 8.49095 101.143 8.64693 101.077 8.76511C100.879 9.08653 100.544 9.46941 100.068 9.91374C99.5971 10.3628 99.0599 10.8071 98.4662 11.2515C97.8679 11.7005 97.2365 12.1165 96.5721 12.5088C95.9078 12.9011 95.2858 13.2037 94.7016 13.4164C95.4319 14.7493 96.2423 15.95 97.1328 17.0135C97.5852 17.5618 98.0375 18.0393 98.4851 18.4505C98.9327 18.8617 99.3803 19.2352 99.8185 19.5708C100.257 19.9064 100.671 20.1947 101.062 20.45C101.453 20.7052 101.816 20.9416 102.151 21.1685L102.141 21.1779ZM86.9602 10.7457C86.6304 10.1454 86.3383 9.64903 86.0932 9.24725C85.8482 8.84546 85.6503 8.50985 85.5043 8.22624C85.3865 7.99935 85.3865 7.815 85.5043 7.66847C85.5561 7.60229 85.6174 7.54557 85.6833 7.4983C85.7493 7.45103 85.8153 7.41322 85.8812 7.38958C86.1215 7.29504 86.3383 7.32813 86.5361 7.48885C86.7764 7.70156 87.0827 8.02298 87.4549 8.4484C87.8272 8.87382 88.1994 9.32761 88.5716 9.80975C88.9438 10.2872 89.2878 10.7599 89.5988 11.2184C89.9097 11.6769 90.1312 12.0456 90.2678 12.3292C90.3479 12.5183 90.3621 12.6884 90.3055 12.8491C90.2537 13.0099 90.1736 13.1517 90.0652 13.2698C89.9851 13.3644 89.8626 13.4636 89.6977 13.5676C89.5328 13.6716 89.3538 13.752 89.17 13.8087C89.0239 13.8371 88.8732 13.8276 88.7224 13.7898C88.5716 13.752 88.4444 13.6385 88.3549 13.4495C88.2088 13.1186 88.0156 12.7215 87.7753 12.2677C87.535 11.814 87.2617 11.3082 86.9602 10.7504V10.7457Z" fill="white"/>
<path d="M121.306 11.0383C121.452 11.0383 121.593 11.0572 121.725 11.0997C121.857 11.1423 121.937 11.2132 121.965 11.3219C122.031 11.563 122.027 11.7946 121.947 12.0215C121.918 12.1302 121.843 12.2011 121.716 12.2389C121.588 12.2767 121.452 12.3003 121.306 12.3003H105.286C105.112 12.3003 104.961 12.2862 104.829 12.2484C104.697 12.2105 104.617 12.1444 104.589 12.0404C104.537 11.8418 104.527 11.6008 104.57 11.3219C104.598 11.2132 104.678 11.1423 104.81 11.0997C104.942 11.0572 105.102 11.0383 105.286 11.0383H121.306ZM105.008 9.29877C104.848 9.24678 104.73 9.12388 104.65 8.93953C104.612 8.87335 104.607 8.79299 104.64 8.69846C104.673 8.60392 104.725 8.51411 104.791 8.41957C105.112 8.03197 105.427 7.60655 105.748 7.13858C106.068 6.67062 106.337 6.14121 106.563 5.54089C106.643 5.32818 106.761 5.20529 106.911 5.1722C107.062 5.13911 107.218 5.15802 107.378 5.22419C107.562 5.29037 107.689 5.34237 107.755 5.37545C107.821 5.40854 107.896 5.46054 107.972 5.52671C108.047 5.59289 108.118 5.67797 108.169 5.77724C108.221 5.8765 108.235 5.98522 108.207 6.10812H112.613C112.745 6.10812 112.867 6.1223 112.98 6.14594C113.093 6.1743 113.154 6.24047 113.169 6.34447C113.235 6.58554 113.235 6.81716 113.169 7.04405C113.14 7.13858 113.074 7.20003 112.971 7.23312C112.867 7.26621 112.745 7.28512 112.613 7.28512H107.533C106.977 8.03197 106.313 8.66537 105.54 9.18533C105.394 9.27986 105.286 9.32713 105.21 9.33659C105.135 9.34131 105.069 9.33659 105.003 9.30823L105.008 9.29877ZM112.617 13.3355C113.027 13.3355 113.343 13.4584 113.564 13.7042C113.786 13.95 113.894 14.2526 113.894 14.6118V21.2862C113.894 21.7636 113.72 22.1701 113.366 22.5057C113.013 22.8366 112.561 22.9926 112 22.9642C111.59 22.9642 111.223 22.9358 110.907 22.8744C110.591 22.813 110.294 22.7468 110.031 22.6664C109.856 22.6144 109.771 22.4868 109.771 22.2883C109.786 22.1937 109.795 22.1181 109.8 22.0566C109.804 21.9952 109.828 21.9337 109.87 21.8676C109.936 21.7494 110.078 21.6927 110.29 21.7069C110.554 21.7352 110.761 21.7494 110.907 21.7589C111.053 21.7636 111.227 21.7589 111.425 21.7305C111.609 21.7021 111.774 21.6265 111.915 21.4989C112.057 21.3712 112.123 21.1822 112.123 20.9269V19.8681H107.161C107.147 19.9863 107.133 20.0997 107.123 20.199C107.109 20.2982 107.095 20.3881 107.086 20.4684C107.057 20.6575 107.024 20.856 106.977 21.0782C106.93 21.2956 106.878 21.5131 106.817 21.7258C106.756 21.9385 106.685 22.137 106.6 22.3261C106.516 22.5104 106.426 22.6664 106.332 22.7846C106.186 22.9311 106.035 23.002 105.875 23.002C105.766 23.002 105.677 22.9878 105.597 22.9642C105.517 22.9358 105.437 22.9028 105.357 22.8649C105.291 22.8366 105.234 22.7846 105.187 22.7042C105.14 22.6239 105.13 22.5104 105.159 22.3639C105.173 22.2835 105.206 22.1323 105.258 21.9054C105.309 21.6785 105.366 21.3949 105.418 21.0451C105.47 20.6953 105.521 20.303 105.569 19.8539C105.616 19.4096 105.639 18.9227 105.639 18.4028V14.5645C105.639 14.2053 105.748 13.9075 105.969 13.6759C106.191 13.4443 106.492 13.3261 106.874 13.3261H112.631L112.617 13.3355ZM112.118 18.6722V17.1927H107.354C107.34 17.4857 107.331 17.7552 107.326 18.001C107.321 18.2468 107.302 18.4689 107.274 18.6722H112.118ZM107.873 14.4936C107.538 14.4936 107.373 14.6591 107.373 14.9947V16.0157H112.113V14.938C112.113 14.6449 111.953 14.4984 111.637 14.4984H107.873V14.4936ZM108.688 10.7736C108.622 10.6648 108.537 10.4899 108.438 10.2442C108.339 9.99835 108.273 9.79982 108.25 9.65329C108.198 9.38858 108.245 9.19951 108.391 9.09552C108.443 9.0577 108.499 9.01989 108.561 8.9868C108.622 8.95371 108.702 8.92535 108.81 8.89699C108.89 8.88281 108.975 8.88281 109.06 8.88753C109.145 8.89226 109.23 8.93008 109.31 8.99625C109.456 9.11442 109.607 9.27987 109.767 9.48785C109.927 9.69583 110.054 9.87073 110.144 10.0173C110.276 10.2725 110.214 10.4899 109.965 10.6743C109.899 10.7121 109.8 10.7688 109.677 10.835C109.55 10.9012 109.442 10.9485 109.347 10.9768C109.069 11.0714 108.848 11.0052 108.688 10.7783V10.7736ZM109.564 7.33711C109.644 7.30875 109.738 7.30875 109.852 7.33711C109.965 7.36547 110.059 7.40329 110.139 7.45529C110.337 7.564 110.516 7.65854 110.676 7.74363C110.836 7.82871 110.987 7.94688 111.133 8.09342C111.227 8.18795 111.27 8.29194 111.26 8.41484C111.251 8.53774 111.218 8.64173 111.152 8.73627C111.006 9.00098 110.784 9.20423 110.492 9.33659C110.375 9.40276 110.247 9.41222 110.115 9.35549C109.983 9.3035 109.875 9.22314 109.795 9.11442C109.649 8.93008 109.531 8.77409 109.437 8.65592C109.343 8.53774 109.244 8.38176 109.14 8.19741C109.074 8.10287 109.046 8.00833 109.051 7.90907C109.055 7.8098 109.088 7.72472 109.14 7.65854C109.206 7.54982 109.347 7.44583 109.559 7.33711H109.564ZM113.169 8.81663C113.074 8.65592 113.103 8.48575 113.249 8.29667C113.513 7.90907 113.762 7.4931 113.998 7.04877C114.229 6.60445 114.455 6.09867 114.667 5.54089C114.733 5.32818 114.841 5.20529 114.997 5.1722C115.148 5.13911 115.312 5.15802 115.487 5.22419C115.671 5.29037 115.802 5.34237 115.873 5.38491C115.944 5.42745 116.024 5.47945 116.104 5.54562C116.288 5.70634 116.363 5.89068 116.321 6.10339H121.122C121.254 6.10339 121.376 6.11758 121.48 6.14121C121.588 6.16957 121.654 6.23575 121.678 6.33974C121.744 6.58081 121.744 6.81243 121.678 7.03932C121.65 7.13386 121.584 7.19531 121.471 7.22839C121.358 7.26148 121.24 7.28039 121.122 7.28039H115.685C115.444 7.63963 115.185 7.97524 114.898 8.29194C114.61 8.60392 114.356 8.84972 114.13 9.01989C113.918 9.1806 113.729 9.22787 113.574 9.16169C113.414 9.1097 113.282 8.99625 113.173 8.82136L113.169 8.81663ZM117.192 20.0288C117.192 20.1895 117.155 20.3124 117.075 20.3975C116.995 20.4826 116.9 20.5393 116.797 20.5677C116.519 20.6339 116.198 20.6339 115.84 20.5677C115.746 20.5393 115.666 20.492 115.59 20.4164C115.515 20.3408 115.482 20.2084 115.482 20.0052V14.3093C115.482 14.1249 115.52 13.9878 115.59 13.898C115.661 13.8082 115.746 13.761 115.84 13.7468C116.024 13.7184 116.194 13.7042 116.349 13.6948C116.5 13.6901 116.651 13.6948 116.797 13.7231C116.905 13.7515 116.995 13.8177 117.075 13.9217C117.155 14.0304 117.192 14.1533 117.192 14.2998V20.0146V20.0288ZM116.396 8.95371C116.462 8.84499 116.57 8.76936 116.717 8.71264C116.863 8.65592 116.995 8.65119 117.117 8.69373C117.291 8.75991 117.437 8.82608 117.555 8.89226C117.673 8.95844 117.781 9.03879 117.876 9.13333C117.984 9.22787 118.041 9.35077 118.055 9.50203C118.069 9.65329 118.026 9.78564 117.937 9.88963C117.819 10.0503 117.673 10.2016 117.499 10.3481C117.324 10.4947 117.098 10.6601 116.82 10.8492C116.702 10.9437 116.585 10.991 116.472 10.991C116.358 10.991 116.264 10.9768 116.184 10.9532C116.104 10.9248 116.029 10.887 115.953 10.835C115.883 10.783 115.826 10.7357 115.784 10.6932C115.689 10.5987 115.703 10.419 115.821 10.1543C115.887 10.0078 115.963 9.83764 116.052 9.64384C116.142 9.45003 116.255 9.22314 116.401 8.95371H116.396ZM120.778 13.1937C120.886 13.2221 120.976 13.2835 121.056 13.3828C121.136 13.4821 121.174 13.6144 121.174 13.7704L121.155 20.7284C121.155 21.5036 120.976 22.0756 120.618 22.449C120.26 22.8224 119.741 23.0068 119.063 23.0068C118.865 23.0068 118.596 22.9831 118.267 22.9358C117.937 22.8886 117.598 22.813 117.249 22.7042C116.905 22.5955 116.745 22.4253 116.768 22.1843C116.782 22.0756 116.797 21.9857 116.806 21.9054C116.815 21.825 116.844 21.7447 116.886 21.6643C116.995 21.5036 117.178 21.4327 117.442 21.4469C117.626 21.4469 117.805 21.4516 117.97 21.4658C118.135 21.48 118.318 21.48 118.516 21.4658C119.101 21.4658 119.393 21.1774 119.393 20.6055V13.7704C119.393 13.5719 119.43 13.4253 119.501 13.3403C119.572 13.2552 119.657 13.2032 119.751 13.189C120.123 13.137 120.462 13.137 120.769 13.189L120.778 13.1937ZM118.846 9.33659C118.728 9.40276 118.601 9.41222 118.469 9.35549C118.337 9.3035 118.224 9.22314 118.13 9.11442C117.984 8.93008 117.866 8.77409 117.781 8.65592C117.697 8.53774 117.598 8.38176 117.494 8.19741C117.362 7.9847 117.353 7.80507 117.475 7.65854C117.541 7.59236 117.602 7.53564 117.664 7.48837C117.725 7.4411 117.805 7.39384 117.913 7.33711C117.979 7.30875 118.073 7.30875 118.191 7.33711C118.309 7.36547 118.408 7.40329 118.488 7.45529C118.672 7.564 118.846 7.65854 119.006 7.74363C119.167 7.82871 119.317 7.94688 119.463 8.09342C119.558 8.18795 119.605 8.29194 119.605 8.41484C119.605 8.53774 119.572 8.64173 119.506 8.73627C119.426 8.86863 119.327 8.9868 119.209 9.08606C119.091 9.18533 118.969 9.27041 118.851 9.33659H118.846Z" fill="white"/>
<path d="M129.952 5.50473C130.39 5.50473 130.729 5.63708 130.97 5.90651C131.21 6.17122 131.328 6.5021 131.328 6.88498V21.3162C131.328 21.6234 131.276 21.8834 131.167 22.0961C131.059 22.3088 130.922 22.4837 130.748 22.6255C130.574 22.7673 130.381 22.8666 130.159 22.9233C129.938 22.98 129.726 23.0131 129.514 23.0131C129.09 22.9989 128.717 22.9611 128.397 22.9044C128.077 22.8477 127.808 22.7673 127.582 22.6728C127.327 22.5783 127.21 22.4459 127.224 22.271C127.252 22.1245 127.276 22.0252 127.294 21.9732C127.313 21.9212 127.346 21.855 127.384 21.7747C127.45 21.6423 127.601 21.5903 127.841 21.614C128.147 21.6518 128.373 21.6801 128.529 21.6943C128.684 21.7085 128.849 21.699 129.038 21.6754C129.17 21.6471 129.292 21.5572 129.405 21.406C129.518 21.2547 129.575 21.0987 129.575 20.938V15.6628C129.189 16.0079 128.816 16.2915 128.449 16.5137C128.081 16.7311 127.756 16.8823 127.464 16.9627C127.37 16.9911 127.271 16.9911 127.163 16.9627C127.054 16.9343 126.969 16.8965 126.903 16.8445C126.875 17.1518 126.847 17.4543 126.814 17.7521C126.781 18.0499 126.743 18.3099 126.705 18.5226C126.465 19.8272 126.23 20.8009 125.999 21.4391C125.768 22.0772 125.584 22.4932 125.452 22.6775C125.306 22.8619 125.16 22.9564 125.014 22.9564C124.816 22.9564 124.628 22.9091 124.458 22.8146C124.392 22.7862 124.34 22.7295 124.307 22.635C124.274 22.5404 124.279 22.4412 124.317 22.3325C124.331 22.2805 124.387 22.0772 124.486 21.7227C124.585 21.3682 124.694 20.9097 124.807 20.3424C124.92 19.7752 125.023 19.1134 125.118 18.3524C125.212 17.5914 125.259 16.7736 125.259 15.8944V6.84716C125.259 6.45956 125.377 6.14286 125.617 5.8876C125.857 5.63235 126.182 5.50945 126.592 5.50945H129.961L129.952 5.50473ZM126.965 7.22532V9.7022C127.082 9.66439 127.219 9.66439 127.365 9.7022C127.751 9.83456 128.157 9.98582 128.581 10.1513C129.005 10.3167 129.339 10.468 129.575 10.6003V7.20168C129.575 6.89443 129.41 6.74317 129.075 6.74317H127.403C127.111 6.74317 126.965 6.90389 126.965 7.22059V7.22532ZM129.575 11.541L129.396 11.8199C129.33 11.886 129.245 11.9333 129.137 11.9617C129.028 11.99 128.925 11.9664 128.816 11.9002C128.538 11.7159 128.227 11.5126 127.888 11.2999C127.549 11.0872 127.243 10.8887 126.96 10.6996V15.3981C127.134 15.3461 127.313 15.2847 127.497 15.2185C127.681 15.1523 127.879 15.0767 128.086 15.001C128.293 14.9207 128.515 14.8262 128.755 14.7127C128.995 14.5993 129.264 14.4716 129.57 14.3251V11.5457L129.575 11.541ZM141.948 21.2547C142.212 21.3871 142.32 21.6187 142.268 21.9543C142.231 22.1292 142.155 22.3088 142.052 22.4932C141.943 22.6775 141.821 22.824 141.675 22.9328C141.58 22.9989 141.467 23.0462 141.335 23.0746C141.203 23.1029 141.043 23.0746 140.86 22.9942C140.289 22.7531 139.653 22.4317 138.956 22.0252C138.259 21.6187 137.552 21.1082 136.836 20.4937C136.157 20.9853 135.446 21.4391 134.706 21.855C133.962 22.2663 133.151 22.635 132.275 22.9564C132.049 23.0651 131.841 23.0273 131.658 22.8571C131.563 22.7626 131.497 22.5972 131.46 22.3561C131.445 22.2615 131.46 22.167 131.511 22.0677C131.559 21.9685 131.653 21.8834 131.799 21.8172C132.638 21.4438 133.373 21.0562 134.009 20.6497C134.645 20.2432 135.215 19.8272 135.724 19.4018C135.125 18.7495 134.593 18.0073 134.122 17.1849C133.651 16.3577 133.274 15.417 132.996 14.3676C132.741 14.3535 132.595 14.2542 132.557 14.0699C132.491 13.843 132.496 13.6255 132.576 13.4128C132.628 13.2521 132.793 13.1717 133.076 13.1717H139.493C140.063 13.1717 140.501 13.3514 140.798 13.7106C141.1 14.0698 141.114 14.6087 140.85 15.3319C140.558 16.093 140.186 16.802 139.733 17.459C139.281 18.1161 138.758 18.7495 138.16 19.3498C138.796 19.7752 139.432 20.1344 140.063 20.4275C140.695 20.7206 141.326 20.9995 141.967 21.2689L141.948 21.2547ZM132.105 12.5998C132.025 12.5478 131.968 12.5005 131.936 12.458C131.903 12.4154 131.865 12.3634 131.827 12.2973C131.733 12.0987 131.761 11.9097 131.907 11.7395C132.162 11.4606 132.374 11.2101 132.543 10.9879C132.718 10.7705 132.859 10.5578 132.972 10.3592C133.085 10.1607 133.17 9.95746 133.222 9.74947C133.274 9.54149 133.302 9.3146 133.302 9.05935V6.99842C133.302 6.49265 133.443 6.1145 133.731 5.8687C134.018 5.6229 134.343 5.5 134.715 5.5H138.4C139.385 5.5 139.875 6.00105 139.875 6.99842L139.856 10.2789C139.842 10.4916 139.889 10.6287 139.997 10.6901C140.106 10.7516 140.242 10.7799 140.417 10.7799H141.552C141.844 10.7799 142.009 10.8981 142.052 11.1392C142.08 11.2195 142.089 11.3283 142.089 11.4606C142.089 11.593 142.075 11.7206 142.052 11.8388C142.023 11.9475 141.976 12.0467 141.91 12.1366C141.844 12.2311 141.722 12.2784 141.552 12.2784H139.738C139.182 12.2784 138.744 12.1413 138.424 11.8671C138.103 11.593 137.948 11.2054 137.948 10.6996V7.30095C137.948 7.07405 137.901 6.92279 137.806 6.84244C137.712 6.76208 137.599 6.72426 137.467 6.72426H135.672C135.526 6.72426 135.394 6.76208 135.286 6.84244C135.177 6.92279 135.116 7.08824 135.116 7.34349V8.64338C135.116 9.03099 135.05 9.41859 134.918 9.81092C134.786 10.2033 134.612 10.5767 134.4 10.9312C134.188 11.2857 133.943 11.6024 133.674 11.8813C133.406 12.1602 133.128 12.3729 132.85 12.5194C132.689 12.614 132.543 12.6612 132.411 12.6612C132.279 12.6612 132.181 12.6423 132.11 12.5998H132.105ZM134.24 14.3582C134.598 15.2374 134.998 15.9937 135.436 16.6271C135.875 17.2605 136.341 17.8088 136.831 18.2768C137.349 17.6765 137.764 17.0809 138.075 16.4853C138.386 15.8944 138.631 15.3083 138.8 14.7363C138.829 14.6182 138.8 14.5236 138.73 14.4575C138.659 14.3913 138.574 14.3582 138.48 14.3582H134.235H134.24Z" fill="white"/>
<path d="M149.06 6.14269C148.994 6.51612 148.886 6.93681 148.73 7.40005C148.58 7.86801 148.419 8.31233 148.264 8.73775C148.198 8.9221 148.118 9.13009 148.024 9.35698C147.929 9.58387 147.845 9.79185 147.764 9.9762L147.468 10.6569C147.6 10.6569 147.717 10.6758 147.826 10.7183C147.92 10.7467 148.005 10.7892 148.085 10.8601C148.165 10.9263 148.203 11.0161 148.203 11.1201V22.4741C148.203 22.6064 148.165 22.7152 148.094 22.805C148.019 22.8901 147.929 22.961 147.826 23.013C147.68 23.065 147.496 23.0886 147.279 23.0839C147.062 23.0791 146.879 23.0602 146.733 23.0319C146.492 22.9373 146.375 22.753 146.375 22.4741V12.6989C146.309 12.8076 146.214 12.94 146.097 13.1101C145.979 13.2756 145.847 13.4457 145.71 13.6206C145.574 13.7955 145.432 13.9562 145.291 14.1122C145.149 14.2682 145.027 14.3817 144.923 14.462C144.749 14.5566 144.584 14.5707 144.424 14.5046C144.33 14.4762 144.259 14.4431 144.207 14.4053C144.155 14.3675 144.113 14.3344 144.089 14.306C144.023 14.2399 143.986 14.1453 143.981 14.0271C143.976 13.909 144.005 13.7955 144.07 13.6868C144.523 12.9258 144.928 12.1647 145.296 11.399C145.658 10.6332 145.965 9.87221 146.2 9.11118C146.318 8.76612 146.426 8.42105 146.521 8.08072C146.615 7.74038 146.695 7.42368 146.77 7.12116C146.841 6.82336 146.907 6.54921 146.959 6.30341C147.011 6.05761 147.053 5.85435 147.077 5.69364C147.105 5.56129 147.18 5.43839 147.307 5.3344C147.435 5.2304 147.585 5.18313 147.755 5.19259C147.967 5.20677 148.165 5.23513 148.344 5.2824C148.523 5.32967 148.65 5.36748 148.73 5.39112C148.862 5.45729 148.961 5.5471 149.032 5.66055C149.098 5.774 149.112 5.93944 149.07 6.14742L149.06 6.14269ZM148.9 13.2188C148.74 13.1527 148.608 13.0392 148.5 12.8785C148.405 12.7036 148.438 12.524 148.598 12.3396C149.008 11.8622 149.385 11.347 149.725 10.7987C150.064 10.2504 150.356 9.70677 150.61 9.15845C150.86 8.61013 151.077 8.07599 151.256 7.55131C151.435 7.02662 151.576 6.53975 151.685 6.10015C151.765 5.76927 151.991 5.5991 152.363 5.5991C152.509 5.61328 152.669 5.64637 152.839 5.69836C153.009 5.75036 153.15 5.81181 153.258 5.87799C153.367 5.94416 153.442 6.05288 153.489 6.19942C153.536 6.34595 153.546 6.49248 153.518 6.63902C153.386 7.17315 153.174 7.75929 152.881 8.39742C152.589 9.03555 152.255 9.66423 151.873 10.274C151.491 10.8838 151.091 11.451 150.667 11.9615C150.243 12.4767 149.824 12.8738 149.414 13.1527C149.348 13.1905 149.268 13.2236 149.173 13.2425C149.079 13.2614 148.985 13.2519 148.895 13.2141L148.9 13.2188ZM158.663 12.5382C159.247 12.5382 159.647 12.6658 159.859 12.9163C160.072 13.1669 160.18 13.4836 160.18 13.857C160.18 14.202 160.161 14.7173 160.119 15.3979C160.081 16.0786 160.034 16.7924 159.977 17.5345C159.925 18.2813 159.859 18.9857 159.789 19.6427C159.718 20.3045 159.652 20.7866 159.6 21.0938C159.44 21.8407 159.167 22.3512 158.776 22.6348C158.385 22.9137 157.805 23.0271 157.032 22.9751C156.82 22.961 156.557 22.9326 156.246 22.8853C155.935 22.8381 155.652 22.7624 155.397 22.6537C155.251 22.5875 155.157 22.5119 155.119 22.4221C155.082 22.3323 155.058 22.2472 155.058 22.1527C155.072 22.0723 155.087 22.0014 155.096 21.9352C155.105 21.8691 155.129 21.8076 155.157 21.7556C155.195 21.6753 155.256 21.6091 155.336 21.5571C155.416 21.5051 155.529 21.4909 155.675 21.5193C155.859 21.5476 156.062 21.5571 156.283 21.5571C156.505 21.5571 156.665 21.5618 156.769 21.576C157.061 21.576 157.268 21.5098 157.395 21.3775C157.522 21.2451 157.612 21.0797 157.664 20.8764C157.692 20.7819 157.725 20.5833 157.763 20.2761C157.8 19.9688 157.843 19.6049 157.881 19.1889C157.918 18.7729 157.961 18.3144 157.998 17.8276C158.036 17.3407 158.069 16.868 158.097 16.4095C158.126 15.951 158.144 15.535 158.159 15.1616C158.173 14.7882 158.173 14.4951 158.159 14.2824C158.13 14.0413 158.008 13.9232 157.782 13.9232H154.832C154.87 14.0319 154.893 14.1642 154.893 14.3249C154.856 15.3932 154.681 16.3811 154.375 17.2934C154.069 18.2057 153.678 19.0282 153.197 19.7609C152.721 20.4935 152.175 21.1317 151.562 21.6705C150.95 22.2094 150.318 22.6395 149.668 22.961C149.56 23.013 149.447 23.0413 149.319 23.0413C149.192 23.0413 149.098 23.0271 149.032 23.0035C148.924 22.9373 148.839 22.857 148.773 22.7624C148.707 22.6679 148.66 22.5828 148.631 22.5025C148.594 22.2472 148.669 22.0487 148.872 21.9021C149.428 21.4767 149.951 21.0229 150.436 20.5408C150.921 20.0634 151.345 19.5103 151.713 18.8911C152.076 18.2719 152.368 17.5581 152.58 16.7498C152.792 15.9463 152.905 15.0009 152.919 13.9232H150.827C150.563 13.9232 150.403 13.7813 150.347 13.5025C150.318 13.3843 150.314 13.2708 150.328 13.1621C150.342 13.0534 150.361 12.9541 150.389 12.8643C150.441 12.6516 150.62 12.5429 150.926 12.5429H158.658L158.663 12.5382ZM162.088 11.6401C162.197 11.7488 162.23 11.8953 162.197 12.0797C162.164 12.264 162.093 12.42 161.989 12.5382C161.871 12.6705 161.739 12.7792 161.603 12.8596C161.461 12.94 161.315 13.0109 161.155 13.077C161.061 13.1054 160.943 13.1054 160.797 13.0865C160.651 13.0676 160.524 13.0014 160.42 12.8974C160.062 12.6044 159.728 12.2262 159.426 11.7582C159.124 11.2903 158.837 10.794 158.578 10.2693C158.319 9.74458 158.088 9.20099 157.881 8.63849C157.673 8.08072 157.499 7.56076 157.353 7.07862C157.273 6.71937 157.098 6.53975 156.835 6.53975H156.674C156.462 6.53975 156.297 6.4783 156.175 6.36013C156.109 6.30813 156.076 6.20414 156.076 6.05288C156.076 5.90162 156.09 5.76927 156.114 5.66528C156.166 5.46675 156.354 5.36748 156.67 5.36748H157.226C157.928 5.36748 158.422 5.75509 158.7 6.52557C158.941 7.14007 159.157 7.66948 159.355 8.11381C159.553 8.56286 159.775 8.96937 160.01 9.3428C160.251 9.71622 160.533 10.0849 160.858 10.4442C161.183 10.8034 161.593 11.2052 162.083 11.6448L162.088 11.6401Z" fill="white"/>
<path d="M181.937 7.42282C182.003 7.67807 182.003 7.90023 181.937 8.10349C181.871 8.30202 181.692 8.40129 181.4 8.40129H172.452C172.188 8.78889 171.915 9.15286 171.637 9.49792C171.359 9.84299 171.067 10.1691 170.761 10.4764H179.27C180.321 10.4764 180.844 10.9916 180.844 12.0174V20.6534C180.844 21.3719 180.599 21.958 180.109 22.4023C179.619 22.8467 178.912 23.0452 177.998 22.9932C177.597 22.9648 177.249 22.927 176.952 22.875C176.655 22.823 176.297 22.719 175.887 22.5772C175.699 22.5111 175.581 22.4165 175.529 22.2983C175.477 22.1802 175.463 22.0809 175.491 22.0005C175.529 21.802 175.59 21.6413 175.67 21.5231C175.722 21.4144 175.797 21.3482 175.901 21.3151C176 21.2821 176.108 21.2726 176.231 21.2868C176.523 21.3151 176.806 21.3482 177.079 21.3861C177.352 21.4239 177.578 21.438 177.767 21.4239C178.191 21.3955 178.488 21.3104 178.653 21.1639C178.818 21.0174 178.902 20.7905 178.902 20.4832V18.8052H169.616C169.55 19.8451 169.437 20.6676 169.276 21.2726C169.116 21.8776 168.998 22.3078 168.918 22.563C168.852 22.7474 168.768 22.875 168.669 22.9317C168.57 22.9885 168.466 23.0263 168.358 23.0405C168.24 23.0405 168.141 23.0405 168.061 23.031C167.981 23.0216 167.868 22.9932 167.722 22.9412C167.495 22.8608 167.411 22.6529 167.462 22.322C167.491 22.1376 167.524 21.8304 167.571 21.405C167.618 20.9795 167.66 20.5069 167.703 19.9963C167.74 19.4858 167.778 18.9612 167.811 18.427C167.844 17.8929 167.863 17.4296 167.863 17.0279V12.9296C167.359 13.2747 166.878 13.5725 166.416 13.8183C165.959 14.0641 165.545 14.2674 165.173 14.4281C164.895 14.5604 164.668 14.5604 164.494 14.4281C164.4 14.3761 164.32 14.3004 164.254 14.1965C164.188 14.0972 164.141 13.9979 164.112 13.9081C164.061 13.7096 164.145 13.5347 164.372 13.3882C165.064 12.9486 165.691 12.5231 166.256 12.1072C166.822 11.6959 167.33 11.2847 167.783 10.8782C168.235 10.4717 168.636 10.0651 168.989 9.65864C169.342 9.25212 169.658 8.83616 169.936 8.41074H164.758C164.4 8.41074 164.202 8.3162 164.159 8.13185C164.108 7.93332 164.098 7.70643 164.141 7.45118C164.178 7.22429 164.386 7.11084 164.758 7.11084H170.713C170.831 6.88395 170.944 6.65706 171.053 6.43017C171.161 6.20328 171.265 5.96221 171.373 5.71169C171.482 5.48479 171.623 5.33353 171.802 5.25318C171.981 5.17282 172.155 5.14446 172.33 5.17282C172.513 5.20118 172.702 5.25318 172.886 5.33353C173.069 5.41389 173.206 5.48007 173.286 5.53206C173.432 5.6266 173.541 5.75895 173.607 5.93385C173.672 6.10874 173.668 6.28837 173.588 6.47271L173.267 7.11084H181.419C181.725 7.11084 181.904 7.21956 181.956 7.43227L181.937 7.42282ZM178.888 15.1796H169.781V16.0399C169.781 16.1345 169.781 16.2621 169.771 16.4275C169.762 16.593 169.762 16.7632 169.762 16.938C169.748 17.0468 169.743 17.1508 169.743 17.2595V17.5998H178.888V15.1796ZM178.888 12.4002C178.888 11.9465 178.69 11.7196 178.29 11.7196H170.299C169.955 11.7196 169.781 11.9465 169.781 12.4002V13.9601H178.888V12.4002Z" fill="white"/>
<path d="M190.435 15.4758C190.449 15.9957 190.388 16.4637 190.256 16.8749C190.124 17.2862 189.912 17.6265 189.62 17.8865C189.328 18.1464 188.951 18.3213 188.494 18.4064C188.037 18.4915 187.495 18.4679 186.868 18.3355L186.59 18.2741L186.374 18.1937L186.355 22.429C186.355 22.5472 186.317 22.6559 186.237 22.7504C186.157 22.845 186.063 22.9017 185.959 22.9301C185.827 22.9679 185.648 22.9868 185.431 22.9821C185.215 22.9773 185.045 22.9584 184.923 22.9301C184.739 22.8639 184.645 22.689 184.645 22.4101V6.96263C184.645 6.11179 185.087 5.68164 185.978 5.68164H189.681C190.082 5.68164 190.35 5.81399 190.496 6.06925C190.643 6.32922 190.657 6.63175 190.534 6.97681C190.468 7.2037 190.346 7.5204 190.167 7.92691C189.988 8.33343 189.799 8.74467 189.597 9.15591L188.838 10.6732C188.772 10.8481 188.748 10.9805 188.767 11.075C188.786 11.1696 188.829 11.2688 188.899 11.3775C189.366 12.0299 189.728 12.6869 189.992 13.3439C190.256 14.0057 190.402 14.7147 190.431 15.471L190.435 15.4758ZM188.602 16.3975C188.711 15.8917 188.701 15.2394 188.584 14.4358C188.466 13.637 188.164 12.6774 187.688 11.5572C187.542 11.2925 187.523 10.9758 187.627 10.6165C187.655 10.5078 187.712 10.2715 187.806 9.90748C187.9 9.54351 187.999 9.15118 188.103 8.73994C188.235 8.28616 188.376 7.75202 188.522 7.14225C188.551 6.90118 188.456 6.78301 188.244 6.78301H186.77C186.609 6.78301 186.506 6.82082 186.463 6.89172C186.416 6.96735 186.393 7.09025 186.393 7.26042L186.374 17.1963C186.468 17.116 186.605 17.0876 186.793 17.116C186.901 17.1302 187.066 17.1349 187.293 17.1349C187.519 17.1349 187.702 17.1207 187.849 17.0971C188.273 17.0593 188.527 16.8229 188.607 16.3975H188.602ZM201.753 21.1528C201.927 21.2615 202.026 21.3938 202.059 21.564C202.092 21.7294 202.059 21.8807 201.97 22.013C201.861 22.1738 201.758 22.3014 201.649 22.4007C201.541 22.4999 201.395 22.6181 201.211 22.7504C201.079 22.8308 200.919 22.8781 200.735 22.8922C200.551 22.9064 200.311 22.8166 200.019 22.6323C199.208 22.1265 198.502 21.5734 197.899 20.9731C197.296 20.3728 196.768 19.7489 196.325 19.0918C195.877 18.4395 195.505 17.773 195.199 17.0924C194.893 16.4117 194.643 15.7405 194.44 15.074C194.403 14.9416 194.393 14.814 194.421 14.6958C194.45 14.5776 194.53 14.4689 194.662 14.3744L194.723 14.3555H193.267V20.5524C193.493 20.5004 193.686 20.4484 193.847 20.4012C194.007 20.3539 194.153 20.3114 194.294 20.2688C194.435 20.231 194.572 20.1885 194.704 20.1507C194.836 20.1128 194.996 20.0656 195.185 20.0088C195.514 19.9143 195.741 19.9379 195.863 20.0703C195.986 20.2026 196.061 20.3681 196.103 20.5713C196.132 20.6895 196.108 20.8124 196.042 20.9306C195.976 21.0488 195.877 21.1528 195.745 21.2331C195.491 21.3796 195.171 21.5356 194.779 21.7011C194.388 21.8665 193.978 22.0225 193.554 22.169C193.13 22.3156 192.706 22.4526 192.287 22.5803C191.868 22.7079 191.505 22.8024 191.203 22.8686C191.085 22.897 190.949 22.8828 190.793 22.8308C190.643 22.7788 190.529 22.6748 190.464 22.5283C190.426 22.4479 190.374 22.3014 190.313 22.0887C190.251 21.876 190.237 21.6869 190.261 21.5309C190.275 21.4222 190.322 21.3229 190.402 21.2331C190.482 21.1433 190.595 21.0818 190.742 21.0535L191.458 20.9117V6.98154C191.458 6.14015 191.91 5.72418 192.815 5.72418H199.689C200.608 5.72418 201.065 6.14488 201.065 6.98154V12.9989C201.065 13.9064 200.608 14.3555 199.689 14.3555H195.547C195.628 14.4358 195.694 14.5351 195.745 14.658C196.009 15.2961 196.268 15.8492 196.513 16.3077C196.758 16.7662 197.003 17.1822 197.239 17.5556C197.837 17.1302 198.403 16.7142 198.931 16.3171C199.463 15.9154 199.939 15.5467 200.363 15.1969C200.495 15.0882 200.641 15.0456 200.801 15.0551C200.961 15.0645 201.088 15.126 201.178 15.2347C201.286 15.3292 201.381 15.4332 201.465 15.5467C201.55 15.6601 201.635 15.8255 201.715 16.0335C201.753 16.1659 201.748 16.3171 201.696 16.4826C201.644 16.648 201.555 16.7709 201.437 16.8513C201.211 16.9978 200.952 17.1491 200.65 17.3098C200.353 17.4705 200.042 17.6218 199.722 17.7683C199.402 17.9148 199.086 18.0519 198.775 18.1795C198.464 18.3072 198.186 18.4112 197.95 18.4915C198.403 18.9973 198.931 19.4463 199.534 19.8387C200.137 20.231 200.876 20.6659 201.758 21.148L201.753 21.1528ZM193.262 9.34025H199.241V7.40223C199.241 7.09498 199.091 6.94372 198.784 6.94372H193.625C193.479 6.94372 193.385 6.98154 193.338 7.05244C193.291 7.12807 193.267 7.24151 193.267 7.40223V9.34025H193.262ZM198.78 13.0981C199.086 13.0981 199.237 12.9232 199.237 12.5782V10.5409H193.258V12.5782L193.276 13.0981H198.775H198.78Z" fill="white"/>
<path d="M208.353 10.7853C207.755 11.759 207.189 12.5768 206.662 13.2433C206.129 13.9098 205.691 14.3683 205.347 14.6235C205.229 14.7181 205.102 14.7842 204.97 14.8221C204.838 14.8599 204.716 14.8551 204.612 14.8031C204.518 14.7653 204.447 14.7181 204.395 14.6708C204.343 14.6235 204.287 14.5526 204.235 14.4628C204.169 14.3588 204.15 14.2548 204.174 14.1556C204.202 14.0563 204.244 13.957 204.315 13.8672C205.192 12.6949 205.931 11.499 206.525 10.2795C207.123 9.05997 207.623 7.78371 208.019 6.45073C208.136 6.06312 208.391 5.8835 208.777 5.91186C208.857 5.91186 208.947 5.92604 209.046 5.94968C209.145 5.97804 209.248 6.0064 209.357 6.03949C209.465 6.07258 209.559 6.11039 209.644 6.14821C209.729 6.18602 209.795 6.22384 209.833 6.24747C209.941 6.31365 210.026 6.42237 210.092 6.5689C210.158 6.71543 210.162 6.87615 210.111 7.04632C209.936 7.69863 209.701 8.3273 209.394 8.92289C209.088 9.52321 208.744 10.1424 208.358 10.7806L208.353 10.7853ZM216.74 15.602C217.032 15.9234 217.362 16.311 217.734 16.7695C218.106 17.228 218.479 17.7244 218.851 18.2585C219.223 18.7926 219.576 19.341 219.906 19.9082C220.236 20.4754 220.519 21.0237 220.745 21.5579C220.825 21.7328 220.83 21.9029 220.754 22.0778C220.679 22.2527 220.589 22.3709 220.486 22.4371C220.208 22.664 219.859 22.801 219.449 22.8578C219.303 22.8719 219.162 22.8578 219.02 22.8199C218.879 22.7821 218.766 22.664 218.672 22.4796C218.554 22.2149 218.431 21.9502 218.314 21.6902C218.196 21.4302 218.069 21.175 217.937 20.9197C217.659 21.0001 217.258 21.0946 216.731 21.1986C216.208 21.3073 215.609 21.4161 214.935 21.539C214.266 21.6571 213.536 21.7753 212.754 21.8888C211.972 22.0022 211.19 22.1062 210.412 22.196C209.635 22.2905 208.881 22.3709 208.15 22.4371C207.42 22.5032 206.77 22.5458 206.2 22.5552C206.025 22.5552 205.865 22.5127 205.71 22.4276C205.554 22.3425 205.47 22.2244 205.441 22.0778C205.404 21.9029 205.38 21.7469 205.371 21.6099C205.361 21.4728 205.371 21.3263 205.38 21.1797C205.394 21.019 205.446 20.8772 205.54 20.759C205.634 20.6408 205.771 20.5747 205.96 20.5605C205.988 20.5605 206.073 20.5605 206.219 20.551C206.365 20.5416 206.548 20.5321 206.775 20.5227C206.935 20.2674 207.166 19.8656 207.472 19.3126C207.778 18.7595 208.117 18.1214 208.49 17.4029C208.862 16.6844 209.248 15.9092 209.644 15.0726C210.045 14.2406 210.412 13.4087 210.761 12.5862C210.827 12.4397 210.935 12.3121 211.081 12.2081C211.227 12.0994 211.387 12.0615 211.557 12.0899C211.717 12.1183 211.91 12.1608 212.146 12.2223C212.382 12.2837 212.547 12.3452 212.655 12.4113C212.773 12.4775 212.862 12.6051 212.914 12.7895C212.966 12.9786 212.947 13.1629 212.853 13.3473C212.561 14.0138 212.24 14.6661 211.887 15.3042C211.533 15.9423 211.171 16.5615 210.789 17.1619C210.412 17.7622 210.026 18.3389 209.635 18.8919C209.244 19.4449 208.862 19.9602 208.49 20.4423C208.956 20.414 209.446 20.3903 209.964 20.362C210.483 20.3336 211.006 20.3005 211.538 20.2627C212.707 20.1823 213.805 20.0878 214.836 19.9838C215.864 19.8751 216.683 19.7853 217.296 19.7049C217.004 19.1472 216.702 18.5941 216.401 18.0552C216.094 17.5164 215.783 16.9586 215.463 16.3866C215.383 16.2543 215.345 16.1219 215.355 15.999C215.364 15.8761 215.397 15.7769 215.463 15.7107C215.557 15.602 215.637 15.5264 215.713 15.4791C215.788 15.4318 215.878 15.3893 215.981 15.3467C216.245 15.2664 216.5 15.3515 216.74 15.6067V15.602ZM221.541 12.9218C221.645 13.0164 221.739 13.1535 221.81 13.3425C221.88 13.5316 221.862 13.7018 221.739 13.8625C221.593 14.061 221.433 14.2312 221.259 14.373C221.084 14.5148 220.915 14.6235 220.74 14.7039C220.632 14.7417 220.486 14.7559 220.302 14.7417C220.114 14.7275 219.958 14.6755 219.821 14.581C219.435 14.3257 218.973 13.8625 218.436 13.1818C217.899 12.5011 217.376 11.7023 216.872 10.7806C216.617 10.341 216.405 9.81627 216.236 9.21123C216.066 8.60619 215.897 8.02951 215.736 7.48119C215.628 7.0794 215.43 6.88087 215.138 6.88087H213.885C213.753 6.88087 213.649 6.86197 213.574 6.82888C213.503 6.79579 213.432 6.7438 213.366 6.67762C213.3 6.61144 213.258 6.47909 213.249 6.29001C213.239 6.10094 213.244 5.94495 213.267 5.84096C213.348 5.62825 213.555 5.51953 213.885 5.51953H215.576C216.358 5.51953 216.91 5.94495 217.23 6.80052C217.494 7.48119 217.758 8.09096 218.017 8.63928C218.276 9.1876 218.568 9.6981 218.893 10.1802C219.218 10.6624 219.591 11.1209 220.01 11.5605C220.429 12.0001 220.938 12.4539 221.536 12.9218H221.541Z" fill="white"/>
<path d="M237.028 9.09918C237.094 9.36389 237.089 9.62387 237.009 9.87912C236.981 9.97366 236.91 10.0351 236.792 10.0682C236.675 10.1013 236.547 10.1202 236.415 10.1202H225.277C224.956 10.1202 224.759 10.0067 224.678 9.77985C224.584 9.56714 224.594 9.33553 224.697 9.08027C224.777 8.88175 224.971 8.78248 225.277 8.78248H236.415C236.576 8.78248 236.712 8.80611 236.825 8.85338C236.938 8.90065 237.009 8.98101 237.033 9.10391L237.028 9.09918ZM239.082 5.68164C240.185 5.68164 240.736 6.23469 240.736 7.34078V20.1128C240.736 21.044 240.496 21.7342 240.01 22.1738C239.525 22.6134 238.767 22.8213 237.73 22.793C237.174 22.793 236.656 22.7457 236.175 22.6512C235.699 22.5566 235.28 22.4432 234.922 22.3108C234.724 22.2447 234.592 22.1596 234.521 22.0603C234.451 21.961 234.422 21.824 234.422 21.6491C234.422 21.5404 234.455 21.408 234.521 21.2473C234.615 21.0346 234.795 20.9353 235.058 20.9495C235.949 21.0299 236.712 21.0677 237.348 21.0677C238.225 21.0535 238.663 20.6612 238.663 19.8859V7.87964C238.663 7.33132 238.418 7.06189 237.923 7.06189H225.668C225.508 7.06189 225.381 7.03353 225.291 6.98154C225.197 6.92954 225.117 6.85391 225.051 6.7641C225.013 6.69792 224.989 6.57975 224.98 6.40485C224.971 6.22996 224.98 6.11651 225.008 6.06452C225.088 5.81399 225.31 5.68637 225.668 5.68637H239.078L239.082 5.68164ZM234.46 11.8597C235.563 11.8597 236.114 12.3844 236.114 13.4385V17.4374C236.114 18.5435 235.563 19.0966 234.46 19.0966H227.086C225.984 19.0966 225.432 18.5435 225.432 17.4374V13.4385C225.432 12.3844 225.984 11.8597 227.086 11.8597H234.46ZM234.182 17.0545V13.8544C234.182 13.3865 233.956 13.1549 233.504 13.1549H227.986C227.548 13.1549 227.331 13.3865 227.331 13.8544V17.0545C227.331 17.5461 227.548 17.7967 227.986 17.7967H233.504C233.956 17.7967 234.182 17.5509 234.182 17.0545Z" fill="white"/>
<path d="M13.8738 24.3844C13.6194 24.1528 13.2896 24.0299 12.9503 24.0488C12.6064 24.063 12.2907 24.2142 12.0598 24.4647L7.58369 29.3665C7.10309 29.8912 7.14079 30.709 7.66379 31.1911C7.89937 31.4085 8.21035 31.5314 8.53546 31.5314C8.89355 31.5314 9.23751 31.3802 9.48252 31.1107L13.9587 26.209C14.4393 25.6843 14.4016 24.8665 13.8786 24.3844H13.8738Z" fill="white"/>
<path d="M16.3278 30.6981C15.8048 30.2159 14.9896 30.2537 14.5091 30.7784L10.0329 35.6802C9.55231 36.2049 9.59 37.0226 10.113 37.5048C10.3486 37.7222 10.6596 37.8451 10.9847 37.8451C11.3428 37.8451 11.6867 37.6939 11.9317 37.4244L16.4079 32.5226C16.8885 31.9979 16.8508 31.1802 16.3278 30.6981Z" fill="white"/>
<path d="M6.62659 22.5856C6.37215 22.3539 6.04233 22.231 5.70309 22.2499C5.35913 22.2641 5.04345 22.4154 4.81257 22.6659L0.336427 27.5677C0.105553 27.823 -0.0169523 28.1491 0.00189458 28.4942C0.0160298 28.8392 0.166805 29.1559 0.416527 29.3876C0.652113 29.605 0.963088 29.7279 1.28349 29.7279C1.64158 29.7279 1.98553 29.5766 2.23054 29.3072L6.70669 24.4054C6.93756 24.1502 7.06007 23.8193 7.04122 23.4789C7.02708 23.1339 6.87631 22.8172 6.62659 22.5856Z" fill="white"/>
<path d="M37.2565 2.74632L37.2423 2.55725C37.2094 2.0042 37.0963 1.36607 36.512 0.761029L36.4602 0.709033L36.4178 0.666491C35.7958 0.108718 35.155 0.0141808 34.6038 0.004727H34.4153C34.4153 0.004727 34.3729 0 34.3493 0C31.1124 0.132353 27.2912 1.18645 23.5972 2.96376C22.1271 3.66807 20.9256 4.52836 19.7618 5.36502C19.5309 5.53046 19.3001 5.6959 19.0692 5.86134L18.8949 5.9937C18.8195 6.05042 18.7394 6.1166 18.6546 6.19223C17.9949 6.70273 16.7322 7.69065 15.738 8.59821C15.281 8.98582 14.8993 9.33561 14.5742 9.67122C11.7095 12.6444 10.1216 14.7857 8.72694 17.584C8.72694 17.5935 8.71752 17.6029 8.71281 17.6124C8.17567 18.6759 8.39712 19.9995 9.25466 20.8314C10.0227 21.5783 11.0922 21.791 12.1854 21.4128C12.2466 21.3939 12.3031 21.3655 12.3644 21.3277C12.7885 21.1103 13.3774 20.7794 14.1077 20.3445C14.414 21.1765 14.8805 21.895 15.4836 22.4858L15.493 22.4953L15.526 22.5284L15.559 22.5614C16.1668 23.1381 16.8924 23.5683 17.7263 23.8472C17.3211 24.594 17.0149 25.1943 16.8076 25.6387C16.7793 25.6954 16.7557 25.7521 16.7369 25.8135C16.4024 26.9244 16.6521 27.9879 17.4248 28.73C17.9478 29.2311 18.6404 29.4911 19.3378 29.4911C19.7901 29.4911 20.2424 29.3823 20.6476 29.1555L20.6806 29.1413C23.4134 27.6429 25.496 25.9743 28.3513 22.9916C28.6717 22.656 29.0109 22.2637 29.3785 21.791C30.2501 20.7605 31.1878 19.4606 31.6684 18.7799C31.7343 18.6949 31.8003 18.6145 31.8615 18.5294L31.984 18.3498C32.1301 18.1229 32.2762 17.9007 32.4269 17.6738L32.4505 17.636C33.2374 16.4401 34.0478 15.2017 34.7027 13.7033C36.3377 9.9312 37.247 6.0646 37.2612 2.8125C37.2612 2.78886 37.2612 2.76996 37.2612 2.74632H37.2565ZM13.6884 18.3876C12.7319 18.9643 11.9969 19.385 11.5116 19.6355C10.9886 19.7962 10.7247 19.6166 10.5739 19.4653C10.3054 19.2006 10.2347 18.7894 10.409 18.4538C10.4137 18.4443 10.4232 18.4254 10.4326 18.4112C11.5587 16.1565 12.812 14.3745 14.8522 12.1434C13.9287 14.4596 13.5376 16.5583 13.6931 18.3876H13.6884ZM16.8311 21.1434L16.8028 21.115C16.327 20.6471 15.983 20.0515 15.7757 19.333C17.1751 18.468 18.3907 17.6833 18.4048 17.6738C19.7807 16.7379 20.1435 16.8939 20.5157 17.2484L20.5628 17.2957C20.9445 17.6597 21.1282 18.0095 20.233 19.4464C20.1529 19.5788 19.4461 20.7747 18.6781 22.1408C17.9572 21.9611 17.3541 21.6397 16.8735 21.1859L16.8311 21.1434ZM18.5273 26.4328C18.7629 25.927 19.154 25.1754 19.6958 24.1969C21.5193 24.2868 23.6019 23.8188 25.8729 22.8072C23.7244 24.9296 21.9952 26.2531 19.7901 27.4632C19.7759 27.4727 19.7571 27.4821 19.743 27.4869C19.4179 27.6712 19.0032 27.6192 18.7299 27.3545C18.5745 27.208 18.386 26.948 18.5226 26.4328H18.5273ZM35.3671 2.83141C35.3482 5.82353 34.4954 9.41596 32.9641 12.9422C32.6343 13.7033 32.2291 14.4501 31.6542 15.3766C31.4328 15.7878 30.9616 16.5961 30.3349 17.4091L30.3114 17.4422C30.2596 17.5179 30.1794 17.6124 30.0711 17.7353C29.7224 18.1513 29.3737 18.5058 29.0204 18.7988L28.9591 18.8556C28.8319 18.9737 27.6681 20.0137 25.4018 20.9448C23.715 21.7248 22.1601 22.1738 20.7795 22.2826C21.279 21.4128 21.6889 20.7132 21.8538 20.4343C22.4239 19.5221 23.6019 17.6266 21.9009 15.9533L21.8585 15.9107L21.8161 15.8682C20.0963 14.2327 18.2541 15.4853 17.3635 16.0903C17.3588 16.0903 16.5861 16.5914 15.559 17.2342C15.6202 15.8493 16.0113 14.2752 16.7275 12.5499C17.5473 10.2952 18.4944 9.1229 18.6781 8.90546L18.7347 8.83928C19.0126 8.48004 19.3566 8.11134 19.7571 7.7521C19.8749 7.63865 19.9644 7.5583 20.0398 7.50157L20.0775 7.47321C20.8596 6.81617 21.6465 6.31513 22.0517 6.07405C22.9517 5.45956 23.682 5.02941 24.4264 4.67489C27.8848 3.01103 31.4281 2.02784 34.4059 1.90021H34.5708C34.9571 1.91439 35.0608 1.98057 35.1645 2.0751H35.1692C35.2681 2.1791 35.3435 2.28309 35.3624 2.67069L35.3718 2.83141H35.3671Z" fill="white"/>
</svg>
